G04 #@! TF.GenerationSoftware,KiCad,Pcbnew,(5.1.0)-1*
G04 #@! TF.CreationDate,2019-03-30T00:31:39+01:00*
G04 #@! TF.ProjectId,UV_Meter,55565f4d-6574-4657-922e-6b696361645f,rev?*
G04 #@! TF.SameCoordinates,Original*
G04 #@! TF.FileFunction,Legend,Bot*
G04 #@! TF.FilePolarity,Positive*
%FSLAX46Y46*%
G04 Gerber Fmt 4.6, Leading zero omitted, Abs format (unit mm)*
G04 Created by KiCad (PCBNEW (5.1.0)-1) date 2019-03-30 00:31:39*
%MOMM*%
%LPD*%
G04 APERTURE LIST*
%ADD10C,0.120000*%
%ADD11C,0.150000*%
G04 APERTURE END LIST*
D10*
X74990000Y-26610000D02*
X73660000Y-26610000D01*
X74990000Y-27940000D02*
X74990000Y-26610000D01*
X74990000Y-29210000D02*
X72330000Y-29210000D01*
X72330000Y-29210000D02*
X72330000Y-34350000D01*
X74990000Y-29210000D02*
X74990000Y-34350000D01*
X74990000Y-34350000D02*
X72330000Y-34350000D01*
D11*
X74826666Y-26062380D02*
X75160000Y-25586190D01*
X75398095Y-26062380D02*
X75398095Y-25062380D01*
X75017142Y-25062380D01*
X74921904Y-25110000D01*
X74874285Y-25157619D01*
X74826666Y-25252857D01*
X74826666Y-25395714D01*
X74874285Y-25490952D01*
X74921904Y-25538571D01*
X75017142Y-25586190D01*
X75398095Y-25586190D01*
X73874285Y-25110000D02*
X73969523Y-25062380D01*
X74112380Y-25062380D01*
X74255238Y-25110000D01*
X74350476Y-25205238D01*
X74398095Y-25300476D01*
X74445714Y-25490952D01*
X74445714Y-25633809D01*
X74398095Y-25824285D01*
X74350476Y-25919523D01*
X74255238Y-26014761D01*
X74112380Y-26062380D01*
X74017142Y-26062380D01*
X73874285Y-26014761D01*
X73826666Y-25967142D01*
X73826666Y-25633809D01*
X74017142Y-25633809D01*
X73064761Y-25538571D02*
X72921904Y-25586190D01*
X72874285Y-25633809D01*
X72826666Y-25729047D01*
X72826666Y-25871904D01*
X72874285Y-25967142D01*
X72921904Y-26014761D01*
X73017142Y-26062380D01*
X73398095Y-26062380D01*
X73398095Y-25062380D01*
X73064761Y-25062380D01*
X72969523Y-25110000D01*
X72921904Y-25157619D01*
X72874285Y-25252857D01*
X72874285Y-25348095D01*
X72921904Y-25443333D01*
X72969523Y-25490952D01*
X73064761Y-25538571D01*
X73398095Y-25538571D01*
X71874285Y-26062380D02*
X72445714Y-26062380D01*
X72160000Y-26062380D02*
X72160000Y-25062380D01*
X72255238Y-25205238D01*
X72350476Y-25300476D01*
X72445714Y-25348095D01*
M02*
