G04 #@! TF.GenerationSoftware,KiCad,Pcbnew,(5.1.0)-1*
G04 #@! TF.CreationDate,2019-03-30T00:31:39+01:00*
G04 #@! TF.ProjectId,UV_Meter,55565f4d-6574-4657-922e-6b696361645f,rev?*
G04 #@! TF.SameCoordinates,Original*
G04 #@! TF.FileFunction,Legend,Top*
G04 #@! TF.FilePolarity,Positive*
%FSLAX46Y46*%
G04 Gerber Fmt 4.6, Leading zero omitted, Abs format (unit mm)*
G04 Created by KiCad (PCBNEW (5.1.0)-1) date 2019-03-30 00:31:39*
%MOMM*%
%LPD*%
G04 APERTURE LIST*
%ADD10C,0.150000*%
%ADD11C,0.120000*%
%ADD12C,0.100000*%
G04 APERTURE END LIST*
D10*
X87177619Y-25638571D02*
X87177619Y-25067142D01*
X87177619Y-25352857D02*
X88177619Y-25352857D01*
X88034761Y-25257619D01*
X87939523Y-25162380D01*
X87891904Y-25067142D01*
X88177619Y-25971904D02*
X88177619Y-26638571D01*
X87177619Y-26210000D01*
X87272857Y-27019523D02*
X87225238Y-27067142D01*
X87177619Y-27019523D01*
X87225238Y-26971904D01*
X87272857Y-27019523D01*
X87177619Y-27019523D01*
X88177619Y-27400476D02*
X88177619Y-28067142D01*
X87177619Y-27638571D01*
X87749047Y-28590952D02*
X87796666Y-28495714D01*
X87844285Y-28448095D01*
X87939523Y-28400476D01*
X87987142Y-28400476D01*
X88082380Y-28448095D01*
X88130000Y-28495714D01*
X88177619Y-28590952D01*
X88177619Y-28781428D01*
X88130000Y-28876666D01*
X88082380Y-28924285D01*
X87987142Y-28971904D01*
X87939523Y-28971904D01*
X87844285Y-28924285D01*
X87796666Y-28876666D01*
X87749047Y-28781428D01*
X87749047Y-28590952D01*
X87701428Y-28495714D01*
X87653809Y-28448095D01*
X87558571Y-28400476D01*
X87368095Y-28400476D01*
X87272857Y-28448095D01*
X87225238Y-28495714D01*
X87177619Y-28590952D01*
X87177619Y-28781428D01*
X87225238Y-28876666D01*
X87272857Y-28924285D01*
X87368095Y-28971904D01*
X87558571Y-28971904D01*
X87653809Y-28924285D01*
X87701428Y-28876666D01*
X87749047Y-28781428D01*
X88177619Y-29590952D02*
X88177619Y-29686190D01*
X88130000Y-29781428D01*
X88082380Y-29829047D01*
X87987142Y-29876666D01*
X87796666Y-29924285D01*
X87558571Y-29924285D01*
X87368095Y-29876666D01*
X87272857Y-29829047D01*
X87225238Y-29781428D01*
X87177619Y-29686190D01*
X87177619Y-29590952D01*
X87225238Y-29495714D01*
X87272857Y-29448095D01*
X87368095Y-29400476D01*
X87558571Y-29352857D01*
X87796666Y-29352857D01*
X87987142Y-29400476D01*
X88082380Y-29448095D01*
X88130000Y-29495714D01*
X88177619Y-29590952D01*
X87177619Y-31114761D02*
X87844285Y-31114761D01*
X87749047Y-31114761D02*
X87796666Y-31162380D01*
X87844285Y-31257619D01*
X87844285Y-31400476D01*
X87796666Y-31495714D01*
X87701428Y-31543333D01*
X87177619Y-31543333D01*
X87701428Y-31543333D02*
X87796666Y-31590952D01*
X87844285Y-31686190D01*
X87844285Y-31829047D01*
X87796666Y-31924285D01*
X87701428Y-31971904D01*
X87177619Y-31971904D01*
X87177619Y-32448095D02*
X87844285Y-32448095D01*
X87749047Y-32448095D02*
X87796666Y-32495714D01*
X87844285Y-32590952D01*
X87844285Y-32733809D01*
X87796666Y-32829047D01*
X87701428Y-32876666D01*
X87177619Y-32876666D01*
X87701428Y-32876666D02*
X87796666Y-32924285D01*
X87844285Y-33019523D01*
X87844285Y-33162380D01*
X87796666Y-33257619D01*
X87701428Y-33305238D01*
X87177619Y-33305238D01*
D11*
X86360000Y-20320000D02*
X86360000Y-38100000D01*
X81280000Y-20320000D02*
X86946421Y-20320000D01*
X81280000Y-38100000D02*
X86946421Y-38100000D01*
X86360000Y-38100000D02*
X85773579Y-36973496D01*
X86360000Y-38100000D02*
X86946421Y-36973496D01*
X86360000Y-20320000D02*
X85773579Y-21446504D01*
X86360000Y-20320000D02*
X86946421Y-21446504D01*
D10*
X48450952Y-43902380D02*
X47974761Y-43902380D01*
X47927142Y-44378571D01*
X47974761Y-44330952D01*
X48070000Y-44283333D01*
X48308095Y-44283333D01*
X48403333Y-44330952D01*
X48450952Y-44378571D01*
X48498571Y-44473809D01*
X48498571Y-44711904D01*
X48450952Y-44807142D01*
X48403333Y-44854761D01*
X48308095Y-44902380D01*
X48070000Y-44902380D01*
X47974761Y-44854761D01*
X47927142Y-44807142D01*
X49070000Y-44330952D02*
X48974761Y-44283333D01*
X48927142Y-44235714D01*
X48879523Y-44140476D01*
X48879523Y-44092857D01*
X48927142Y-43997619D01*
X48974761Y-43950000D01*
X49070000Y-43902380D01*
X49260476Y-43902380D01*
X49355714Y-43950000D01*
X49403333Y-43997619D01*
X49450952Y-44092857D01*
X49450952Y-44140476D01*
X49403333Y-44235714D01*
X49355714Y-44283333D01*
X49260476Y-44330952D01*
X49070000Y-44330952D01*
X48974761Y-44378571D01*
X48927142Y-44426190D01*
X48879523Y-44521428D01*
X48879523Y-44711904D01*
X48927142Y-44807142D01*
X48974761Y-44854761D01*
X49070000Y-44902380D01*
X49260476Y-44902380D01*
X49355714Y-44854761D01*
X49403333Y-44807142D01*
X49450952Y-44711904D01*
X49450952Y-44521428D01*
X49403333Y-44426190D01*
X49355714Y-44378571D01*
X49260476Y-44330952D01*
X49879523Y-44807142D02*
X49927142Y-44854761D01*
X49879523Y-44902380D01*
X49831904Y-44854761D01*
X49879523Y-44807142D01*
X49879523Y-44902380D01*
X50784285Y-44235714D02*
X50784285Y-44902380D01*
X50546190Y-43854761D02*
X50308095Y-44569047D01*
X50927142Y-44569047D01*
X51260476Y-43997619D02*
X51308095Y-43950000D01*
X51403333Y-43902380D01*
X51641428Y-43902380D01*
X51736666Y-43950000D01*
X51784285Y-43997619D01*
X51831904Y-44092857D01*
X51831904Y-44188095D01*
X51784285Y-44330952D01*
X51212857Y-44902380D01*
X51831904Y-44902380D01*
X52450952Y-43902380D02*
X52546190Y-43902380D01*
X52641428Y-43950000D01*
X52689047Y-43997619D01*
X52736666Y-44092857D01*
X52784285Y-44283333D01*
X52784285Y-44521428D01*
X52736666Y-44711904D01*
X52689047Y-44807142D01*
X52641428Y-44854761D01*
X52546190Y-44902380D01*
X52450952Y-44902380D01*
X52355714Y-44854761D01*
X52308095Y-44807142D01*
X52260476Y-44711904D01*
X52212857Y-44521428D01*
X52212857Y-44283333D01*
X52260476Y-44092857D01*
X52308095Y-43997619D01*
X52355714Y-43950000D01*
X52450952Y-43902380D01*
X53974761Y-44902380D02*
X53974761Y-44235714D01*
X53974761Y-44330952D02*
X54022380Y-44283333D01*
X54117619Y-44235714D01*
X54260476Y-44235714D01*
X54355714Y-44283333D01*
X54403333Y-44378571D01*
X54403333Y-44902380D01*
X54403333Y-44378571D02*
X54450952Y-44283333D01*
X54546190Y-44235714D01*
X54689047Y-44235714D01*
X54784285Y-44283333D01*
X54831904Y-44378571D01*
X54831904Y-44902380D01*
X55308095Y-44902380D02*
X55308095Y-44235714D01*
X55308095Y-44330952D02*
X55355714Y-44283333D01*
X55450952Y-44235714D01*
X55593809Y-44235714D01*
X55689047Y-44283333D01*
X55736666Y-44378571D01*
X55736666Y-44902380D01*
X55736666Y-44378571D02*
X55784285Y-44283333D01*
X55879523Y-44235714D01*
X56022380Y-44235714D01*
X56117619Y-44283333D01*
X56165238Y-44378571D01*
X56165238Y-44902380D01*
D11*
X81280000Y-43180000D02*
X22860000Y-43180000D01*
X81280000Y-38100000D02*
X81280000Y-43766421D01*
X22860000Y-38100000D02*
X22860000Y-43766421D01*
X22860000Y-43180000D02*
X23986504Y-42593579D01*
X22860000Y-43180000D02*
X23986504Y-43766421D01*
X81280000Y-43180000D02*
X80153496Y-42593579D01*
X81280000Y-43180000D02*
X80153496Y-43766421D01*
D10*
X-9969047Y-43902380D02*
X-10445238Y-43902380D01*
X-10492857Y-44378571D01*
X-10445238Y-44330952D01*
X-10349999Y-44283333D01*
X-10111904Y-44283333D01*
X-10016666Y-44330952D01*
X-9969047Y-44378571D01*
X-9921428Y-44473809D01*
X-9921428Y-44711904D01*
X-9969047Y-44807142D01*
X-10016666Y-44854761D01*
X-10111904Y-44902380D01*
X-10349999Y-44902380D01*
X-10445238Y-44854761D01*
X-10492857Y-44807142D01*
X-9588095Y-43902380D02*
X-8969047Y-43902380D01*
X-9302380Y-44283333D01*
X-9159523Y-44283333D01*
X-9064285Y-44330952D01*
X-9016666Y-44378571D01*
X-8969047Y-44473809D01*
X-8969047Y-44711904D01*
X-9016666Y-44807142D01*
X-9064285Y-44854761D01*
X-9159523Y-44902380D01*
X-9445238Y-44902380D01*
X-9540476Y-44854761D01*
X-9588095Y-44807142D01*
X-8540476Y-44807142D02*
X-8492857Y-44854761D01*
X-8540476Y-44902380D01*
X-8588095Y-44854761D01*
X-8540476Y-44807142D01*
X-8540476Y-44902380D01*
X-8159523Y-43902380D02*
X-7540476Y-43902380D01*
X-7873809Y-44283333D01*
X-7730952Y-44283333D01*
X-7635714Y-44330952D01*
X-7588095Y-44378571D01*
X-7540476Y-44473809D01*
X-7540476Y-44711904D01*
X-7588095Y-44807142D01*
X-7635714Y-44854761D01*
X-7730952Y-44902380D01*
X-8016666Y-44902380D01*
X-8111904Y-44854761D01*
X-8159523Y-44807142D01*
X-6683333Y-44235714D02*
X-6683333Y-44902380D01*
X-6921428Y-43854761D02*
X-7159523Y-44569047D01*
X-6540476Y-44569047D01*
X-5969047Y-43902380D02*
X-5873809Y-43902380D01*
X-5778571Y-43950000D01*
X-5730952Y-43997619D01*
X-5683333Y-44092857D01*
X-5635714Y-44283333D01*
X-5635714Y-44521428D01*
X-5683333Y-44711904D01*
X-5730952Y-44807142D01*
X-5778571Y-44854761D01*
X-5873809Y-44902380D01*
X-5969047Y-44902380D01*
X-6064285Y-44854761D01*
X-6111904Y-44807142D01*
X-6159523Y-44711904D01*
X-6207142Y-44521428D01*
X-6207142Y-44283333D01*
X-6159523Y-44092857D01*
X-6111904Y-43997619D01*
X-6064285Y-43950000D01*
X-5969047Y-43902380D01*
X-4445238Y-44902380D02*
X-4445238Y-44235714D01*
X-4445238Y-44330952D02*
X-4397619Y-44283333D01*
X-4302380Y-44235714D01*
X-4159523Y-44235714D01*
X-4064285Y-44283333D01*
X-4016666Y-44378571D01*
X-4016666Y-44902380D01*
X-4016666Y-44378571D02*
X-3969047Y-44283333D01*
X-3873809Y-44235714D01*
X-3730952Y-44235714D01*
X-3635714Y-44283333D01*
X-3588095Y-44378571D01*
X-3588095Y-44902380D01*
X-3111904Y-44902380D02*
X-3111904Y-44235714D01*
X-3111904Y-44330952D02*
X-3064285Y-44283333D01*
X-2969047Y-44235714D01*
X-2826190Y-44235714D01*
X-2730952Y-44283333D01*
X-2683333Y-44378571D01*
X-2683333Y-44902380D01*
X-2683333Y-44378571D02*
X-2635714Y-44283333D01*
X-2540476Y-44235714D01*
X-2397619Y-44235714D01*
X-2302380Y-44283333D01*
X-2254761Y-44378571D01*
X-2254761Y-44902380D01*
D11*
X20320000Y-43180000D02*
X-33020000Y-43180000D01*
X20320000Y-38100000D02*
X20320000Y-43766421D01*
X-33020000Y-38100000D02*
X-33020000Y-43766421D01*
X-33020000Y-43180000D02*
X-31893496Y-42593579D01*
X-33020000Y-43180000D02*
X-31893496Y-43766421D01*
X20320000Y-43180000D02*
X19193496Y-42593579D01*
X20320000Y-43180000D02*
X19193496Y-43766421D01*
D12*
G36*
X20320000Y-38100000D02*
G01*
X-33020000Y-38100000D01*
X-33020000Y-22860000D01*
X20320000Y-22860000D01*
X20320000Y-38100000D01*
G37*
X20320000Y-38100000D02*
X-33020000Y-38100000D01*
X-33020000Y-22860000D01*
X20320000Y-22860000D01*
X20320000Y-38100000D01*
D11*
X45730000Y-25422789D02*
X44980000Y-25422789D01*
X45355000Y-25047789D02*
X45355000Y-25797789D01*
X43621000Y-33031000D02*
X42739000Y-33031000D01*
X43873000Y-32991000D02*
X42487000Y-32991000D01*
X44057000Y-32951000D02*
X42303000Y-32951000D01*
X44208000Y-32911000D02*
X42152000Y-32911000D01*
X44338000Y-32871000D02*
X42022000Y-32871000D01*
X44455000Y-32831000D02*
X41905000Y-32831000D01*
X44561000Y-32791000D02*
X41799000Y-32791000D01*
X44658000Y-32751000D02*
X41702000Y-32751000D01*
X44749000Y-32711000D02*
X41611000Y-32711000D01*
X44834000Y-32671000D02*
X41526000Y-32671000D01*
X44913000Y-32631000D02*
X41447000Y-32631000D01*
X44989000Y-32591000D02*
X41371000Y-32591000D01*
X45061000Y-32551000D02*
X41299000Y-32551000D01*
X45129000Y-32511000D02*
X41231000Y-32511000D01*
X45194000Y-32471000D02*
X41166000Y-32471000D01*
X45257000Y-32431000D02*
X41103000Y-32431000D01*
X45317000Y-32391000D02*
X41043000Y-32391000D01*
X45375000Y-32351000D02*
X40985000Y-32351000D01*
X45430000Y-32311000D02*
X40930000Y-32311000D01*
X45484000Y-32271000D02*
X40876000Y-32271000D01*
X45535000Y-32231000D02*
X40825000Y-32231000D01*
X45585000Y-32191000D02*
X40775000Y-32191000D01*
X45634000Y-32151000D02*
X40726000Y-32151000D01*
X45680000Y-32111000D02*
X40680000Y-32111000D01*
X45726000Y-32071000D02*
X40634000Y-32071000D01*
X45769000Y-32031000D02*
X40591000Y-32031000D01*
X45812000Y-31991000D02*
X40548000Y-31991000D01*
X45853000Y-31951000D02*
X40507000Y-31951000D01*
X45893000Y-31911000D02*
X40467000Y-31911000D01*
X45932000Y-31871000D02*
X40428000Y-31871000D01*
X45970000Y-31831000D02*
X40390000Y-31831000D01*
X46007000Y-31791000D02*
X40353000Y-31791000D01*
X46043000Y-31751000D02*
X40317000Y-31751000D01*
X46078000Y-31711000D02*
X40282000Y-31711000D01*
X46111000Y-31671000D02*
X40249000Y-31671000D01*
X46144000Y-31631000D02*
X40216000Y-31631000D01*
X46176000Y-31591000D02*
X40184000Y-31591000D01*
X46208000Y-31551000D02*
X40152000Y-31551000D01*
X46238000Y-31511000D02*
X40122000Y-31511000D01*
X42140000Y-31471000D02*
X40092000Y-31471000D01*
X46268000Y-31471000D02*
X44220000Y-31471000D01*
X42140000Y-31431000D02*
X40064000Y-31431000D01*
X46296000Y-31431000D02*
X44220000Y-31431000D01*
X42140000Y-31391000D02*
X40036000Y-31391000D01*
X46324000Y-31391000D02*
X44220000Y-31391000D01*
X42140000Y-31351000D02*
X40008000Y-31351000D01*
X46352000Y-31351000D02*
X44220000Y-31351000D01*
X42140000Y-31311000D02*
X39982000Y-31311000D01*
X46378000Y-31311000D02*
X44220000Y-31311000D01*
X42140000Y-31271000D02*
X39956000Y-31271000D01*
X46404000Y-31271000D02*
X44220000Y-31271000D01*
X42140000Y-31231000D02*
X39931000Y-31231000D01*
X46429000Y-31231000D02*
X44220000Y-31231000D01*
X42140000Y-31191000D02*
X39906000Y-31191000D01*
X46454000Y-31191000D02*
X44220000Y-31191000D01*
X42140000Y-31151000D02*
X39883000Y-31151000D01*
X46477000Y-31151000D02*
X44220000Y-31151000D01*
X42140000Y-31111000D02*
X39859000Y-31111000D01*
X46501000Y-31111000D02*
X44220000Y-31111000D01*
X42140000Y-31071000D02*
X39837000Y-31071000D01*
X46523000Y-31071000D02*
X44220000Y-31071000D01*
X42140000Y-31031000D02*
X39815000Y-31031000D01*
X46545000Y-31031000D02*
X44220000Y-31031000D01*
X42140000Y-30991000D02*
X39794000Y-30991000D01*
X46566000Y-30991000D02*
X44220000Y-30991000D01*
X42140000Y-30951000D02*
X39773000Y-30951000D01*
X46587000Y-30951000D02*
X44220000Y-30951000D01*
X42140000Y-30911000D02*
X39753000Y-30911000D01*
X46607000Y-30911000D02*
X44220000Y-30911000D01*
X42140000Y-30871000D02*
X39733000Y-30871000D01*
X46627000Y-30871000D02*
X44220000Y-30871000D01*
X42140000Y-30831000D02*
X39714000Y-30831000D01*
X46646000Y-30831000D02*
X44220000Y-30831000D01*
X42140000Y-30791000D02*
X39696000Y-30791000D01*
X46664000Y-30791000D02*
X44220000Y-30791000D01*
X42140000Y-30751000D02*
X39678000Y-30751000D01*
X46682000Y-30751000D02*
X44220000Y-30751000D01*
X42140000Y-30711000D02*
X39660000Y-30711000D01*
X46700000Y-30711000D02*
X44220000Y-30711000D01*
X42140000Y-30671000D02*
X39644000Y-30671000D01*
X46716000Y-30671000D02*
X44220000Y-30671000D01*
X42140000Y-30631000D02*
X39627000Y-30631000D01*
X46733000Y-30631000D02*
X44220000Y-30631000D01*
X42140000Y-30591000D02*
X39612000Y-30591000D01*
X46748000Y-30591000D02*
X44220000Y-30591000D01*
X42140000Y-30551000D02*
X39596000Y-30551000D01*
X46764000Y-30551000D02*
X44220000Y-30551000D01*
X42140000Y-30511000D02*
X39582000Y-30511000D01*
X46778000Y-30511000D02*
X44220000Y-30511000D01*
X42140000Y-30471000D02*
X39567000Y-30471000D01*
X46793000Y-30471000D02*
X44220000Y-30471000D01*
X42140000Y-30431000D02*
X39554000Y-30431000D01*
X46806000Y-30431000D02*
X44220000Y-30431000D01*
X42140000Y-30391000D02*
X39540000Y-30391000D01*
X46820000Y-30391000D02*
X44220000Y-30391000D01*
X42140000Y-30351000D02*
X39527000Y-30351000D01*
X46833000Y-30351000D02*
X44220000Y-30351000D01*
X42140000Y-30311000D02*
X39515000Y-30311000D01*
X46845000Y-30311000D02*
X44220000Y-30311000D01*
X42140000Y-30271000D02*
X39503000Y-30271000D01*
X46857000Y-30271000D02*
X44220000Y-30271000D01*
X42140000Y-30231000D02*
X39492000Y-30231000D01*
X46868000Y-30231000D02*
X44220000Y-30231000D01*
X42140000Y-30191000D02*
X39481000Y-30191000D01*
X46879000Y-30191000D02*
X44220000Y-30191000D01*
X42140000Y-30151000D02*
X39470000Y-30151000D01*
X46890000Y-30151000D02*
X44220000Y-30151000D01*
X42140000Y-30111000D02*
X39460000Y-30111000D01*
X46900000Y-30111000D02*
X44220000Y-30111000D01*
X42140000Y-30071000D02*
X39451000Y-30071000D01*
X46909000Y-30071000D02*
X44220000Y-30071000D01*
X42140000Y-30031000D02*
X39442000Y-30031000D01*
X46918000Y-30031000D02*
X44220000Y-30031000D01*
X42140000Y-29991000D02*
X39433000Y-29991000D01*
X46927000Y-29991000D02*
X44220000Y-29991000D01*
X42140000Y-29951000D02*
X39425000Y-29951000D01*
X46935000Y-29951000D02*
X44220000Y-29951000D01*
X42140000Y-29911000D02*
X39417000Y-29911000D01*
X46943000Y-29911000D02*
X44220000Y-29911000D01*
X42140000Y-29870000D02*
X39410000Y-29870000D01*
X46950000Y-29870000D02*
X44220000Y-29870000D01*
X42140000Y-29830000D02*
X39403000Y-29830000D01*
X46957000Y-29830000D02*
X44220000Y-29830000D01*
X42140000Y-29790000D02*
X39396000Y-29790000D01*
X46964000Y-29790000D02*
X44220000Y-29790000D01*
X42140000Y-29750000D02*
X39390000Y-29750000D01*
X46970000Y-29750000D02*
X44220000Y-29750000D01*
X42140000Y-29710000D02*
X39385000Y-29710000D01*
X46975000Y-29710000D02*
X44220000Y-29710000D01*
X42140000Y-29670000D02*
X39379000Y-29670000D01*
X46981000Y-29670000D02*
X44220000Y-29670000D01*
X42140000Y-29630000D02*
X39375000Y-29630000D01*
X46985000Y-29630000D02*
X44220000Y-29630000D01*
X42140000Y-29590000D02*
X39370000Y-29590000D01*
X46990000Y-29590000D02*
X44220000Y-29590000D01*
X42140000Y-29550000D02*
X39366000Y-29550000D01*
X46994000Y-29550000D02*
X44220000Y-29550000D01*
X42140000Y-29510000D02*
X39363000Y-29510000D01*
X46997000Y-29510000D02*
X44220000Y-29510000D01*
X42140000Y-29470000D02*
X39360000Y-29470000D01*
X47000000Y-29470000D02*
X44220000Y-29470000D01*
X42140000Y-29430000D02*
X39357000Y-29430000D01*
X47003000Y-29430000D02*
X44220000Y-29430000D01*
X47005000Y-29390000D02*
X39355000Y-29390000D01*
X47007000Y-29350000D02*
X39353000Y-29350000D01*
X47009000Y-29310000D02*
X39351000Y-29310000D01*
X47010000Y-29270000D02*
X39350000Y-29270000D01*
X47010000Y-29230000D02*
X39350000Y-29230000D01*
X47010000Y-29190000D02*
X39350000Y-29190000D01*
X47050000Y-29190000D02*
G75*
G03X47050000Y-29190000I-3870000J0D01*
G01*
X25400000Y-34350000D02*
X24070000Y-34350000D01*
X24070000Y-34350000D02*
X24070000Y-33020000D01*
X24070000Y-31750000D02*
X24070000Y-24070000D01*
X26730000Y-24070000D02*
X24070000Y-24070000D01*
X26730000Y-31750000D02*
X26730000Y-24070000D01*
X26730000Y-31750000D02*
X24070000Y-31750000D01*
X77410000Y-29150000D02*
X78740000Y-29150000D01*
X77410000Y-30480000D02*
X77410000Y-29150000D01*
X77410000Y-31750000D02*
X80070000Y-31750000D01*
X80070000Y-31750000D02*
X80070000Y-34350000D01*
X77410000Y-31750000D02*
X77410000Y-34350000D01*
X77410000Y-34350000D02*
X80070000Y-34350000D01*
X79650000Y-26002064D02*
X79650000Y-24797936D01*
X77830000Y-26002064D02*
X77830000Y-24797936D01*
X54720000Y-24070000D02*
X53070000Y-24070000D01*
X54720000Y-34350000D02*
X54720000Y-24070000D01*
X49420000Y-34350000D02*
X54720000Y-34350000D01*
X49420000Y-24070000D02*
X49420000Y-34350000D01*
X51070000Y-24070000D02*
X49420000Y-24070000D01*
X53070000Y-24070000D02*
G75*
G02X51070000Y-24070000I-1000000J0D01*
G01*
X64540000Y-26270000D02*
X63040000Y-26270000D01*
X60540000Y-27520000D02*
X60540000Y-32020000D01*
X63040000Y-33270000D02*
X64540000Y-33270000D01*
X67040000Y-32020000D02*
X67040000Y-27520000D01*
X69687221Y-30990000D02*
X70012779Y-30990000D01*
X69687221Y-29970000D02*
X70012779Y-29970000D01*
D10*
X48537142Y-29356666D02*
X48584761Y-29404285D01*
X48632380Y-29547142D01*
X48632380Y-29642380D01*
X48584761Y-29785238D01*
X48489523Y-29880476D01*
X48394285Y-29928095D01*
X48203809Y-29975714D01*
X48060952Y-29975714D01*
X47870476Y-29928095D01*
X47775238Y-29880476D01*
X47680000Y-29785238D01*
X47632380Y-29642380D01*
X47632380Y-29547142D01*
X47680000Y-29404285D01*
X47727619Y-29356666D01*
X48632380Y-28404285D02*
X48632380Y-28975714D01*
X48632380Y-28690000D02*
X47632380Y-28690000D01*
X47775238Y-28785238D01*
X47870476Y-28880476D01*
X47918095Y-28975714D01*
X23090476Y-35956666D02*
X23566666Y-35956666D01*
X22995238Y-36242380D02*
X23328571Y-35242380D01*
X23661904Y-36242380D01*
X24423809Y-35575714D02*
X24423809Y-36242380D01*
X23995238Y-35575714D02*
X23995238Y-36099523D01*
X24042857Y-36194761D01*
X24138095Y-36242380D01*
X24280952Y-36242380D01*
X24376190Y-36194761D01*
X24423809Y-36147142D01*
X25328571Y-36242380D02*
X25328571Y-35242380D01*
X25328571Y-36194761D02*
X25233333Y-36242380D01*
X25042857Y-36242380D01*
X24947619Y-36194761D01*
X24900000Y-36147142D01*
X24852380Y-36051904D01*
X24852380Y-35766190D01*
X24900000Y-35670952D01*
X24947619Y-35623333D01*
X25042857Y-35575714D01*
X25233333Y-35575714D01*
X25328571Y-35623333D01*
X25804761Y-36242380D02*
X25804761Y-35575714D01*
X25804761Y-35242380D02*
X25757142Y-35290000D01*
X25804761Y-35337619D01*
X25852380Y-35290000D01*
X25804761Y-35242380D01*
X25804761Y-35337619D01*
X26423809Y-36242380D02*
X26328571Y-36194761D01*
X26280952Y-36147142D01*
X26233333Y-36051904D01*
X26233333Y-35766190D01*
X26280952Y-35670952D01*
X26328571Y-35623333D01*
X26423809Y-35575714D01*
X26566666Y-35575714D01*
X26661904Y-35623333D01*
X26709523Y-35670952D01*
X26757142Y-35766190D01*
X26757142Y-36051904D01*
X26709523Y-36147142D01*
X26661904Y-36194761D01*
X26566666Y-36242380D01*
X26423809Y-36242380D01*
X27709523Y-36242380D02*
X27138095Y-36242380D01*
X27423809Y-36242380D02*
X27423809Y-35242380D01*
X27328571Y-35385238D01*
X27233333Y-35480476D01*
X27138095Y-35528095D01*
X76930476Y-28602380D02*
X76930476Y-27602380D01*
X77311428Y-27602380D01*
X77406666Y-27650000D01*
X77454285Y-27697619D01*
X77501904Y-27792857D01*
X77501904Y-27935714D01*
X77454285Y-28030952D01*
X77406666Y-28078571D01*
X77311428Y-28126190D01*
X76930476Y-28126190D01*
X77835238Y-27602380D02*
X78073333Y-28602380D01*
X78263809Y-27888095D01*
X78454285Y-28602380D01*
X78692380Y-27602380D01*
X79644761Y-28602380D02*
X79311428Y-28126190D01*
X79073333Y-28602380D02*
X79073333Y-27602380D01*
X79454285Y-27602380D01*
X79549523Y-27650000D01*
X79597142Y-27697619D01*
X79644761Y-27792857D01*
X79644761Y-27935714D01*
X79597142Y-28030952D01*
X79549523Y-28078571D01*
X79454285Y-28126190D01*
X79073333Y-28126190D01*
X80597142Y-28602380D02*
X80025714Y-28602380D01*
X80311428Y-28602380D02*
X80311428Y-27602380D01*
X80216190Y-27745238D01*
X80120952Y-27840476D01*
X80025714Y-27888095D01*
X76848571Y-25733333D02*
X76848571Y-26066666D01*
X77372380Y-26066666D02*
X76372380Y-26066666D01*
X76372380Y-25590476D01*
X77372380Y-24685714D02*
X77372380Y-25257142D01*
X77372380Y-24971428D02*
X76372380Y-24971428D01*
X76515238Y-25066666D01*
X76610476Y-25161904D01*
X76658095Y-25257142D01*
X51308095Y-22522380D02*
X51308095Y-23331904D01*
X51355714Y-23427142D01*
X51403333Y-23474761D01*
X51498571Y-23522380D01*
X51689047Y-23522380D01*
X51784285Y-23474761D01*
X51831904Y-23427142D01*
X51879523Y-23331904D01*
X51879523Y-22522380D01*
X52879523Y-23522380D02*
X52308095Y-23522380D01*
X52593809Y-23522380D02*
X52593809Y-22522380D01*
X52498571Y-22665238D01*
X52403333Y-22760476D01*
X52308095Y-22808095D01*
X59944761Y-31103333D02*
X59992380Y-30960476D01*
X59992380Y-30722380D01*
X59944761Y-30627142D01*
X59897142Y-30579523D01*
X59801904Y-30531904D01*
X59706666Y-30531904D01*
X59611428Y-30579523D01*
X59563809Y-30627142D01*
X59516190Y-30722380D01*
X59468571Y-30912857D01*
X59420952Y-31008095D01*
X59373333Y-31055714D01*
X59278095Y-31103333D01*
X59182857Y-31103333D01*
X59087619Y-31055714D01*
X59040000Y-31008095D01*
X58992380Y-30912857D01*
X58992380Y-30674761D01*
X59040000Y-30531904D01*
X58992380Y-30198571D02*
X59992380Y-29960476D01*
X59278095Y-29770000D01*
X59992380Y-29579523D01*
X58992380Y-29341428D01*
X59992380Y-28436666D02*
X59992380Y-29008095D01*
X59992380Y-28722380D02*
X58992380Y-28722380D01*
X59135238Y-28817619D01*
X59230476Y-28912857D01*
X59278095Y-29008095D01*
X69683333Y-29502380D02*
X69350000Y-29026190D01*
X69111904Y-29502380D02*
X69111904Y-28502380D01*
X69492857Y-28502380D01*
X69588095Y-28550000D01*
X69635714Y-28597619D01*
X69683333Y-28692857D01*
X69683333Y-28835714D01*
X69635714Y-28930952D01*
X69588095Y-28978571D01*
X69492857Y-29026190D01*
X69111904Y-29026190D01*
X70635714Y-29502380D02*
X70064285Y-29502380D01*
X70350000Y-29502380D02*
X70350000Y-28502380D01*
X70254761Y-28645238D01*
X70159523Y-28740476D01*
X70064285Y-28788095D01*
M02*
