  0
SECTION
  2
HEADER
  9
$ACADVER
  1
AC1014
  9
$HANDSEED
  5
FFFF
  9
$MEASUREMENT
 70
     1
  0
ENDSEC
  0
SECTION
  2
TABLES
  0
TABLE
  2
VPORT
  5
8
330
0
100
AcDbSymbolTable
 70
     4
  0
VPORT
  5
2E
330
8
100
AcDbSymbolTableRecord
100
AcDbViewportTableRecord
  2
*ACTIVE
 70
     0
 10
0.0
 20
0.0
 11
1.0
 21
1.0
 12
210.0
 22
148.5
 13
0.0
 23
0.0
 14
10.0
 24
10.0
 15
10.0
 25
10.0
 16
0.0
 26
0.0
 36
1.0
 17
0.0
 27
0.0
 37
0.0
 40
341.0
 41
1.24
 42
50.0
 43
0.0
 44
0.0
 50
0.0
 51
0.0
 71
     0
 72
   100
 73
     1
 74
     3
 75
     0
 76
     0
 77
     0
 78
     0
  0
ENDTAB
  0
TABLE
  2
LTYPE
  5
5
330
0
100
AcDbSymbolTable
 70
     1
  0
LTYPE
  5
14
330
5
100
AcDbSymbolTableRecord
100
AcDbLinetypeTableRecord
  2
BYBLOCK
 70
     0
  3

 72
    65
 73
     0
 40
0.0
  0
LTYPE
  5
15
330
5
100
AcDbSymbolTableRecord
100
AcDbLinetypeTableRecord
  2
BYLAYER
 70
     0
  3

 72
    65
 73
     0
 40
0.0
  0
LTYPE
  5
16
330
5
100
AcDbSymbolTableRecord
100
AcDbLinetypeTableRecord
  2
CONTINUOUS
 70
     0
  3
Solid line
 72
    65
 73
     0
 40
0.0
  0
ENDTAB
  0
TABLE
  2
LAYER
  5
2
100
AcDbSymbolTable
 70
1
  0
LAYER
  5
50
100
AcDbSymbolTableRecord
100
AcDbLayerTableRecord
  2
0
 70
0
  6
CONTINUOUS
  0
ENDTAB
  0
TABLE
  2
STYLE
  5
3
330
0
100
AcDbSymbolTable
 70
     1
  0
STYLE
  5
11
330
3
100
AcDbSymbolTableRecord
100
AcDbTextStyleTableRecord
  2
STANDARD
 70
     0
 40
0.0
 41
1.0
 50
0.0
 71
     0
 42
2.5
  3
txt
  4

  0
ENDTAB
  0
TABLE
  2
VIEW
  5
6
330
0
100
AcDbSymbolTable
 70
     0
  0
ENDTAB
  0
TABLE
  2
UCS
  5
7
330
0
100
AcDbSymbolTable
 70
     0
  0
ENDTAB
  0
TABLE
  2
APPID
  5
9
330
0
100
AcDbSymbolTable
 70
     2
  0
APPID
  5
12
330
9
100
AcDbSymbolTableRecord
100
AcDbRegAppTableRecord
  2
ACAD
 70
     0
  0
ENDTAB
  0
TABLE
  2
DIMSTYLE
  5
A
330
0
100
AcDbSymbolTable
 70
     1
  0
DIMSTYLE
105
27
330
A
100
AcDbSymbolTableRecord
100
AcDbDimStyleTableRecord
  2
ISO-25
 70
     0
  3

  4

  5

  6

  7

 40
1.0
 41
2.5
 42
0.625
 43
3.75
 44
1.25
 45
0.0
 46
0.0
 47
0.0
 48
0.0
140
2.5
141
2.5
142
0.0
143
0.03937007874016
144
1.0
145
0.0
146
1.0
147
0.625
 71
     0
 72
     0
 73
     0
 74
     0
 75
     0
 76
     0
 77
     1
 78
     8
170
     0
171
     3
172
     1
173
     0
174
     0
175
     0
176
     0
177
     0
178
     0
270
     2
271
     2
272
     2
273
     2
274
     3
340
11
275
     0
280
     0
281
     0
282
     0
283
     0
284
     8
285
     0
286
     0
287
     3
288
     0
  0
ENDTAB
  0
TABLE
  2
BLOCK_RECORD
  5
1
330
0
100
AcDbSymbolTable
 70
     1
  0
BLOCK_RECORD
  5
1F
330
1
100
AcDbSymbolTableRecord
100
AcDbBlockTableRecord
  2
*MODEL_SPACE
  0
BLOCK_RECORD
  5
1B
330
1
100
AcDbSymbolTableRecord
100
AcDbBlockTableRecord
  2
*PAPER_SPACE
  0
ENDTAB
  0
ENDSEC
  0
SECTION
  2
BLOCKS
  0
BLOCK
  5
20
330
1F
100
AcDbEntity
  8
0
100
AcDbBlockBegin
  2
*MODEL_SPACE
 70
     0
 10
0.0
 20
0.0
 30
0.0
  3
*MODEL_SPACE
  1

  0
ENDBLK
  5
21
330
1F
100
AcDbEntity
  8
0
100
AcDbBlockEnd
  0
BLOCK
  5
1C
330
1B
100
AcDbEntity
 67
     1
  8
0
100
AcDbBlockBegin
  2
*PAPER_SPACE
  1

  0
ENDBLK
  5
1D
330
1B
100
AcDbEntity
 67
     1
  8
0
100
AcDbBlockEnd
  0
ENDSEC
  0
SECTION
  2
ENTITIES
  0
LWPOLYLINE
  5
100
100
AcDbEntity
  8
0
 62
7
100
AcDbPolyline
 90
2
 70
0
 10
52.120710
 20
-6.981488
 30
0.0
 10
51.485710
 20
-6.346488
 30
0.0
  0
LWPOLYLINE
  5
101
100
AcDbEntity
  8
0
 62
7
100
AcDbPolyline
 90
2
 70
0
 10
52.120710
 20
-13.966488
 30
0.0
 10
52.120710
 20
-6.981488
 30
0.0
  0
LWPOLYLINE
  5
102
100
AcDbEntity
  8
0
 62
7
100
AcDbPolyline
 90
2
 70
0
 10
49.580710
 20
-13.966488
 30
0.0
 10
52.120710
 20
-13.966488
 30
0.0
  0
LWPOLYLINE
  5
103
100
AcDbEntity
  8
0
 62
7
100
AcDbPolyline
 90
2
 70
0
 10
49.580710
 20
-6.346488
 30
0.0
 10
49.580710
 20
-13.966488
 30
0.0
  0
LWPOLYLINE
  5
104
100
AcDbEntity
  8
0
 62
7
100
AcDbPolyline
 90
2
 70
0
 10
51.485710
 20
-6.346488
 30
0.0
 10
49.580710
 20
-6.346488
 30
0.0
  0
LWPOLYLINE
  5
105
100
AcDbEntity
  8
0
 62
7
100
AcDbPolyline
 90
16
 70
0
 10
54.589590
 20
-15.383808
 30
0.0
 10
54.637850
 20
-15.432068
 30
0.0
 10
54.780090
 20
-15.480328
 30
0.0
 10
54.874070
 20
-15.480328
 30
0.0
 10
55.018850
 20
-15.432068
 30
0.0
 10
55.112830
 20
-15.335548
 30
0.0
 10
55.161090
 20
-15.241568
 30
0.0
 10
55.209350
 20
-15.051068
 30
0.0
 10
55.209350
 20
-14.908828
 30
0.0
 10
55.161090
 20
-14.718328
 30
0.0
 10
55.112830
 20
-14.621808
 30
0.0
 10
55.018850
 20
-14.527828
 30
0.0
 10
54.874070
 20
-14.479568
 30
0.0
 10
54.780090
 20
-14.479568
 30
0.0
 10
54.637850
 20
-14.527828
 30
0.0
 10
54.589590
 20
-14.573548
 30
0.0
  0
LWPOLYLINE
  5
106
100
AcDbEntity
  8
0
 62
7
100
AcDbPolyline
 90
16
 70
1
 10
54.018090
 20
-15.480328
 30
0.0
 10
54.112070
 20
-15.432068
 30
0.0
 10
54.160330
 20
-15.383808
 30
0.0
 10
54.208590
 20
-15.289828
 30
0.0
 10
54.208590
 20
-15.002808
 30
0.0
 10
54.160330
 20
-14.908828
 30
0.0
 10
54.112070
 20
-14.860568
 30
0.0
 10
54.018090
 20
-14.812308
 30
0.0
 10
53.875850
 20
-14.812308
 30
0.0
 10
53.779330
 20
-14.860568
 30
0.0
 10
53.731070
 20
-14.908828
 30
0.0
 10
53.685350
 20
-15.002808
 30
0.0
 10
53.685350
 20
-15.289828
 30
0.0
 10
53.731070
 20
-15.383808
 30
0.0
 10
53.779330
 20
-15.432068
 30
0.0
 10
53.875850
 20
-15.480328
 30
0.0
  0
LWPOLYLINE
  5
107
100
AcDbEntity
  8
0
 62
7
100
AcDbPolyline
 90
2
 70
0
 10
53.256090
 20
-14.812308
 30
0.0
 10
53.256090
 20
-15.480328
 30
0.0
  0
LWPOLYLINE
  5
108
100
AcDbEntity
  8
0
 62
7
100
AcDbPolyline
 90
7
 70
0
 10
53.256090
 20
-14.908828
 30
0.0
 10
53.207830
 20
-14.860568
 30
0.0
 10
53.113850
 20
-14.812308
 30
0.0
 10
52.969070
 20
-14.812308
 30
0.0
 10
52.875090
 20
-14.860568
 30
0.0
 10
52.826830
 20
-14.954548
 30
0.0
 10
52.826830
 20
-15.480328
 30
0.0
  0
LWPOLYLINE
  5
109
100
AcDbEntity
  8
0
 62
7
100
AcDbPolyline
 90
2
 70
0
 10
52.351850
 20
-14.812308
 30
0.0
 10
52.351850
 20
-15.480328
 30
0.0
  0
LWPOLYLINE
  5
10a
100
AcDbEntity
  8
0
 62
7
100
AcDbPolyline
 90
7
 70
0
 10
52.351850
 20
-14.908828
 30
0.0
 10
52.303590
 20
-14.860568
 30
0.0
 10
52.207070
 20
-14.812308
 30
0.0
 10
52.064830
 20
-14.812308
 30
0.0
 10
51.970850
 20
-14.860568
 30
0.0
 10
51.922590
 20
-14.954548
 30
0.0
 10
51.922590
 20
-15.480328
 30
0.0
  0
LWPOLYLINE
  5
10b
100
AcDbEntity
  8
0
 62
7
100
AcDbPolyline
 90
2
 70
0
 10
51.683830
 20
-15.574308
 30
0.0
 10
50.921830
 20
-15.574308
 30
0.0
  0
LWPOLYLINE
  5
10c
100
AcDbEntity
  8
0
 62
7
100
AcDbPolyline
 90
20
 70
1
 10
50.495110
 20
-14.479568
 30
0.0
 10
50.398590
 20
-14.479568
 30
0.0
 10
50.304610
 20
-14.527828
 30
0.0
 10
50.256350
 20
-14.573548
 30
0.0
 10
50.208090
 20
-14.670068
 30
0.0
 10
50.159830
 20
-14.860568
 30
0.0
 10
50.159830
 20
-15.099328
 30
0.0
 10
50.208090
 20
-15.289828
 30
0.0
 10
50.256350
 20
-15.383808
 30
0.0
 10
50.304610
 20
-15.432068
 30
0.0
 10
50.398590
 20
-15.480328
 30
0.0
 10
50.495110
 20
-15.480328
 30
0.0
 10
50.589090
 20
-15.432068
 30
0.0
 10
50.637350
 20
-15.383808
 30
0.0
 10
50.685610
 20
-15.289828
 30
0.0
 10
50.731330
 20
-15.099328
 30
0.0
 10
50.731330
 20
-14.860568
 30
0.0
 10
50.685610
 20
-14.670068
 30
0.0
 10
50.637350
 20
-14.573548
 30
0.0
 10
50.589090
 20
-14.527828
 30
0.0
  0
LWPOLYLINE
  5
10d
100
AcDbEntity
  8
0
 62
7
100
AcDbPolyline
 90
2
 70
0
 10
49.207330
 20
-15.480328
 30
0.0
 10
49.778830
 20
-15.480328
 30
0.0
  0
LWPOLYLINE
  5
10e
100
AcDbEntity
  8
0
 62
7
100
AcDbPolyline
 90
5
 70
0
 10
49.494350
 20
-15.480328
 30
0.0
 10
49.494350
 20
-14.479568
 30
0.0
 10
49.588330
 20
-14.621808
 30
0.0
 10
49.684850
 20
-14.718328
 30
0.0
 10
49.778830
 20
-14.764048
 30
0.0
  0
LWPOLYLINE
  5
10f
100
AcDbEntity
  8
0
 62
7
100
AcDbPolyline
 90
2
 70
0
 10
48.874590
 20
-15.480328
 30
0.0
 10
48.351350
 20
-14.812308
 30
0.0
  0
LWPOLYLINE
  5
110
100
AcDbEntity
  8
0
 62
7
100
AcDbPolyline
 90
2
 70
0
 10
48.874590
 20
-14.812308
 30
0.0
 10
48.351350
 20
-15.480328
 30
0.0
  0
LWPOLYLINE
  5
111
100
AcDbEntity
  8
0
 62
7
100
AcDbPolyline
 90
20
 70
1
 10
47.779850
 20
-14.479568
 30
0.0
 10
47.683330
 20
-14.479568
 30
0.0
 10
47.589350
 20
-14.527828
 30
0.0
 10
47.541090
 20
-14.573548
 30
0.0
 10
47.492830
 20
-14.670068
 30
0.0
 10
47.447110
 20
-14.860568
 30
0.0
 10
47.447110
 20
-15.099328
 30
0.0
 10
47.492830
 20
-15.289828
 30
0.0
 10
47.541090
 20
-15.383808
 30
0.0
 10
47.589350
 20
-15.432068
 30
0.0
 10
47.683330
 20
-15.480328
 30
0.0
 10
47.779850
 20
-15.480328
 30
0.0
 10
47.873830
 20
-15.432068
 30
0.0
 10
47.922090
 20
-15.383808
 30
0.0
 10
47.970350
 20
-15.289828
 30
0.0
 10
48.018610
 20
-15.099328
 30
0.0
 10
48.018610
 20
-14.860568
 30
0.0
 10
47.970350
 20
-14.670068
 30
0.0
 10
47.922090
 20
-14.573548
 30
0.0
 10
47.873830
 20
-14.527828
 30
0.0
  0
LWPOLYLINE
  5
112
100
AcDbEntity
  8
0
 62
7
100
AcDbPolyline
 90
14
 70
0
 10
47.111830
 20
-14.479568
 30
0.0
 10
46.494610
 20
-14.479568
 30
0.0
 10
46.827350
 20
-14.860568
 30
0.0
 10
46.685110
 20
-14.860568
 30
0.0
 10
46.588590
 20
-14.908828
 30
0.0
 10
46.542870
 20
-14.954548
 30
0.0
 10
46.494610
 20
-15.051068
 30
0.0
 10
46.494610
 20
-15.289828
 30
0.0
 10
46.542870
 20
-15.383808
 30
0.0
 10
46.588590
 20
-15.432068
 30
0.0
 10
46.685110
 20
-15.480328
 30
0.0
 10
46.969590
 20
-15.480328
 30
0.0
 10
47.066110
 20
-15.432068
 30
0.0
 10
47.111830
 20
-15.383808
 30
0.0
  0
LWPOLYLINE
  5
113
100
AcDbEntity
  8
0
 62
7
100
AcDbPolyline
 90
2
 70
0
 10
51.302830
 20
-8.990628
 30
0.0
 10
50.827850
 20
-8.657888
 30
0.0
  0
LWPOLYLINE
  5
114
100
AcDbEntity
  8
0
 62
7
100
AcDbPolyline
 90
11
 70
0
 10
51.302830
 20
-8.419128
 30
0.0
 10
50.304610
 20
-8.419128
 30
0.0
 10
50.304610
 20
-8.800128
 30
0.0
 10
50.350330
 20
-8.894108
 30
0.0
 10
50.398590
 20
-8.942368
 30
0.0
 10
50.495110
 20
-8.990628
 30
0.0
 10
50.637350
 20
-8.990628
 30
0.0
 10
50.731330
 20
-8.942368
 30
0.0
 10
50.779590
 20
-8.894108
 30
0.0
 10
50.827850
 20
-8.800128
 30
0.0
 10
50.827850
 20
-8.419128
 30
0.0
  0
LWPOLYLINE
  5
115
100
AcDbEntity
  8
0
 62
7
100
AcDbPolyline
 90
17
 70
0
 10
50.350330
 20
-9.943128
 30
0.0
 10
50.304610
 20
-9.846608
 30
0.0
 10
50.304610
 20
-9.704368
 30
0.0
 10
50.350330
 20
-9.562128
 30
0.0
 10
50.446850
 20
-9.465608
 30
0.0
 10
50.540830
 20
-9.419888
 30
0.0
 10
50.731330
 20
-9.371628
 30
0.0
 10
50.876110
 20
-9.371628
 30
0.0
 10
51.066610
 20
-9.419888
 30
0.0
 10
51.160590
 20
-9.465608
 30
0.0
 10
51.257110
 20
-9.562128
 30
0.0
 10
51.302830
 20
-9.704368
 30
0.0
 10
51.302830
 20
-9.800888
 30
0.0
 10
51.257110
 20
-9.943128
 30
0.0
 10
51.208850
 20
-9.991388
 30
0.0
 10
50.876110
 20
-9.991388
 30
0.0
 10
50.876110
 20
-9.800888
 30
0.0
  0
LWPOLYLINE
  5
116
100
AcDbEntity
  8
0
 62
7
100
AcDbPolyline
 90
19
 70
0
 10
50.779590
 20
-10.753388
 30
0.0
 10
50.827850
 20
-10.895628
 30
0.0
 10
50.876110
 20
-10.943888
 30
0.0
 10
50.970090
 20
-10.989608
 30
0.0
 10
51.112330
 20
-10.989608
 30
0.0
 10
51.208850
 20
-10.943888
 30
0.0
 10
51.257110
 20
-10.895628
 30
0.0
 10
51.302830
 20
-10.799108
 30
0.0
 10
51.302830
 20
-10.418108
 30
0.0
 10
50.304610
 20
-10.418108
 30
0.0
 10
50.304610
 20
-10.753388
 30
0.0
 10
50.350330
 20
-10.847368
 30
0.0
 10
50.398590
 20
-10.895628
 30
0.0
 10
50.495110
 20
-10.943888
 30
0.0
 10
50.589090
 20
-10.943888
 30
0.0
 10
50.685610
 20
-10.895628
 30
0.0
 10
50.731330
 20
-10.847368
 30
0.0
 10
50.779590
 20
-10.753388
 30
0.0
 10
50.779590
 20
-10.418108
 30
0.0
  0
LWPOLYLINE
  5
117
100
AcDbEntity
  8
0
 62
7
100
AcDbPolyline
 90
2
 70
0
 10
51.302830
 20
-11.942108
 30
0.0
 10
51.302830
 20
-11.370608
 30
0.0
  0
LWPOLYLINE
  5
118
100
AcDbEntity
  8
0
 62
7
100
AcDbPolyline
 90
5
 70
0
 10
51.302830
 20
-11.657628
 30
0.0
 10
50.304610
 20
-11.657628
 30
0.0
 10
50.446850
 20
-11.561108
 30
0.0
 10
50.540830
 20
-11.467128
 30
0.0
 10
50.589090
 20
-11.370608
 30
0.0
  0
LWPOLYLINE
  5
119
100
AcDbEntity
  8
0
 62
7
100
AcDbPolyline
 90
2
 70
0
 10
22.384931
 20
-6.031528
 30
0.0
 10
21.633091
 20
-6.031528
 30
0.0
  0
SPLINE
  5
11a
100
AcDbEntity
  8
0
 62
7
100
AcDbSpline
 70
8
 71
3
 72
8
 73
4
 74
0
 40
0
 40
0
 40
0
 40
0
 40
1
 40
1
 40
1
 40
1
 10
24.122491
 20
-8.868225
 30
0.0
 10
24.122491
 20
-10.939296
 30
0.0
 10
22.443557
 20
-12.618230
 30
0.0
 10
20.372486
 20
-12.618230
 30
0.0
  0
SPLINE
  5
11b
100
AcDbEntity
  8
0
 62
7
100
AcDbSpline
 70
8
 71
3
 72
8
 73
4
 74
0
 40
0
 40
0
 40
0
 40
0
 40
1
 40
1
 40
1
 40
1
 10
20.372486
 20
-12.618230
 30
0.0
 10
18.301416
 20
-12.618230
 30
0.0
 10
16.622481
 20
-10.939296
 30
0.0
 10
16.622481
 20
-8.868225
 30
0.0
  0
SPLINE
  5
11c
100
AcDbEntity
  8
0
 62
7
100
AcDbSpline
 70
8
 71
3
 72
8
 73
4
 74
0
 40
0
 40
0
 40
0
 40
0
 40
1
 40
1
 40
1
 40
1
 10
16.622481
 20
-8.868225
 30
0.0
 10
16.622481
 20
-7.528478
 30
0.0
 10
17.337228
 20
-6.290500
 30
0.0
 10
18.497484
 20
-5.620626
 30
0.0
  0
SPLINE
  5
11d
100
AcDbEntity
  8
0
 62
7
100
AcDbSpline
 70
8
 71
3
 72
8
 73
4
 74
0
 40
0
 40
0
 40
0
 40
0
 40
1
 40
1
 40
1
 40
1
 10
18.497484
 20
-5.620626
 30
0.0
 10
19.657739
 20
-4.950752
 30
0.0
 10
21.087233
 20
-4.950752
 30
0.0
 10
22.247489
 20
-5.620626
 30
0.0
  0
SPLINE
  5
11e
100
AcDbEntity
  8
0
 62
7
100
AcDbSpline
 70
8
 71
3
 72
8
 73
4
 74
0
 40
0
 40
0
 40
0
 40
0
 40
1
 40
1
 40
1
 40
1
 10
22.247489
 20
-5.620626
 30
0.0
 10
23.407744
 20
-6.290500
 30
0.0
 10
24.122491
 20
-7.528478
 30
0.0
 10
24.122491
 20
-8.868225
 30
0.0
  0
LWPOLYLINE
  5
11f
100
AcDbEntity
  8
0
 62
7
100
AcDbPolyline
 90
2
 70
0
 10
22.009011
 20
-5.655608
 30
0.0
 10
22.009011
 20
-6.404908
 30
0.0
  0
LWPOLYLINE
  5
120
100
AcDbEntity
  8
0
 62
7
100
AcDbPolyline
 90
1
 70
1
 10
24.122491
 20
-8.868225
 30
0.0
  0
LWPOLYLINE
  5
121
100
AcDbEntity
  8
0
 62
7
100
AcDbPolyline
 90
2
 70
0
 10
3.860711
 20
-3.806488
 30
0.0
 10
3.860711
 20
-13.966488
 30
0.0
  0
LWPOLYLINE
  5
122
100
AcDbEntity
  8
0
 62
7
100
AcDbPolyline
 90
2
 70
0
 10
1.320711
 20
-3.806488
 30
0.0
 10
3.860711
 20
-3.806488
 30
0.0
  0
LWPOLYLINE
  5
123
100
AcDbEntity
  8
0
 62
7
100
AcDbPolyline
 90
2
 70
0
 10
1.320711
 20
-13.331488
 30
0.0
 10
1.320711
 20
-3.806488
 30
0.0
  0
LWPOLYLINE
  5
124
100
AcDbEntity
  8
0
 62
7
100
AcDbPolyline
 90
2
 70
0
 10
1.955711
 20
-13.966488
 30
0.0
 10
1.320711
 20
-13.331488
 30
0.0
  0
LWPOLYLINE
  5
125
100
AcDbEntity
  8
0
 62
7
100
AcDbPolyline
 90
2
 70
0
 10
3.860711
 20
-13.966488
 30
0.0
 10
1.955711
 20
-13.966488
 30
0.0
  0
LWPOLYLINE
  5
126
100
AcDbEntity
  8
0
 62
7
100
AcDbPolyline
 90
2
 70
0
 10
54.660710
 20
-9.521488
 30
0.0
 10
55.295710
 20
-8.886488
 30
0.0
  0
LWPOLYLINE
  5
127
100
AcDbEntity
  8
0
 62
7
100
AcDbPolyline
 90
2
 70
0
 10
54.660710
 20
-13.966488
 30
0.0
 10
54.660710
 20
-9.521488
 30
0.0
  0
LWPOLYLINE
  5
128
100
AcDbEntity
  8
0
 62
7
100
AcDbPolyline
 90
2
 70
0
 10
57.200710
 20
-13.966488
 30
0.0
 10
54.660710
 20
-13.966488
 30
0.0
  0
LWPOLYLINE
  5
129
100
AcDbEntity
  8
0
 62
7
100
AcDbPolyline
 90
2
 70
0
 10
57.200710
 20
-8.886488
 30
0.0
 10
57.200710
 20
-13.966488
 30
0.0
  0
LWPOLYLINE
  5
12a
100
AcDbEntity
  8
0
 62
7
100
AcDbPolyline
 90
2
 70
0
 10
55.295710
 20
-8.886488
 30
0.0
 10
57.200710
 20
-8.886488
 30
0.0
  0
LWPOLYLINE
  5
12b
100
AcDbEntity
  8
0
 62
7
100
AcDbPolyline
 90
2
 70
0
 10
56.730810
 20
-3.476288
 30
0.0
 10
56.730810
 20
-6.676688
 30
0.0
  0
LWPOLYLINE
  5
12c
100
AcDbEntity
  8
0
 62
7
100
AcDbPolyline
 90
2
 70
0
 10
55.130610
 20
-3.476288
 30
0.0
 10
56.730810
 20
-3.476288
 30
0.0
  0
LWPOLYLINE
  5
12d
100
AcDbEntity
  8
0
 62
7
100
AcDbPolyline
 90
2
 70
0
 10
55.130610
 20
-6.676688
 30
0.0
 10
55.130610
 20
-3.476288
 30
0.0
  0
LWPOLYLINE
  5
12e
100
AcDbEntity
  8
0
 62
7
100
AcDbPolyline
 90
2
 70
0
 10
56.730810
 20
-6.676688
 30
0.0
 10
55.130610
 20
-6.676688
 30
0.0
  0
LWPOLYLINE
  5
12f
100
AcDbEntity
  8
0
 62
7
100
AcDbPolyline
 90
2
 70
0
 10
26.085711
 20
-4.807248
 30
0.0
 10
27.086471
 20
-3.806488
 30
0.0
  0
LWPOLYLINE
  5
130
100
AcDbEntity
  8
0
 62
7
100
AcDbPolyline
 90
2
 70
0
 10
26.085711
 20
-13.966488
 30
0.0
 10
26.085711
 20
-4.807248
 30
0.0
  0
LWPOLYLINE
  5
131
100
AcDbEntity
  8
0
 62
7
100
AcDbPolyline
 90
2
 70
0
 10
32.435711
 20
-13.966488
 30
0.0
 10
26.085711
 20
-13.966488
 30
0.0
  0
LWPOLYLINE
  5
132
100
AcDbEntity
  8
0
 62
7
100
AcDbPolyline
 90
2
 70
0
 10
32.435711
 20
-3.806488
 30
0.0
 10
32.435711
 20
-13.966488
 30
0.0
  0
SPLINE
  5
133
100
AcDbEntity
  8
0
 62
7
100
AcDbSpline
 70
8
 71
3
 72
8
 73
4
 74
0
 40
0
 40
0
 40
0
 40
0
 40
1
 40
1
 40
1
 40
1
 10
42.998115
 20
-9.448234
 30
0.0
 10
42.998115
 20
-10.561399
 30
0.0
 10
42.095716
 20
-11.463797
 30
0.0
 10
40.982551
 20
-11.463797
 30
0.0
  0
SPLINE
  5
134
100
AcDbEntity
  8
0
 62
7
100
AcDbSpline
 70
8
 71
3
 72
8
 73
4
 74
0
 40
0
 40
0
 40
0
 40
0
 40
1
 40
1
 40
1
 40
1
 10
40.982551
 20
-11.463797
 30
0.0
 10
39.869386
 20
-11.463797
 30
0.0
 10
38.966988
 20
-10.561399
 30
0.0
 10
38.966988
 20
-9.448234
 30
0.0
  0
SPLINE
  5
135
100
AcDbEntity
  8
0
 62
7
100
AcDbSpline
 70
8
 71
3
 72
8
 73
4
 74
0
 40
0
 40
0
 40
0
 40
0
 40
1
 40
1
 40
1
 40
1
 10
38.966988
 20
-9.448234
 30
0.0
 10
38.966988
 20
-8.335069
 30
0.0
 10
39.869386
 20
-7.432671
 30
0.0
 10
40.982551
 20
-7.432671
 30
0.0
  0
SPLINE
  5
136
100
AcDbEntity
  8
0
 62
7
100
AcDbSpline
 70
8
 71
3
 72
8
 73
4
 74
0
 40
0
 40
0
 40
0
 40
0
 40
1
 40
1
 40
1
 40
1
 10
40.982551
 20
-7.432671
 30
0.0
 10
42.095716
 20
-7.432671
 30
0.0
 10
42.998115
 20
-8.335069
 30
0.0
 10
42.998115
 20
-9.448234
 30
0.0
  0
LWPOLYLINE
  5
137
100
AcDbEntity
  8
0
 62
7
100
AcDbPolyline
 90
2
 70
0
 10
27.086471
 20
-3.806488
 30
0.0
 10
32.435711
 20
-3.806488
 30
0.0
  0
LWPOLYLINE
  5
138
100
AcDbEntity
  8
0
 62
7
100
AcDbPolyline
 90
1
 70
1
 10
42.998115
 20
-9.448234
 30
0.0
  0
LWPOLYLINE
  5
139
100
AcDbEntity
  8
0
 62
7
100
AcDbPolyline
 90
2
 70
0
 10
37.980530
 20
-12.447568
 30
0.0
 10
37.980530
 20
-9.447828
 30
0.0
  0
LWPOLYLINE
  5
13a
100
AcDbEntity
  8
0
 62
7
100
AcDbPolyline
 90
2
 70
0
 10
43.980010
 20
-12.447568
 30
0.0
 10
37.980530
 20
-12.447568
 30
0.0
  0
LWPOLYLINE
  5
13b
100
AcDbEntity
  8
0
 62
7
100
AcDbPolyline
 90
2
 70
0
 10
43.980010
 20
-6.448088
 30
0.0
 10
43.980010
 20
-12.447568
 30
0.0
  0
LWPOLYLINE
  5
13c
100
AcDbEntity
  8
0
 62
7
100
AcDbPolyline
 90
2
 70
0
 10
37.980530
 20
-6.448088
 30
0.0
 10
43.980010
 20
-6.448088
 30
0.0
  0
LWPOLYLINE
  5
13d
100
AcDbEntity
  8
0
 62
7
100
AcDbPolyline
 90
2
 70
0
 10
37.980530
 20
-9.447828
 30
0.0
 10
37.980530
 20
-6.448088
 30
0.0
  0
LWPOLYLINE
  5
13e
100
AcDbEntity
  8
0
 62
7
100
AcDbPolyline
 90
2
 70
0
 10
47.840810
 20
-10.557808
 30
0.0
 10
46.240610
 20
-10.557808
 30
0.0
  0
LWPOLYLINE
  5
13f
100
AcDbEntity
  8
0
 62
7
100
AcDbPolyline
 90
2
 70
0
 10
47.840810
 20
-9.757708
 30
0.0
 10
47.840810
 20
-10.557808
 30
0.0
  0
LWPOLYLINE
  5
140
100
AcDbEntity
  8
0
 62
7
100
AcDbPolyline
 90
2
 70
0
 10
46.240610
 20
-9.757708
 30
0.0
 10
47.840810
 20
-9.757708
 30
0.0
  0
LWPOLYLINE
  5
141
100
AcDbEntity
  8
0
 62
7
100
AcDbPolyline
 90
2
 70
0
 10
46.240610
 20
-10.557808
 30
0.0
 10
46.240610
 20
-9.757708
 30
0.0
  0
LWPOLYLINE
  5
142
100
AcDbEntity
  8
0
 62
7
100
AcDbPolyline
 90
2
 70
0
 10
15.824111
 20
-9.986308
 30
0.0
 10
15.824111
 20
-10.557808
 30
0.0
  0
LWPOLYLINE
  5
143
100
AcDbEntity
  8
0
 62
7
100
AcDbPolyline
 90
5
 70
0
 10
15.824111
 20
-10.270788
 30
0.0
 10
14.823351
 20
-10.270788
 30
0.0
 10
14.965591
 20
-10.367308
 30
0.0
 10
15.062111
 20
-10.461288
 30
0.0
 10
15.110371
 20
-10.557808
 30
0.0
  0
LWPOLYLINE
  5
144
100
AcDbEntity
  8
0
 62
7
100
AcDbPolyline
 90
20
 70
1
 10
14.823351
 20
-9.366548
 30
0.0
 10
14.823351
 20
-9.272568
 30
0.0
 10
14.871611
 20
-9.176048
 30
0.0
 10
14.919871
 20
-9.127788
 30
0.0
 10
15.013851
 20
-9.082068
 30
0.0
 10
15.204351
 20
-9.033808
 30
0.0
 10
15.443111
 20
-9.033808
 30
0.0
 10
15.633611
 20
-9.082068
 30
0.0
 10
15.727591
 20
-9.127788
 30
0.0
 10
15.775851
 20
-9.176048
 30
0.0
 10
15.824111
 20
-9.272568
 30
0.0
 10
15.824111
 20
-9.366548
 30
0.0
 10
15.775851
 20
-9.463068
 30
0.0
 10
15.727591
 20
-9.508788
 30
0.0
 10
15.633611
 20
-9.557048
 30
0.0
 10
15.443111
 20
-9.605308
 30
0.0
 10
15.204351
 20
-9.605308
 30
0.0
 10
15.013851
 20
-9.557048
 30
0.0
 10
14.919871
 20
-9.508788
 30
0.0
 10
14.871611
 20
-9.463068
 30
0.0
  0
LWPOLYLINE
  5
145
100
AcDbEntity
  8
0
 62
7
100
AcDbPolyline
 90
20
 70
1
 10
14.823351
 20
-8.414048
 30
0.0
 10
14.823351
 20
-8.320068
 30
0.0
 10
14.871611
 20
-8.223548
 30
0.0
 10
14.919871
 20
-8.175288
 30
0.0
 10
15.013851
 20
-8.129568
 30
0.0
 10
15.204351
 20
-8.081308
 30
0.0
 10
15.443111
 20
-8.081308
 30
0.0
 10
15.633611
 20
-8.129568
 30
0.0
 10
15.727591
 20
-8.175288
 30
0.0
 10
15.775851
 20
-8.223548
 30
0.0
 10
15.824111
 20
-8.320068
 30
0.0
 10
15.824111
 20
-8.414048
 30
0.0
 10
15.775851
 20
-8.510568
 30
0.0
 10
15.727591
 20
-8.556288
 30
0.0
 10
15.633611
 20
-8.604548
 30
0.0
 10
15.443111
 20
-8.652808
 30
0.0
 10
15.204351
 20
-8.652808
 30
0.0
 10
15.013851
 20
-8.604548
 30
0.0
 10
14.919871
 20
-8.556288
 30
0.0
 10
14.871611
 20
-8.510568
 30
0.0
  0
LWPOLYLINE
  5
146
100
AcDbEntity
  8
0
 62
7
100
AcDbPolyline
 90
2
 70
0
 10
15.156091
 20
-7.225328
 30
0.0
 10
15.824111
 20
-7.225328
 30
0.0
  0
LWPOLYLINE
  5
147
100
AcDbEntity
  8
0
 62
7
100
AcDbPolyline
 90
7
 70
0
 10
15.156091
 20
-7.652048
 30
0.0
 10
15.681871
 20
-7.652048
 30
0.0
 10
15.775851
 20
-7.603788
 30
0.0
 10
15.824111
 20
-7.509808
 30
0.0
 10
15.824111
 20
-7.367568
 30
0.0
 10
15.775851
 20
-7.271048
 30
0.0
 10
15.727591
 20
-7.225328
 30
0.0
  0
LWPOLYLINE
  5
148
100
AcDbEntity
  8
0
 62
7
100
AcDbPolyline
 90
16
 70
0
 10
20.728851
 20
-9.033808
 30
0.0
 10
20.777111
 20
-9.082068
 30
0.0
 10
20.822831
 20
-9.224308
 30
0.0
 10
20.822831
 20
-9.318288
 30
0.0
 10
20.777111
 20
-9.463068
 30
0.0
 10
20.680591
 20
-9.557048
 30
0.0
 10
20.586611
 20
-9.605308
 30
0.0
 10
20.396111
 20
-9.653568
 30
0.0
 10
20.251331
 20
-9.653568
 30
0.0
 10
20.060831
 20
-9.605308
 30
0.0
 10
19.966851
 20
-9.557048
 30
0.0
 10
19.870331
 20
-9.463068
 30
0.0
 10
19.824611
 20
-9.318288
 30
0.0
 10
19.824611
 20
-9.224308
 30
0.0
 10
19.870331
 20
-9.082068
 30
0.0
 10
19.918591
 20
-9.033808
 30
0.0
  0
LWPOLYLINE
  5
149
100
AcDbEntity
  8
0
 62
7
100
AcDbPolyline
 90
2
 70
0
 10
20.822831
 20
-8.081308
 30
0.0
 10
20.822831
 20
-8.652808
 30
0.0
  0
LWPOLYLINE
  5
14a
100
AcDbEntity
  8
0
 62
7
100
AcDbPolyline
 90
5
 70
0
 10
20.822831
 20
-8.365788
 30
0.0
 10
19.824611
 20
-8.365788
 30
0.0
 10
19.966851
 20
-8.462308
 30
0.0
 10
20.060831
 20
-8.556288
 30
0.0
 10
20.109091
 20
-8.652808
 30
0.0
  0
LWPOLYLINE
  5
14b
100
AcDbEntity
  8
0
 62
7
100
AcDbPolyline
 90
2
 70
0
 10
2.758351
 20
-11.195348
 30
0.0
 10
2.758351
 20
-10.720368
 30
0.0
  0
LWPOLYLINE
  5
14c
100
AcDbEntity
  8
0
 62
7
100
AcDbPolyline
 90
3
 70
0
 10
3.042831
 20
-11.291868
 30
0.0
 10
2.044611
 20
-10.959128
 30
0.0
 10
3.042831
 20
-10.623848
 30
0.0
  0
LWPOLYLINE
  5
14d
100
AcDbEntity
  8
0
 62
7
100
AcDbPolyline
 90
2
 70
0
 10
2.377351
 20
-9.864388
 30
0.0
 10
3.042831
 20
-9.864388
 30
0.0
  0
LWPOLYLINE
  5
14e
100
AcDbEntity
  8
0
 62
7
100
AcDbPolyline
 90
7
 70
0
 10
2.377351
 20
-10.291108
 30
0.0
 10
2.900591
 20
-10.291108
 30
0.0
 10
2.997111
 20
-10.242848
 30
0.0
 10
3.042831
 20
-10.148868
 30
0.0
 10
3.042831
 20
-10.006628
 30
0.0
 10
2.997111
 20
-9.910108
 30
0.0
 10
2.948851
 20
-9.864388
 30
0.0
  0
LWPOLYLINE
  5
14f
100
AcDbEntity
  8
0
 62
7
100
AcDbPolyline
 90
2
 70
0
 10
3.042831
 20
-8.957608
 30
0.0
 10
2.044611
 20
-8.957608
 30
0.0
  0
LWPOLYLINE
  5
150
100
AcDbEntity
  8
0
 62
7
100
AcDbPolyline
 90
12
 70
0
 10
2.997111
 20
-8.957608
 30
0.0
 10
3.042831
 20
-9.054128
 30
0.0
 10
3.042831
 20
-9.244628
 30
0.0
 10
2.997111
 20
-9.338608
 30
0.0
 10
2.948851
 20
-9.386868
 30
0.0
 10
2.852331
 20
-9.435128
 30
0.0
 10
2.567851
 20
-9.435128
 30
0.0
 10
2.471331
 20
-9.386868
 30
0.0
 10
2.425611
 20
-9.338608
 30
0.0
 10
2.377351
 20
-9.244628
 30
0.0
 10
2.377351
 20
-9.054128
 30
0.0
 10
2.425611
 20
-8.957608
 30
0.0
  0
LWPOLYLINE
  5
151
100
AcDbEntity
  8
0
 62
7
100
AcDbPolyline
 90
2
 70
0
 10
3.042831
 20
-8.482628
 30
0.0
 10
2.377351
 20
-8.482628
 30
0.0
  0
LWPOLYLINE
  5
152
100
AcDbEntity
  8
0
 62
7
100
AcDbPolyline
 90
6
 70
0
 10
2.044611
 20
-8.482628
 30
0.0
 10
2.090331
 20
-8.530888
 30
0.0
 10
2.138591
 20
-8.482628
 30
0.0
 10
2.090331
 20
-8.434368
 30
0.0
 10
2.044611
 20
-8.482628
 30
0.0
 10
2.138591
 20
-8.482628
 30
0.0
  0
LWPOLYLINE
  5
153
100
AcDbEntity
  8
0
 62
7
100
AcDbPolyline
 90
16
 70
1
 10
3.042831
 20
-7.862868
 30
0.0
 10
2.997111
 20
-7.959388
 30
0.0
 10
2.948851
 20
-8.005108
 30
0.0
 10
2.852331
 20
-8.053368
 30
0.0
 10
2.567851
 20
-8.053368
 30
0.0
 10
2.471331
 20
-8.005108
 30
0.0
 10
2.425611
 20
-7.959388
 30
0.0
 10
2.377351
 20
-7.862868
 30
0.0
 10
2.377351
 20
-7.720628
 30
0.0
 10
2.425611
 20
-7.624108
 30
0.0
 10
2.471331
 20
-7.578388
 30
0.0
 10
2.567851
 20
-7.530128
 30
0.0
 10
2.852331
 20
-7.530128
 30
0.0
 10
2.948851
 20
-7.578388
 30
0.0
 10
2.997111
 20
-7.624108
 30
0.0
 10
3.042831
 20
-7.720628
 30
0.0
  0
LWPOLYLINE
  5
154
100
AcDbEntity
  8
0
 62
7
100
AcDbPolyline
 90
2
 70
0
 10
3.042831
 20
-6.577628
 30
0.0
 10
3.042831
 20
-7.149128
 30
0.0
  0
LWPOLYLINE
  5
155
100
AcDbEntity
  8
0
 62
7
100
AcDbPolyline
 90
5
 70
0
 10
3.042831
 20
-6.862108
 30
0.0
 10
2.044611
 20
-6.862108
 30
0.0
 10
2.186851
 20
-6.958628
 30
0.0
 10
2.280831
 20
-7.052608
 30
0.0
 10
2.329091
 20
-7.149128
 30
0.0
  0
LWPOLYLINE
  5
156
100
AcDbEntity
  8
0
 62
7
100
AcDbPolyline
 90
11
 70
0
 10
56.382830
 20
-13.237508
 30
0.0
 10
55.384610
 20
-13.237508
 30
0.0
 10
55.384610
 20
-12.856508
 30
0.0
 10
55.430330
 20
-12.759988
 30
0.0
 10
55.478590
 20
-12.711728
 30
0.0
 10
55.575110
 20
-12.666008
 30
0.0
 10
55.717350
 20
-12.666008
 30
0.0
 10
55.811330
 20
-12.711728
 30
0.0
 10
55.859590
 20
-12.759988
 30
0.0
 10
55.907850
 20
-12.856508
 30
0.0
 10
55.907850
 20
-13.237508
 30
0.0
  0
LWPOLYLINE
  5
157
100
AcDbEntity
  8
0
 62
7
100
AcDbPolyline
 90
5
 70
0
 10
55.384610
 20
-12.330728
 30
0.0
 10
56.382830
 20
-12.094508
 30
0.0
 10
55.669090
 20
-11.904008
 30
0.0
 10
56.382830
 20
-11.713508
 30
0.0
 10
55.384610
 20
-11.474748
 30
0.0
  0
LWPOLYLINE
  5
158
100
AcDbEntity
  8
0
 62
7
100
AcDbPolyline
 90
2
 70
0
 10
56.382830
 20
-10.522248
 30
0.0
 10
55.907850
 20
-10.854988
 30
0.0
  0
LWPOLYLINE
  5
159
100
AcDbEntity
  8
0
 62
7
100
AcDbPolyline
 90
11
 70
0
 10
56.382830
 20
-11.093748
 30
0.0
 10
55.384610
 20
-11.093748
 30
0.0
 10
55.384610
 20
-10.712748
 30
0.0
 10
55.430330
 20
-10.616228
 30
0.0
 10
55.478590
 20
-10.570508
 30
0.0
 10
55.575110
 20
-10.522248
 30
0.0
 10
55.717350
 20
-10.522248
 30
0.0
 10
55.811330
 20
-10.570508
 30
0.0
 10
55.859590
 20
-10.616228
 30
0.0
 10
55.907850
 20
-10.712748
 30
0.0
 10
55.907850
 20
-11.093748
 30
0.0
  0
LWPOLYLINE
  5
15a
100
AcDbEntity
  8
0
 62
7
100
AcDbPolyline
 90
2
 70
0
 10
56.382830
 20
-9.569748
 30
0.0
 10
56.382830
 20
-10.141248
 30
0.0
  0
LWPOLYLINE
  5
15b
100
AcDbEntity
  8
0
 62
7
100
AcDbPolyline
 90
5
 70
0
 10
56.382830
 20
-9.856768
 30
0.0
 10
55.384610
 20
-9.856768
 30
0.0
 10
55.526850
 20
-9.950748
 30
0.0
 10
55.620830
 20
-10.047268
 30
0.0
 10
55.669090
 20
-10.141248
 30
0.0
  0
LWPOLYLINE
  5
15c
100
AcDbEntity
  8
0
 62
7
100
AcDbPolyline
 90
2
 70
0
 10
55.874830
 20
-5.343188
 30
0.0
 10
55.874830
 20
-5.609888
 30
0.0
  0
LWPOLYLINE
  5
15d
100
AcDbEntity
  8
0
 62
7
100
AcDbPolyline
 90
3
 70
0
 10
56.293930
 20
-5.609888
 30
0.0
 10
55.493830
 20
-5.609888
 30
0.0
 10
55.493830
 20
-5.228888
 30
0.0
  0
LWPOLYLINE
  5
15e
100
AcDbEntity
  8
0
 62
7
100
AcDbPolyline
 90
2
 70
0
 10
56.293930
 20
-4.504988
 30
0.0
 10
56.293930
 20
-4.962188
 30
0.0
  0
LWPOLYLINE
  5
15f
100
AcDbEntity
  8
0
 62
7
100
AcDbPolyline
 90
5
 70
0
 10
56.293930
 20
-4.733588
 30
0.0
 10
55.493830
 20
-4.733588
 30
0.0
 10
55.608130
 20
-4.809788
 30
0.0
 10
55.684330
 20
-4.885988
 30
0.0
 10
55.722430
 20
-4.962188
 30
0.0
  0
LWPOLYLINE
  5
160
100
AcDbEntity
  8
0
 62
7
100
AcDbPolyline
 90
2
 70
0
 10
23.736211
 20
-15.193308
 30
0.0
 10
24.213731
 20
-15.193308
 30
0.0
  0
LWPOLYLINE
  5
161
100
AcDbEntity
  8
0
 62
7
100
AcDbPolyline
 90
3
 70
0
 10
23.642231
 20
-15.480328
 30
0.0
 10
23.974971
 20
-14.479568
 30
0.0
 10
24.307711
 20
-15.480328
 30
0.0
  0
LWPOLYLINE
  5
162
100
AcDbEntity
  8
0
 62
7
100
AcDbPolyline
 90
2
 70
0
 10
24.498211
 20
-14.479568
 30
0.0
 10
25.069711
 20
-14.479568
 30
0.0
  0
LWPOLYLINE
  5
163
100
AcDbEntity
  8
0
 62
7
100
AcDbPolyline
 90
2
 70
0
 10
24.785231
 20
-15.480328
 30
0.0
 10
24.785231
 20
-14.479568
 30
0.0
  0
LWPOLYLINE
  5
164
100
AcDbEntity
  8
0
 62
7
100
AcDbPolyline
 90
2
 70
0
 10
25.260211
 20
-14.812308
 30
0.0
 10
25.641211
 20
-14.812308
 30
0.0
  0
LWPOLYLINE
  5
165
100
AcDbEntity
  8
0
 62
7
100
AcDbPolyline
 90
5
 70
0
 10
25.404991
 20
-14.479568
 30
0.0
 10
25.404991
 20
-15.335548
 30
0.0
 10
25.450711
 20
-15.432068
 30
0.0
 10
25.547231
 20
-15.480328
 30
0.0
 10
25.641211
 20
-15.480328
 30
0.0
  0
LWPOLYLINE
  5
166
100
AcDbEntity
  8
0
 62
7
100
AcDbPolyline
 90
2
 70
0
 10
25.976491
 20
-15.480328
 30
0.0
 10
25.976491
 20
-14.812308
 30
0.0
  0
LWPOLYLINE
  5
167
100
AcDbEntity
  8
0
 62
7
100
AcDbPolyline
 90
6
 70
0
 10
25.976491
 20
-14.479568
 30
0.0
 10
25.928231
 20
-14.527828
 30
0.0
 10
25.976491
 20
-14.573548
 30
0.0
 10
26.022211
 20
-14.527828
 30
0.0
 10
25.976491
 20
-14.479568
 30
0.0
 10
25.976491
 20
-14.573548
 30
0.0
  0
LWPOLYLINE
  5
168
100
AcDbEntity
  8
0
 62
7
100
AcDbPolyline
 90
2
 70
0
 10
26.451471
 20
-14.812308
 30
0.0
 10
26.451471
 20
-15.480328
 30
0.0
  0
LWPOLYLINE
  5
169
100
AcDbEntity
  8
0
 62
7
100
AcDbPolyline
 90
7
 70
0
 10
26.451471
 20
-14.908828
 30
0.0
 10
26.499731
 20
-14.860568
 30
0.0
 10
26.593711
 20
-14.812308
 30
0.0
 10
26.738491
 20
-14.812308
 30
0.0
 10
26.832471
 20
-14.860568
 30
0.0
 10
26.880731
 20
-14.954548
 30
0.0
 10
26.880731
 20
-15.480328
 30
0.0
  0
LWPOLYLINE
  5
16a
100
AcDbEntity
  8
0
 62
7
100
AcDbPolyline
 90
2
 70
0
 10
27.261731
 20
-14.812308
 30
0.0
 10
27.500491
 20
-15.480328
 30
0.0
  0
LWPOLYLINE
  5
16b
100
AcDbEntity
  8
0
 62
7
100
AcDbPolyline
 90
5
 70
0
 10
27.736711
 20
-14.812308
 30
0.0
 10
27.500491
 20
-15.480328
 30
0.0
 10
27.403971
 20
-15.716548
 30
0.0
 10
27.355711
 20
-15.764808
 30
0.0
 10
27.261731
 20
-15.813068
 30
0.0
  0
LWPOLYLINE
  5
16c
100
AcDbEntity
  8
0
 62
7
100
AcDbPolyline
 90
32
 70
0
 10
28.259951
 20
-14.908828
 30
0.0
 10
28.165971
 20
-14.860568
 30
0.0
 10
28.117711
 20
-14.812308
 30
0.0
 10
28.069451
 20
-14.718328
 30
0.0
 10
28.069451
 20
-14.670068
 30
0.0
 10
28.117711
 20
-14.573548
 30
0.0
 10
28.165971
 20
-14.527828
 30
0.0
 10
28.259951
 20
-14.479568
 30
0.0
 10
28.450451
 20
-14.479568
 30
0.0
 10
28.546971
 20
-14.527828
 30
0.0
 10
28.595231
 20
-14.573548
 30
0.0
 10
28.640951
 20
-14.670068
 30
0.0
 10
28.640951
 20
-14.718328
 30
0.0
 10
28.595231
 20
-14.812308
 30
0.0
 10
28.546971
 20
-14.860568
 30
0.0
 10
28.450451
 20
-14.908828
 30
0.0
 10
28.259951
 20
-14.908828
 30
0.0
 10
28.165971
 20
-14.954548
 30
0.0
 10
28.117711
 20
-15.002808
 30
0.0
 10
28.069451
 20
-15.099328
 30
0.0
 10
28.069451
 20
-15.289828
 30
0.0
 10
28.117711
 20
-15.383808
 30
0.0
 10
28.165971
 20
-15.432068
 30
0.0
 10
28.259951
 20
-15.480328
 30
0.0
 10
28.450451
 20
-15.480328
 30
0.0
 10
28.546971
 20
-15.432068
 30
0.0
 10
28.595231
 20
-15.383808
 30
0.0
 10
28.640951
 20
-15.289828
 30
0.0
 10
28.640951
 20
-15.099328
 30
0.0
 10
28.595231
 20
-15.002808
 30
0.0
 10
28.546971
 20
-14.954548
 30
0.0
 10
28.450451
 20
-14.908828
 30
0.0
  0
LWPOLYLINE
  5
16d
100
AcDbEntity
  8
0
 62
7
100
AcDbPolyline
 90
16
 70
0
 10
29.547731
 20
-14.479568
 30
0.0
 10
29.070211
 20
-14.479568
 30
0.0
 10
29.021951
 20
-14.954548
 30
0.0
 10
29.070211
 20
-14.908828
 30
0.0
 10
29.166731
 20
-14.860568
 30
0.0
 10
29.402951
 20
-14.860568
 30
0.0
 10
29.499471
 20
-14.908828
 30
0.0
 10
29.547731
 20
-14.954548
 30
0.0
 10
29.593451
 20
-15.051068
 30
0.0
 10
29.593451
 20
-15.289828
 30
0.0
 10
29.547731
 20
-15.383808
 30
0.0
 10
29.499471
 20
-15.432068
 30
0.0
 10
29.402951
 20
-15.480328
 30
0.0
 10
29.166731
 20
-15.480328
 30
0.0
 10
29.070211
 20
-15.432068
 30
0.0
 10
29.021951
 20
-15.383808
 30
0.0
  0
LWPOLYLINE
  5
16e
100
AcDbEntity
  8
0
 62
7
100
AcDbPolyline
 90
2
 70
0
 10
30.022711
 20
-15.099328
 30
0.0
 10
30.784711
 20
-15.099328
 30
0.0
  0
LWPOLYLINE
  5
16f
100
AcDbEntity
  8
0
 62
7
100
AcDbPolyline
 90
11
 70
0
 10
31.213971
 20
-14.573548
 30
0.0
 10
31.262231
 20
-14.527828
 30
0.0
 10
31.356211
 20
-14.479568
 30
0.0
 10
31.594971
 20
-14.479568
 30
0.0
 10
31.688951
 20
-14.527828
 30
0.0
 10
31.737211
 20
-14.573548
 30
0.0
 10
31.785471
 20
-14.670068
 30
0.0
 10
31.785471
 20
-14.764048
 30
0.0
 10
31.737211
 20
-14.908828
 30
0.0
 10
31.165711
 20
-15.480328
 30
0.0
 10
31.785471
 20
-15.480328
 30
0.0
  0
LWPOLYLINE
  5
170
100
AcDbEntity
  8
0
 62
7
100
AcDbPolyline
 90
20
 70
1
 10
32.405231
 20
-14.479568
 30
0.0
 10
32.499211
 20
-14.479568
 30
0.0
 10
32.595731
 20
-14.527828
 30
0.0
 10
32.641451
 20
-14.573548
 30
0.0
 10
32.689711
 20
-14.670068
 30
0.0
 10
32.737971
 20
-14.860568
 30
0.0
 10
32.737971
 20
-15.099328
 30
0.0
 10
32.689711
 20
-15.289828
 30
0.0
 10
32.641451
 20
-15.383808
 30
0.0
 10
32.595731
 20
-15.432068
 30
0.0
 10
32.499211
 20
-15.480328
 30
0.0
 10
32.405231
 20
-15.480328
 30
0.0
 10
32.308711
 20
-15.432068
 30
0.0
 10
32.260451
 20
-15.383808
 30
0.0
 10
32.214731
 20
-15.289828
 30
0.0
 10
32.166471
 20
-15.099328
 30
0.0
 10
32.166471
 20
-14.860568
 30
0.0
 10
32.214731
 20
-14.670068
 30
0.0
 10
32.260451
 20
-14.573548
 30
0.0
 10
32.308711
 20
-14.527828
 30
0.0
  0
LWPOLYLINE
  5
171
100
AcDbEntity
  8
0
 62
7
100
AcDbPolyline
 90
11
 70
0
 10
33.164691
 20
-15.480328
 30
0.0
 10
33.164691
 20
-14.479568
 30
0.0
 10
33.545691
 20
-14.479568
 30
0.0
 10
33.642210
 20
-14.527828
 30
0.0
 10
33.690470
 20
-14.573548
 30
0.0
 10
33.736190
 20
-14.670068
 30
0.0
 10
33.736190
 20
-14.812308
 30
0.0
 10
33.690470
 20
-14.908828
 30
0.0
 10
33.642210
 20
-14.954548
 30
0.0
 10
33.545691
 20
-15.002808
 30
0.0
 10
33.164691
 20
-15.002808
 30
0.0
  0
LWPOLYLINE
  5
172
100
AcDbEntity
  8
0
 62
7
100
AcDbPolyline
 90
10
 70
0
 10
34.165450
 20
-14.479568
 30
0.0
 10
34.165450
 20
-15.289828
 30
0.0
 10
34.213710
 20
-15.383808
 30
0.0
 10
34.261970
 20
-15.432068
 30
0.0
 10
34.355950
 20
-15.480328
 30
0.0
 10
34.546450
 20
-15.480328
 30
0.0
 10
34.642970
 20
-15.432068
 30
0.0
 10
34.688690
 20
-15.383808
 30
0.0
 10
34.736950
 20
-15.289828
 30
0.0
 10
34.736950
 20
-14.479568
 30
0.0
  0
LWPOLYLINE
  5
173
100
AcDbEntity
  8
0
 62
7
100
AcDbPolyline
 90
10
 70
0
 10
28.498711
 20
-8.340388
 30
0.0
 10
28.498711
 20
-9.148108
 30
0.0
 10
28.546971
 20
-9.244628
 30
0.0
 10
28.595231
 20
-9.292888
 30
0.0
 10
28.689211
 20
-9.338608
 30
0.0
 10
28.879711
 20
-9.338608
 30
0.0
 10
28.976231
 20
-9.292888
 30
0.0
 10
29.021951
 20
-9.244628
 30
0.0
 10
29.070211
 20
-9.148108
 30
0.0
 10
29.070211
 20
-8.340388
 30
0.0
  0
LWPOLYLINE
  5
174
100
AcDbEntity
  8
0
 62
7
100
AcDbPolyline
 90
2
 70
0
 10
30.070971
 20
-9.338608
 30
0.0
 10
29.499471
 20
-9.338608
 30
0.0
  0
LWPOLYLINE
  5
175
100
AcDbEntity
  8
0
 62
7
100
AcDbPolyline
 90
5
 70
0
 10
29.783951
 20
-9.338608
 30
0.0
 10
29.783951
 20
-8.340388
 30
0.0
 10
29.689971
 20
-8.482628
 30
0.0
 10
29.593451
 20
-8.576608
 30
0.0
 10
29.499471
 20
-8.624868
 30
0.0
  0
LWPOLYLINE
  5
176
100
AcDbEntity
  8
0
 62
7
100
AcDbPolyline
 90
20
 70
0
 10
45.836750
 20
-11.995448
 30
0.0
 10
45.882470
 20
-11.850668
 30
0.0
 10
45.882470
 20
-11.614448
 30
0.0
 10
45.836750
 20
-11.517928
 30
0.0
 10
45.788490
 20
-11.469668
 30
0.0
 10
45.691970
 20
-11.423948
 30
0.0
 10
45.597990
 20
-11.423948
 30
0.0
 10
45.501470
 20
-11.469668
 30
0.0
 10
45.455750
 20
-11.517928
 30
0.0
 10
45.407490
 20
-11.614448
 30
0.0
 10
45.359230
 20
-11.804948
 30
0.0
 10
45.310970
 20
-11.898928
 30
0.0
 10
45.265250
 20
-11.947188
 30
0.0
 10
45.168730
 20
-11.995448
 30
0.0
 10
45.074750
 20
-11.995448
 30
0.0
 10
44.978230
 20
-11.947188
 30
0.0
 10
44.929970
 20
-11.898928
 30
0.0
 10
44.884250
 20
-11.804948
 30
0.0
 10
44.884250
 20
-11.566188
 30
0.0
 10
44.929970
 20
-11.423948
 30
0.0
  0
LWPOLYLINE
  5
177
100
AcDbEntity
  8
0
 62
7
100
AcDbPolyline
 90
5
 70
0
 10
44.884250
 20
-11.088668
 30
0.0
 10
45.882470
 20
-10.852448
 30
0.0
 10
45.168730
 20
-10.661948
 30
0.0
 10
45.882470
 20
-10.471448
 30
0.0
 10
44.884250
 20
-10.232688
 30
0.0
  0
LWPOLYLINE
  5
178
100
AcDbEntity
  8
0
 62
7
100
AcDbPolyline
 90
2
 70
0
 10
45.978990
 20
-10.090448
 30
0.0
 10
45.978990
 20
-9.328448
 30
0.0
  0
LWPOLYLINE
  5
179
100
AcDbEntity
  8
0
 62
7
100
AcDbPolyline
 90
11
 70
0
 10
45.882470
 20
-9.089688
 30
0.0
 10
44.884250
 20
-9.089688
 30
0.0
 10
44.884250
 20
-8.708688
 30
0.0
 10
44.929970
 20
-8.614708
 30
0.0
 10
44.978230
 20
-8.566448
 30
0.0
 10
45.074750
 20
-8.518188
 30
0.0
 10
45.216990
 20
-8.518188
 30
0.0
 10
45.310970
 20
-8.566448
 30
0.0
 10
45.359230
 20
-8.614708
 30
0.0
 10
45.407490
 20
-8.708688
 30
0.0
 10
45.407490
 20
-9.089688
 30
0.0
  0
LWPOLYLINE
  5
17a
100
AcDbEntity
  8
0
 62
7
100
AcDbPolyline
 90
2
 70
0
 10
45.216990
 20
-7.662208
 30
0.0
 10
45.882470
 20
-7.662208
 30
0.0
  0
LWPOLYLINE
  5
17b
100
AcDbEntity
  8
0
 62
7
100
AcDbPolyline
 90
7
 70
0
 10
45.216990
 20
-8.088928
 30
0.0
 10
45.740230
 20
-8.088928
 30
0.0
 10
45.836750
 20
-8.043208
 30
0.0
 10
45.882470
 20
-7.946688
 30
0.0
 10
45.882470
 20
-7.804448
 30
0.0
 10
45.836750
 20
-7.707928
 30
0.0
 10
45.788490
 20
-7.662208
 30
0.0
  0
LWPOLYLINE
  5
17c
100
AcDbEntity
  8
0
 62
7
100
AcDbPolyline
 90
16
 70
0
 10
45.836750
 20
-7.232948
 30
0.0
 10
45.882470
 20
-7.136428
 30
0.0
 10
45.882470
 20
-6.945928
 30
0.0
 10
45.836750
 20
-6.851948
 30
0.0
 10
45.740230
 20
-6.803688
 30
0.0
 10
45.691970
 20
-6.803688
 30
0.0
 10
45.597990
 20
-6.851948
 30
0.0
 10
45.549730
 20
-6.945928
 30
0.0
 10
45.549730
 20
-7.090708
 30
0.0
 10
45.501470
 20
-7.184688
 30
0.0
 10
45.407490
 20
-7.232948
 30
0.0
 10
45.359230
 20
-7.232948
 30
0.0
 10
45.265250
 20
-7.184688
 30
0.0
 10
45.216990
 20
-7.090708
 30
0.0
 10
45.216990
 20
-6.945928
 30
0.0
 10
45.265250
 20
-6.851948
 30
0.0
  0
LWPOLYLINE
  5
17d
100
AcDbEntity
  8
0
 62
7
100
AcDbPolyline
 90
2
 70
0
 10
45.882470
 20
-6.374428
 30
0.0
 10
44.884250
 20
-6.374428
 30
0.0
  0
LWPOLYLINE
  5
17e
100
AcDbEntity
  8
0
 62
7
100
AcDbPolyline
 90
7
 70
0
 10
45.882470
 20
-5.947708
 30
0.0
 10
45.359230
 20
-5.947708
 30
0.0
 10
45.265250
 20
-5.993428
 30
0.0
 10
45.216990
 20
-6.089948
 30
0.0
 10
45.216990
 20
-6.232188
 30
0.0
 10
45.265250
 20
-6.328708
 30
0.0
 10
45.310970
 20
-6.374428
 30
0.0
  0
LWPOLYLINE
  5
17f
100
AcDbEntity
  8
0
 62
7
100
AcDbPolyline
 90
20
 70
0
 10
41.386670
 20
-10.781328
 30
0.0
 10
41.432390
 20
-10.636548
 30
0.0
 10
41.432390
 20
-10.400328
 30
0.0
 10
41.386670
 20
-10.303808
 30
0.0
 10
41.338410
 20
-10.255548
 30
0.0
 10
41.241890
 20
-10.209828
 30
0.0
 10
41.147910
 20
-10.209828
 30
0.0
 10
41.051390
 20
-10.255548
 30
0.0
 10
41.005670
 20
-10.303808
 30
0.0
 10
40.957410
 20
-10.400328
 30
0.0
 10
40.909150
 20
-10.590828
 30
0.0
 10
40.860890
 20
-10.684808
 30
0.0
 10
40.815170
 20
-10.733068
 30
0.0
 10
40.718650
 20
-10.781328
 30
0.0
 10
40.624670
 20
-10.781328
 30
0.0
 10
40.528150
 20
-10.733068
 30
0.0
 10
40.482430
 20
-10.684808
 30
0.0
 10
40.434170
 20
-10.590828
 30
0.0
 10
40.434170
 20
-10.352068
 30
0.0
 10
40.482430
 20
-10.209828
 30
0.0
  0
LWPOLYLINE
  5
180
100
AcDbEntity
  8
0
 62
7
100
AcDbPolyline
 90
5
 70
0
 10
40.434170
 20
-9.874548
 30
0.0
 10
41.432390
 20
-9.638328
 30
0.0
 10
40.718650
 20
-9.447828
 30
0.0
 10
41.432390
 20
-9.257328
 30
0.0
 10
40.434170
 20
-9.018568
 30
0.0
  0
LWPOLYLINE
  5
181
100
AcDbEntity
  8
0
 62
7
100
AcDbPolyline
 90
2
 70
0
 10
41.432390
 20
-8.114328
 30
0.0
 10
41.432390
 20
-8.685828
 30
0.0
  0
LWPOLYLINE
  5
182
100
AcDbEntity
  8
0
 62
7
100
AcDbPolyline
 90
5
 70
0
 10
41.432390
 20
-8.398808
 30
0.0
 10
40.434170
 20
-8.398808
 30
0.0
 10
40.576410
 20
-8.495328
 30
0.0
 10
40.670390
 20
-8.589308
 30
0.0
 10
40.718650
 20
-8.685828
 30
0.0
  0
LWPOLYLINE
  5
183
100
AcDbEntity
  8
0
 62
7
100
AcDbPolyline
 90
14
 70
0
 10
45.755470
 20
-11.040408
 30
0.0
 10
46.375230
 20
-11.040408
 30
0.0
 10
46.039950
 20
-11.421408
 30
0.0
 10
46.184730
 20
-11.421408
 30
0.0
 10
46.278710
 20
-11.467128
 30
0.0
 10
46.326970
 20
-11.515388
 30
0.0
 10
46.375230
 20
-11.611908
 30
0.0
 10
46.375230
 20
-11.848128
 30
0.0
 10
46.326970
 20
-11.944648
 30
0.0
 10
46.278710
 20
-11.992908
 30
0.0
 10
46.184730
 20
-12.038628
 30
0.0
 10
45.897710
 20
-12.038628
 30
0.0
 10
45.803730
 20
-11.992908
 30
0.0
 10
45.755470
 20
-11.944648
 30
0.0
  0
LWPOLYLINE
  5
184
100
AcDbEntity
  8
0
 62
7
100
AcDbPolyline
 90
20
 70
1
 10
46.992450
 20
-11.040408
 30
0.0
 10
47.088970
 20
-11.040408
 30
0.0
 10
47.182950
 20
-11.086128
 30
0.0
 10
47.231210
 20
-11.134388
 30
0.0
 10
47.279470
 20
-11.230908
 30
0.0
 10
47.327730
 20
-11.421408
 30
0.0
 10
47.327730
 20
-11.657628
 30
0.0
 10
47.279470
 20
-11.848128
 30
0.0
 10
47.231210
 20
-11.944648
 30
0.0
 10
47.182950
 20
-11.992908
 30
0.0
 10
47.088970
 20
-12.038628
 30
0.0
 10
46.992450
 20
-12.038628
 30
0.0
 10
46.898470
 20
-11.992908
 30
0.0
 10
46.850210
 20
-11.944648
 30
0.0
 10
46.801950
 20
-11.848128
 30
0.0
 10
46.756230
 20
-11.657628
 30
0.0
 10
46.756230
 20
-11.421408
 30
0.0
 10
46.801950
 20
-11.230908
 30
0.0
 10
46.850210
 20
-11.134388
 30
0.0
 10
46.898470
 20
-11.086128
 30
0.0
  0
LWPOLYLINE
  5
185
100
AcDbEntity
  8
0
 62
7
100
AcDbPolyline
 90
20
 70
1
 10
47.944950
 20
-11.040408
 30
0.0
 10
48.041470
 20
-11.040408
 30
0.0
 10
48.135450
 20
-11.086128
 30
0.0
 10
48.183710
 20
-11.134388
 30
0.0
 10
48.231970
 20
-11.230908
 30
0.0
 10
48.280230
 20
-11.421408
 30
0.0
 10
48.280230
 20
-11.657628
 30
0.0
 10
48.231970
 20
-11.848128
 30
0.0
 10
48.183710
 20
-11.944648
 30
0.0
 10
48.135450
 20
-11.992908
 30
0.0
 10
48.041470
 20
-12.038628
 30
0.0
 10
47.944950
 20
-12.038628
 30
0.0
 10
47.850970
 20
-11.992908
 30
0.0
 10
47.802710
 20
-11.944648
 30
0.0
 10
47.754450
 20
-11.848128
 30
0.0
 10
47.708730
 20
-11.657628
 30
0.0
 10
47.708730
 20
-11.421408
 30
0.0
 10
47.754450
 20
-11.230908
 30
0.0
 10
47.802710
 20
-11.134388
 30
0.0
 10
47.850970
 20
-11.086128
 30
0.0
  0
LWPOLYLINE
  5
186
100
AcDbEntity
  8
0
 62
7
100
AcDbPolyline
 90
2
 70
0
 10
46.974670
 20
-10.336828
 30
0.0
 10
46.840050
 20
-10.146328
 30
0.0
  0
LWPOLYLINE
  5
187
100
AcDbEntity
  8
0
 62
7
100
AcDbPolyline
 90
11
 70
0
 10
46.746070
 20
-10.336828
 30
0.0
 10
46.746070
 20
-9.938048
 30
0.0
 10
46.898470
 20
-9.938048
 30
0.0
 10
46.936570
 20
-9.955828
 30
0.0
 10
46.954350
 20
-9.976148
 30
0.0
 10
46.974670
 20
-10.014248
 30
0.0
 10
46.974670
 20
-10.070128
 30
0.0
 10
46.954350
 20
-10.108228
 30
0.0
 10
46.936570
 20
-10.128548
 30
0.0
 10
46.898470
 20
-10.146328
 30
0.0
 10
46.746070
 20
-10.146328
 30
0.0
  0
LWPOLYLINE
  5
188
100
AcDbEntity
  8
0
 62
7
100
AcDbPolyline
 90
2
 70
0
 10
47.355670
 20
-10.336828
 30
0.0
 10
47.127070
 20
-10.336828
 30
0.0
  0
LWPOLYLINE
  5
189
100
AcDbEntity
  8
0
 62
7
100
AcDbPolyline
 90
5
 70
0
 10
47.241370
 20
-10.336828
 30
0.0
 10
47.241370
 20
-9.938048
 30
0.0
 10
47.203270
 20
-9.993928
 30
0.0
 10
47.165170
 20
-10.032028
 30
0.0
 10
47.127070
 20
-10.052348
 30
0.0
  0
LWPOLYLINE
  5
18a
100
AcDbEntity
  8
0
 62
7
100
AcDbPolyline
 90
2
 70
0
 10
0.050711
 20
0.003512
 30
0.0
 10
58.470710
 20
0.003512
 30
0.0
  0
LWPOLYLINE
  5
18b
100
AcDbEntity
  8
0
 62
7
100
AcDbPolyline
 90
2
 70
0
 10
0.050711
 20
-17.776488
 30
0.0
 10
0.050711
 20
0.003512
 30
0.0
  0
LWPOLYLINE
  5
18c
100
AcDbEntity
  8
0
 62
7
100
AcDbPolyline
 90
2
 70
0
 10
58.470710
 20
-17.776488
 30
0.0
 10
0.050711
 20
-17.776488
 30
0.0
  0
LWPOLYLINE
  5
18d
100
AcDbEntity
  8
0
 62
7
100
AcDbPolyline
 90
2
 70
0
 10
58.470710
 20
0.003512
 30
0.0
 10
58.470710
 20
-17.776488
 30
0.0
  0
ENDSEC
  0
SECTION
  2
OBJECTS
  0
DICTIONARY
  5
C
330
0
100
AcDbDictionary
  3
ACAD_GROUP
350
D
  3
ACAD_MLINESTYLE
350
17
  0
DICTIONARY
  5
D
330
C
100
AcDbDictionary
  0
DICTIONARY
  5
1A
330
C
100
AcDbDictionary
  0
DICTIONARY
  5
17
330
C
100
AcDbDictionary
  3
STANDARD
350
18
  0
DICTIONARY
  5
19
330
C
100
AcDbDictionary
  0
ENDSEC
  0
EOF
