  0
SECTION
  2
HEADER
  9
$ACADVER
  1
AC1014
  9
$HANDSEED
  5
FFFF
  9
$MEASUREMENT
 70
     1
  0
ENDSEC
  0
SECTION
  2
TABLES
  0
TABLE
  2
VPORT
  5
8
330
0
100
AcDbSymbolTable
 70
     4
  0
VPORT
  5
2E
330
8
100
AcDbSymbolTableRecord
100
AcDbViewportTableRecord
  2
*ACTIVE
 70
     0
 10
0.0
 20
0.0
 11
1.0
 21
1.0
 12
210.0
 22
148.5
 13
0.0
 23
0.0
 14
10.0
 24
10.0
 15
10.0
 25
10.0
 16
0.0
 26
0.0
 36
1.0
 17
0.0
 27
0.0
 37
0.0
 40
341.0
 41
1.24
 42
50.0
 43
0.0
 44
0.0
 50
0.0
 51
0.0
 71
     0
 72
   100
 73
     1
 74
     3
 75
     0
 76
     0
 77
     0
 78
     0
  0
ENDTAB
  0
TABLE
  2
LTYPE
  5
5
330
0
100
AcDbSymbolTable
 70
     1
  0
LTYPE
  5
14
330
5
100
AcDbSymbolTableRecord
100
AcDbLinetypeTableRecord
  2
BYBLOCK
 70
     0
  3

 72
    65
 73
     0
 40
0.0
  0
LTYPE
  5
15
330
5
100
AcDbSymbolTableRecord
100
AcDbLinetypeTableRecord
  2
BYLAYER
 70
     0
  3

 72
    65
 73
     0
 40
0.0
  0
LTYPE
  5
16
330
5
100
AcDbSymbolTableRecord
100
AcDbLinetypeTableRecord
  2
CONTINUOUS
 70
     0
  3
Solid line
 72
    65
 73
     0
 40
0.0
  0
ENDTAB
  0
TABLE
  2
LAYER
  5
2
100
AcDbSymbolTable
 70
1
  0
LAYER
  5
50
100
AcDbSymbolTableRecord
100
AcDbLayerTableRecord
  2
0
 70
0
  6
CONTINUOUS
  0
ENDTAB
  0
TABLE
  2
STYLE
  5
3
330
0
100
AcDbSymbolTable
 70
     1
  0
STYLE
  5
11
330
3
100
AcDbSymbolTableRecord
100
AcDbTextStyleTableRecord
  2
STANDARD
 70
     0
 40
0.0
 41
1.0
 50
0.0
 71
     0
 42
2.5
  3
txt
  4

  0
ENDTAB
  0
TABLE
  2
VIEW
  5
6
330
0
100
AcDbSymbolTable
 70
     0
  0
ENDTAB
  0
TABLE
  2
UCS
  5
7
330
0
100
AcDbSymbolTable
 70
     0
  0
ENDTAB
  0
TABLE
  2
APPID
  5
9
330
0
100
AcDbSymbolTable
 70
     2
  0
APPID
  5
12
330
9
100
AcDbSymbolTableRecord
100
AcDbRegAppTableRecord
  2
ACAD
 70
     0
  0
ENDTAB
  0
TABLE
  2
DIMSTYLE
  5
A
330
0
100
AcDbSymbolTable
 70
     1
  0
DIMSTYLE
105
27
330
A
100
AcDbSymbolTableRecord
100
AcDbDimStyleTableRecord
  2
ISO-25
 70
     0
  3

  4

  5

  6

  7

 40
1.0
 41
2.5
 42
0.625
 43
3.75
 44
1.25
 45
0.0
 46
0.0
 47
0.0
 48
0.0
140
2.5
141
2.5
142
0.0
143
0.03937007874016
144
1.0
145
0.0
146
1.0
147
0.625
 71
     0
 72
     0
 73
     0
 74
     0
 75
     0
 76
     0
 77
     1
 78
     8
170
     0
171
     3
172
     1
173
     0
174
     0
175
     0
176
     0
177
     0
178
     0
270
     2
271
     2
272
     2
273
     2
274
     3
340
11
275
     0
280
     0
281
     0
282
     0
283
     0
284
     8
285
     0
286
     0
287
     3
288
     0
  0
ENDTAB
  0
TABLE
  2
BLOCK_RECORD
  5
1
330
0
100
AcDbSymbolTable
 70
     1
  0
BLOCK_RECORD
  5
1F
330
1
100
AcDbSymbolTableRecord
100
AcDbBlockTableRecord
  2
*MODEL_SPACE
  0
BLOCK_RECORD
  5
1B
330
1
100
AcDbSymbolTableRecord
100
AcDbBlockTableRecord
  2
*PAPER_SPACE
  0
ENDTAB
  0
ENDSEC
  0
SECTION
  2
BLOCKS
  0
BLOCK
  5
20
330
1F
100
AcDbEntity
  8
0
100
AcDbBlockBegin
  2
*MODEL_SPACE
 70
     0
 10
0.0
 20
0.0
 30
0.0
  3
*MODEL_SPACE
  1

  0
ENDBLK
  5
21
330
1F
100
AcDbEntity
  8
0
100
AcDbBlockEnd
  0
BLOCK
  5
1C
330
1B
100
AcDbEntity
 67
     1
  8
0
100
AcDbBlockBegin
  2
*PAPER_SPACE
  1

  0
ENDBLK
  5
1D
330
1B
100
AcDbEntity
 67
     1
  8
0
100
AcDbBlockEnd
  0
ENDSEC
  0
SECTION
  2
ENTITIES
  0
LWPOLYLINE
  5
100
100
AcDbEntity
  8
0
 62
7
100
AcDbPolyline
 90
2
 70
0
 10
57.200652
 20
-6.981489
 30
0.0
 10
56.565652
 20
-6.346489
 30
0.0
  0
LWPOLYLINE
  5
101
100
AcDbEntity
  8
0
 62
7
100
AcDbPolyline
 90
2
 70
0
 10
57.200652
 20
-13.966488
 30
0.0
 10
57.200652
 20
-6.981489
 30
0.0
  0
LWPOLYLINE
  5
102
100
AcDbEntity
  8
0
 62
7
100
AcDbPolyline
 90
2
 70
0
 10
54.660652
 20
-13.966488
 30
0.0
 10
57.200652
 20
-13.966488
 30
0.0
  0
LWPOLYLINE
  5
103
100
AcDbEntity
  8
0
 62
7
100
AcDbPolyline
 90
2
 70
0
 10
54.660652
 20
-6.346489
 30
0.0
 10
54.660652
 20
-13.966488
 30
0.0
  0
LWPOLYLINE
  5
104
100
AcDbEntity
  8
0
 62
7
100
AcDbPolyline
 90
2
 70
0
 10
56.565652
 20
-6.346489
 30
0.0
 10
54.660652
 20
-6.346489
 30
0.0
  0
LWPOLYLINE
  5
105
100
AcDbEntity
  8
0
 62
7
100
AcDbPolyline
 90
2
 70
0
 10
56.382772
 20
-8.990629
 30
0.0
 10
55.907792
 20
-8.657889
 30
0.0
  0
LWPOLYLINE
  5
106
100
AcDbEntity
  8
0
 62
7
100
AcDbPolyline
 90
11
 70
0
 10
56.382772
 20
-8.419129
 30
0.0
 10
55.382012
 20
-8.419129
 30
0.0
 10
55.382012
 20
-8.800129
 30
0.0
 10
55.430272
 20
-8.894109
 30
0.0
 10
55.478532
 20
-8.942369
 30
0.0
 10
55.572512
 20
-8.990629
 30
0.0
 10
55.717292
 20
-8.990629
 30
0.0
 10
55.811272
 20
-8.942369
 30
0.0
 10
55.859532
 20
-8.894109
 30
0.0
 10
55.907792
 20
-8.800129
 30
0.0
 10
55.907792
 20
-8.419129
 30
0.0
  0
LWPOLYLINE
  5
107
100
AcDbEntity
  8
0
 62
7
100
AcDbPolyline
 90
17
 70
0
 10
55.430272
 20
-9.943129
 30
0.0
 10
55.382012
 20
-9.846609
 30
0.0
 10
55.382012
 20
-9.704369
 30
0.0
 10
55.430272
 20
-9.562129
 30
0.0
 10
55.526792
 20
-9.465609
 30
0.0
 10
55.620772
 20
-9.419889
 30
0.0
 10
55.811272
 20
-9.371629
 30
0.0
 10
55.953512
 20
-9.371629
 30
0.0
 10
56.144012
 20
-9.419889
 30
0.0
 10
56.240532
 20
-9.465609
 30
0.0
 10
56.334512
 20
-9.562129
 30
0.0
 10
56.382772
 20
-9.704369
 30
0.0
 10
56.382772
 20
-9.800889
 30
0.0
 10
56.334512
 20
-9.943129
 30
0.0
 10
56.288792
 20
-9.991389
 30
0.0
 10
55.953512
 20
-9.991389
 30
0.0
 10
55.953512
 20
-9.800889
 30
0.0
  0
LWPOLYLINE
  5
108
100
AcDbEntity
  8
0
 62
7
100
AcDbPolyline
 90
19
 70
0
 10
55.859532
 20
-10.753389
 30
0.0
 10
55.907792
 20
-10.895629
 30
0.0
 10
55.953512
 20
-10.943889
 30
0.0
 10
56.050032
 20
-10.989609
 30
0.0
 10
56.192272
 20
-10.989609
 30
0.0
 10
56.288792
 20
-10.943889
 30
0.0
 10
56.334512
 20
-10.895629
 30
0.0
 10
56.382772
 20
-10.799109
 30
0.0
 10
56.382772
 20
-10.418109
 30
0.0
 10
55.382012
 20
-10.418109
 30
0.0
 10
55.382012
 20
-10.753389
 30
0.0
 10
55.430272
 20
-10.847369
 30
0.0
 10
55.478532
 20
-10.895629
 30
0.0
 10
55.572512
 20
-10.943889
 30
0.0
 10
55.669032
 20
-10.943889
 30
0.0
 10
55.763012
 20
-10.895629
 30
0.0
 10
55.811272
 20
-10.847369
 30
0.0
 10
55.859532
 20
-10.753389
 30
0.0
 10
55.859532
 20
-10.418109
 30
0.0
  0
LWPOLYLINE
  5
109
100
AcDbEntity
  8
0
 62
7
100
AcDbPolyline
 90
2
 70
0
 10
56.382772
 20
-11.942109
 30
0.0
 10
56.382772
 20
-11.370609
 30
0.0
  0
LWPOLYLINE
  5
10a
100
AcDbEntity
  8
0
 62
7
100
AcDbPolyline
 90
5
 70
0
 10
56.382772
 20
-11.657629
 30
0.0
 10
55.382012
 20
-11.657629
 30
0.0
 10
55.526792
 20
-11.561109
 30
0.0
 10
55.620772
 20
-11.467129
 30
0.0
 10
55.669032
 20
-11.370609
 30
0.0
  0
LWPOLYLINE
  5
10b
100
AcDbEntity
  8
0
 62
7
100
AcDbPolyline
 90
2
 70
0
 10
3.860653
 20
-6.346489
 30
0.0
 10
3.860653
 20
-13.966488
 30
0.0
  0
LWPOLYLINE
  5
10c
100
AcDbEntity
  8
0
 62
7
100
AcDbPolyline
 90
2
 70
0
 10
1.320653
 20
-6.346489
 30
0.0
 10
3.860653
 20
-6.346489
 30
0.0
  0
LWPOLYLINE
  5
10d
100
AcDbEntity
  8
0
 62
7
100
AcDbPolyline
 90
2
 70
0
 10
1.320653
 20
-13.331488
 30
0.0
 10
1.320653
 20
-6.346489
 30
0.0
  0
LWPOLYLINE
  5
10e
100
AcDbEntity
  8
0
 62
7
100
AcDbPolyline
 90
2
 70
0
 10
1.955653
 20
-13.966488
 30
0.0
 10
1.320653
 20
-13.331488
 30
0.0
  0
LWPOLYLINE
  5
10f
100
AcDbEntity
  8
0
 62
7
100
AcDbPolyline
 90
2
 70
0
 10
3.860653
 20
-13.966488
 30
0.0
 10
1.955653
 20
-13.966488
 30
0.0
  0
LWPOLYLINE
  5
110
100
AcDbEntity
  8
0
 62
7
100
AcDbPolyline
 90
2
 70
0
 10
22.382332
 20
-6.031529
 30
0.0
 10
21.633032
 20
-6.031529
 30
0.0
  0
SPLINE
  5
111
100
AcDbEntity
  8
0
 62
7
100
AcDbSpline
 70
8
 71
3
 72
8
 73
4
 74
0
 40
0
 40
0
 40
0
 40
0
 40
1
 40
1
 40
1
 40
1
 10
24.122181
 20
-8.868226
 30
0.0
 10
24.122181
 20
-10.207974
 30
0.0
 10
23.407435
 20
-11.445952
 30
0.0
 10
22.247179
 20
-12.115826
 30
0.0
  0
SPLINE
  5
112
100
AcDbEntity
  8
0
 62
7
100
AcDbSpline
 70
8
 71
3
 72
8
 73
4
 74
0
 40
0
 40
0
 40
0
 40
0
 40
1
 40
1
 40
1
 40
1
 10
22.247179
 20
-12.115826
 30
0.0
 10
21.086923
 20
-12.785700
 30
0.0
 10
19.657429
 20
-12.785700
 30
0.0
 10
18.497174
 20
-12.115826
 30
0.0
  0
SPLINE
  5
113
100
AcDbEntity
  8
0
 62
7
100
AcDbSpline
 70
8
 71
3
 72
8
 73
4
 74
0
 40
0
 40
0
 40
0
 40
0
 40
1
 40
1
 40
1
 40
1
 10
18.497174
 20
-12.115826
 30
0.0
 10
17.336918
 20
-11.445952
 30
0.0
 10
16.622171
 20
-10.207974
 30
0.0
 10
16.622171
 20
-8.868226
 30
0.0
  0
SPLINE
  5
114
100
AcDbEntity
  8
0
 62
7
100
AcDbSpline
 70
8
 71
3
 72
8
 73
4
 74
0
 40
0
 40
0
 40
0
 40
0
 40
1
 40
1
 40
1
 40
1
 10
16.622171
 20
-8.868226
 30
0.0
 10
16.622171
 20
-7.528478
 30
0.0
 10
17.336918
 20
-6.290500
 30
0.0
 10
18.497174
 20
-5.620627
 30
0.0
  0
SPLINE
  5
115
100
AcDbEntity
  8
0
 62
7
100
AcDbSpline
 70
8
 71
3
 72
8
 73
4
 74
0
 40
0
 40
0
 40
0
 40
0
 40
1
 40
1
 40
1
 40
1
 10
18.497174
 20
-5.620627
 30
0.0
 10
19.657429
 20
-4.950753
 30
0.0
 10
21.086923
 20
-4.950753
 30
0.0
 10
22.247179
 20
-5.620627
 30
0.0
  0
SPLINE
  5
116
100
AcDbEntity
  8
0
 62
7
100
AcDbSpline
 70
8
 71
3
 72
8
 73
4
 74
0
 40
0
 40
0
 40
0
 40
0
 40
1
 40
1
 40
1
 40
1
 10
22.247179
 20
-5.620627
 30
0.0
 10
23.407435
 20
-6.290500
 30
0.0
 10
24.122181
 20
-7.528478
 30
0.0
 10
24.122181
 20
-8.868226
 30
0.0
  0
LWPOLYLINE
  5
117
100
AcDbEntity
  8
0
 62
7
100
AcDbPolyline
 90
2
 70
0
 10
22.008952
 20
-5.655609
 30
0.0
 10
22.008952
 20
-6.404909
 30
0.0
  0
LWPOLYLINE
  5
118
100
AcDbEntity
  8
0
 62
7
100
AcDbPolyline
 90
1
 70
1
 10
24.122181
 20
-8.868226
 30
0.0
  0
LWPOLYLINE
  5
119
100
AcDbEntity
  8
0
 62
7
100
AcDbPolyline
 90
2
 70
0
 10
49.580652
 20
-6.981489
 30
0.0
 10
50.215652
 20
-6.346489
 30
0.0
  0
LWPOLYLINE
  5
11a
100
AcDbEntity
  8
0
 62
7
100
AcDbPolyline
 90
2
 70
0
 10
49.580652
 20
-11.426489
 30
0.0
 10
49.580652
 20
-6.981489
 30
0.0
  0
LWPOLYLINE
  5
11b
100
AcDbEntity
  8
0
 62
7
100
AcDbPolyline
 90
2
 70
0
 10
52.120652
 20
-11.426489
 30
0.0
 10
49.580652
 20
-11.426489
 30
0.0
  0
LWPOLYLINE
  5
11c
100
AcDbEntity
  8
0
 62
7
100
AcDbPolyline
 90
2
 70
0
 10
52.120652
 20
-6.346489
 30
0.0
 10
52.120652
 20
-11.426489
 30
0.0
  0
LWPOLYLINE
  5
11d
100
AcDbEntity
  8
0
 62
7
100
AcDbPolyline
 90
2
 70
0
 10
50.215652
 20
-6.346489
 30
0.0
 10
52.120652
 20
-6.346489
 30
0.0
  0
LWPOLYLINE
  5
11e
100
AcDbEntity
  8
0
 62
7
100
AcDbPolyline
 90
2
 70
0
 10
54.990852
 20
-3.336589
 30
0.0
 10
51.790452
 20
-3.336589
 30
0.0
  0
LWPOLYLINE
  5
11f
100
AcDbEntity
  8
0
 62
7
100
AcDbPolyline
 90
2
 70
0
 10
54.990852
 20
-1.736389
 30
0.0
 10
54.990852
 20
-3.336589
 30
0.0
  0
LWPOLYLINE
  5
120
100
AcDbEntity
  8
0
 62
7
100
AcDbPolyline
 90
2
 70
0
 10
51.790452
 20
-1.736389
 30
0.0
 10
54.990852
 20
-1.736389
 30
0.0
  0
LWPOLYLINE
  5
121
100
AcDbEntity
  8
0
 62
7
100
AcDbPolyline
 90
2
 70
0
 10
51.790452
 20
-3.336589
 30
0.0
 10
51.790452
 20
-1.736389
 30
0.0
  0
LWPOLYLINE
  5
122
100
AcDbEntity
  8
0
 62
7
100
AcDbPolyline
 90
2
 70
0
 10
26.085652
 20
-4.807249
 30
0.0
 10
27.086412
 20
-3.806489
 30
0.0
  0
LWPOLYLINE
  5
123
100
AcDbEntity
  8
0
 62
7
100
AcDbPolyline
 90
2
 70
0
 10
26.085652
 20
-13.966488
 30
0.0
 10
26.085652
 20
-4.807249
 30
0.0
  0
LWPOLYLINE
  5
124
100
AcDbEntity
  8
0
 62
7
100
AcDbPolyline
 90
2
 70
0
 10
32.435652
 20
-13.966488
 30
0.0
 10
26.085652
 20
-13.966488
 30
0.0
  0
LWPOLYLINE
  5
125
100
AcDbEntity
  8
0
 62
7
100
AcDbPolyline
 90
2
 70
0
 10
32.435652
 20
-3.806489
 30
0.0
 10
32.435652
 20
-13.966488
 30
0.0
  0
SPLINE
  5
126
100
AcDbEntity
  8
0
 62
7
100
AcDbSpline
 70
8
 71
3
 72
8
 73
4
 74
0
 40
0
 40
0
 40
0
 40
0
 40
1
 40
1
 40
1
 40
1
 10
45.537551
 20
-9.448235
 30
0.0
 10
45.537551
 20
-10.168326
 30
0.0
 10
45.153387
 20
-10.833718
 30
0.0
 10
44.529769
 20
-11.193764
 30
0.0
  0
SPLINE
  5
127
100
AcDbEntity
  8
0
 62
7
100
AcDbSpline
 70
8
 71
3
 72
8
 73
4
 74
0
 40
0
 40
0
 40
0
 40
0
 40
1
 40
1
 40
1
 40
1
 10
44.529769
 20
-11.193764
 30
0.0
 10
43.906152
 20
-11.553810
 30
0.0
 10
43.137823
 20
-11.553810
 30
0.0
 10
42.514206
 20
-11.193764
 30
0.0
  0
SPLINE
  5
128
100
AcDbEntity
  8
0
 62
7
100
AcDbSpline
 70
8
 71
3
 72
8
 73
4
 74
0
 40
0
 40
0
 40
0
 40
0
 40
1
 40
1
 40
1
 40
1
 10
42.514206
 20
-11.193764
 30
0.0
 10
41.890588
 20
-10.833718
 30
0.0
 10
41.506424
 20
-10.168326
 30
0.0
 10
41.506424
 20
-9.448235
 30
0.0
  0
SPLINE
  5
129
100
AcDbEntity
  8
0
 62
7
100
AcDbSpline
 70
8
 71
3
 72
8
 73
4
 74
0
 40
0
 40
0
 40
0
 40
0
 40
1
 40
1
 40
1
 40
1
 10
41.506424
 20
-9.448235
 30
0.0
 10
41.506424
 20
-8.728143
 30
0.0
 10
41.890588
 20
-8.062751
 30
0.0
 10
42.514206
 20
-7.702705
 30
0.0
  0
SPLINE
  5
12a
100
AcDbEntity
  8
0
 62
7
100
AcDbSpline
 70
8
 71
3
 72
8
 73
4
 74
0
 40
0
 40
0
 40
0
 40
0
 40
1
 40
1
 40
1
 40
1
 10
42.514206
 20
-7.702705
 30
0.0
 10
43.137823
 20
-7.342660
 30
0.0
 10
43.906152
 20
-7.342660
 30
0.0
 10
44.529769
 20
-7.702705
 30
0.0
  0
SPLINE
  5
12b
100
AcDbEntity
  8
0
 62
7
100
AcDbSpline
 70
8
 71
3
 72
8
 73
4
 74
0
 40
0
 40
0
 40
0
 40
0
 40
1
 40
1
 40
1
 40
1
 10
44.529769
 20
-7.702705
 30
0.0
 10
45.153387
 20
-8.062751
 30
0.0
 10
45.537551
 20
-8.728143
 30
0.0
 10
45.537551
 20
-9.448235
 30
0.0
  0
LWPOLYLINE
  5
12c
100
AcDbEntity
  8
0
 62
7
100
AcDbPolyline
 90
2
 70
0
 10
27.086412
 20
-3.806489
 30
0.0
 10
32.435652
 20
-3.806489
 30
0.0
  0
LWPOLYLINE
  5
12d
100
AcDbEntity
  8
0
 62
7
100
AcDbPolyline
 90
1
 70
1
 10
45.537551
 20
-9.448235
 30
0.0
  0
LWPOLYLINE
  5
12e
100
AcDbEntity
  8
0
 62
7
100
AcDbPolyline
 90
2
 70
0
 10
40.520472
 20
-12.447568
 30
0.0
 10
40.520472
 20
-9.447829
 30
0.0
  0
LWPOLYLINE
  5
12f
100
AcDbEntity
  8
0
 62
7
100
AcDbPolyline
 90
2
 70
0
 10
46.519952
 20
-12.447568
 30
0.0
 10
40.520472
 20
-12.447568
 30
0.0
  0
LWPOLYLINE
  5
130
100
AcDbEntity
  8
0
 62
7
100
AcDbPolyline
 90
2
 70
0
 10
46.519952
 20
-6.448089
 30
0.0
 10
46.519952
 20
-12.447568
 30
0.0
  0
LWPOLYLINE
  5
131
100
AcDbEntity
  8
0
 62
7
100
AcDbPolyline
 90
2
 70
0
 10
40.520472
 20
-6.448089
 30
0.0
 10
46.519952
 20
-6.448089
 30
0.0
  0
LWPOLYLINE
  5
132
100
AcDbEntity
  8
0
 62
7
100
AcDbPolyline
 90
2
 70
0
 10
40.520472
 20
-9.447829
 30
0.0
 10
40.520472
 20
-6.448089
 30
0.0
  0
LWPOLYLINE
  5
133
100
AcDbEntity
  8
0
 62
7
100
AcDbPolyline
 90
2
 70
0
 10
36.410752
 20
-10.557809
 30
0.0
 10
34.810552
 20
-10.557809
 30
0.0
  0
LWPOLYLINE
  5
134
100
AcDbEntity
  8
0
 62
7
100
AcDbPolyline
 90
2
 70
0
 10
36.410752
 20
-9.757709
 30
0.0
 10
36.410752
 20
-10.557809
 30
0.0
  0
LWPOLYLINE
  5
135
100
AcDbEntity
  8
0
 62
7
100
AcDbPolyline
 90
2
 70
0
 10
34.810552
 20
-9.757709
 30
0.0
 10
36.410752
 20
-9.757709
 30
0.0
  0
LWPOLYLINE
  5
136
100
AcDbEntity
  8
0
 62
7
100
AcDbPolyline
 90
2
 70
0
 10
34.810552
 20
-10.557809
 30
0.0
 10
34.810552
 20
-9.757709
 30
0.0
  0
LWPOLYLINE
  5
137
100
AcDbEntity
  8
0
 62
7
100
AcDbPolyline
 90
2
 70
0
 10
2.758293
 20
-12.465348
 30
0.0
 10
2.758293
 20
-11.990368
 30
0.0
  0
LWPOLYLINE
  5
138
100
AcDbEntity
  8
0
 62
7
100
AcDbPolyline
 90
3
 70
0
 10
3.042773
 20
-12.561868
 30
0.0
 10
2.042013
 20
-12.229128
 30
0.0
 10
3.042773
 20
-11.893849
 30
0.0
  0
LWPOLYLINE
  5
139
100
AcDbEntity
  8
0
 62
7
100
AcDbPolyline
 90
2
 70
0
 10
2.377293
 20
-11.134389
 30
0.0
 10
3.042773
 20
-11.134389
 30
0.0
  0
LWPOLYLINE
  5
13a
100
AcDbEntity
  8
0
 62
7
100
AcDbPolyline
 90
7
 70
0
 10
2.377293
 20
-11.561109
 30
0.0
 10
2.900533
 20
-11.561109
 30
0.0
 10
2.994513
 20
-11.512849
 30
0.0
 10
3.042773
 20
-11.418869
 30
0.0
 10
3.042773
 20
-11.276629
 30
0.0
 10
2.994513
 20
-11.180109
 30
0.0
 10
2.948793
 20
-11.134389
 30
0.0
  0
LWPOLYLINE
  5
13b
100
AcDbEntity
  8
0
 62
7
100
AcDbPolyline
 90
2
 70
0
 10
3.042773
 20
-10.227609
 30
0.0
 10
2.042013
 20
-10.227609
 30
0.0
  0
LWPOLYLINE
  5
13c
100
AcDbEntity
  8
0
 62
7
100
AcDbPolyline
 90
12
 70
0
 10
2.994513
 20
-10.227609
 30
0.0
 10
3.042773
 20
-10.324129
 30
0.0
 10
3.042773
 20
-10.514629
 30
0.0
 10
2.994513
 20
-10.608609
 30
0.0
 10
2.948793
 20
-10.656869
 30
0.0
 10
2.852273
 20
-10.705129
 30
0.0
 10
2.567793
 20
-10.705129
 30
0.0
 10
2.471273
 20
-10.656869
 30
0.0
 10
2.423013
 20
-10.608609
 30
0.0
 10
2.377293
 20
-10.514629
 30
0.0
 10
2.377293
 20
-10.324129
 30
0.0
 10
2.423013
 20
-10.227609
 30
0.0
  0
LWPOLYLINE
  5
13d
100
AcDbEntity
  8
0
 62
7
100
AcDbPolyline
 90
2
 70
0
 10
3.042773
 20
-9.752629
 30
0.0
 10
2.377293
 20
-9.752629
 30
0.0
  0
LWPOLYLINE
  5
13e
100
AcDbEntity
  8
0
 62
7
100
AcDbPolyline
 90
6
 70
0
 10
2.042013
 20
-9.752629
 30
0.0
 10
2.090273
 20
-9.800889
 30
0.0
 10
2.138533
 20
-9.752629
 30
0.0
 10
2.090273
 20
-9.704369
 30
0.0
 10
2.042013
 20
-9.752629
 30
0.0
 10
2.138533
 20
-9.752629
 30
0.0
  0
LWPOLYLINE
  5
13f
100
AcDbEntity
  8
0
 62
7
100
AcDbPolyline
 90
16
 70
1
 10
3.042773
 20
-9.132869
 30
0.0
 10
2.994513
 20
-9.229389
 30
0.0
 10
2.948793
 20
-9.275109
 30
0.0
 10
2.852273
 20
-9.323369
 30
0.0
 10
2.567793
 20
-9.323369
 30
0.0
 10
2.471273
 20
-9.275109
 30
0.0
 10
2.423013
 20
-9.229389
 30
0.0
 10
2.377293
 20
-9.132869
 30
0.0
 10
2.377293
 20
-8.990629
 30
0.0
 10
2.423013
 20
-8.894109
 30
0.0
 10
2.471273
 20
-8.848389
 30
0.0
 10
2.567793
 20
-8.800129
 30
0.0
 10
2.852273
 20
-8.800129
 30
0.0
 10
2.948793
 20
-8.848389
 30
0.0
 10
2.994513
 20
-8.894109
 30
0.0
 10
3.042773
 20
-8.990629
 30
0.0
  0
LWPOLYLINE
  5
140
100
AcDbEntity
  8
0
 62
7
100
AcDbPolyline
 90
2
 70
0
 10
3.042773
 20
-7.847629
 30
0.0
 10
3.042773
 20
-8.419129
 30
0.0
  0
LWPOLYLINE
  5
141
100
AcDbEntity
  8
0
 62
7
100
AcDbPolyline
 90
5
 70
0
 10
3.042773
 20
-8.132109
 30
0.0
 10
2.042013
 20
-8.132109
 30
0.0
 10
2.186793
 20
-8.228629
 30
0.0
 10
2.280773
 20
-8.322609
 30
0.0
 10
2.329033
 20
-8.419129
 30
0.0
  0
LWPOLYLINE
  5
142
100
AcDbEntity
  8
0
 62
7
100
AcDbPolyline
 90
2
 70
0
 10
15.824052
 20
-9.986309
 30
0.0
 10
15.824052
 20
-10.557809
 30
0.0
  0
LWPOLYLINE
  5
143
100
AcDbEntity
  8
0
 62
7
100
AcDbPolyline
 90
5
 70
0
 10
15.824052
 20
-10.270789
 30
0.0
 10
14.823292
 20
-10.270789
 30
0.0
 10
14.965532
 20
-10.367309
 30
0.0
 10
15.062052
 20
-10.461289
 30
0.0
 10
15.107772
 20
-10.557809
 30
0.0
  0
LWPOLYLINE
  5
144
100
AcDbEntity
  8
0
 62
7
100
AcDbPolyline
 90
20
 70
1
 10
14.823292
 20
-9.366549
 30
0.0
 10
14.823292
 20
-9.272569
 30
0.0
 10
14.871552
 20
-9.176049
 30
0.0
 10
14.917272
 20
-9.127789
 30
0.0
 10
15.013792
 20
-9.082069
 30
0.0
 10
15.204292
 20
-9.033809
 30
0.0
 10
15.443052
 20
-9.033809
 30
0.0
 10
15.633552
 20
-9.082069
 30
0.0
 10
15.727532
 20
-9.127789
 30
0.0
 10
15.775792
 20
-9.176049
 30
0.0
 10
15.824052
 20
-9.272569
 30
0.0
 10
15.824052
 20
-9.366549
 30
0.0
 10
15.775792
 20
-9.463069
 30
0.0
 10
15.727532
 20
-9.508789
 30
0.0
 10
15.633552
 20
-9.557049
 30
0.0
 10
15.443052
 20
-9.605309
 30
0.0
 10
15.204292
 20
-9.605309
 30
0.0
 10
15.013792
 20
-9.557049
 30
0.0
 10
14.917272
 20
-9.508789
 30
0.0
 10
14.871552
 20
-9.463069
 30
0.0
  0
LWPOLYLINE
  5
145
100
AcDbEntity
  8
0
 62
7
100
AcDbPolyline
 90
20
 70
1
 10
14.823292
 20
-8.414049
 30
0.0
 10
14.823292
 20
-8.320069
 30
0.0
 10
14.871552
 20
-8.223549
 30
0.0
 10
14.917272
 20
-8.175289
 30
0.0
 10
15.013792
 20
-8.129569
 30
0.0
 10
15.204292
 20
-8.081309
 30
0.0
 10
15.443052
 20
-8.081309
 30
0.0
 10
15.633552
 20
-8.129569
 30
0.0
 10
15.727532
 20
-8.175289
 30
0.0
 10
15.775792
 20
-8.223549
 30
0.0
 10
15.824052
 20
-8.320069
 30
0.0
 10
15.824052
 20
-8.414049
 30
0.0
 10
15.775792
 20
-8.510569
 30
0.0
 10
15.727532
 20
-8.556289
 30
0.0
 10
15.633552
 20
-8.604549
 30
0.0
 10
15.443052
 20
-8.652809
 30
0.0
 10
15.204292
 20
-8.652809
 30
0.0
 10
15.013792
 20
-8.604549
 30
0.0
 10
14.917272
 20
-8.556289
 30
0.0
 10
14.871552
 20
-8.510569
 30
0.0
  0
LWPOLYLINE
  5
146
100
AcDbEntity
  8
0
 62
7
100
AcDbPolyline
 90
2
 70
0
 10
15.156032
 20
-7.225329
 30
0.0
 10
15.824052
 20
-7.225329
 30
0.0
  0
LWPOLYLINE
  5
147
100
AcDbEntity
  8
0
 62
7
100
AcDbPolyline
 90
7
 70
0
 10
15.156032
 20
-7.652049
 30
0.0
 10
15.679272
 20
-7.652049
 30
0.0
 10
15.775792
 20
-7.603789
 30
0.0
 10
15.824052
 20
-7.509809
 30
0.0
 10
15.824052
 20
-7.367569
 30
0.0
 10
15.775792
 20
-7.271049
 30
0.0
 10
15.727532
 20
-7.225329
 30
0.0
  0
LWPOLYLINE
  5
148
100
AcDbEntity
  8
0
 62
7
100
AcDbPolyline
 90
16
 70
0
 10
20.728792
 20
-9.033809
 30
0.0
 10
20.774512
 20
-9.082069
 30
0.0
 10
20.822772
 20
-9.224309
 30
0.0
 10
20.822772
 20
-9.318289
 30
0.0
 10
20.774512
 20
-9.463069
 30
0.0
 10
20.680532
 20
-9.557049
 30
0.0
 10
20.584012
 20
-9.605309
 30
0.0
 10
20.393512
 20
-9.653569
 30
0.0
 10
20.251272
 20
-9.653569
 30
0.0
 10
20.060772
 20
-9.605309
 30
0.0
 10
19.966792
 20
-9.557049
 30
0.0
 10
19.870272
 20
-9.463069
 30
0.0
 10
19.822012
 20
-9.318289
 30
0.0
 10
19.822012
 20
-9.224309
 30
0.0
 10
19.870272
 20
-9.082069
 30
0.0
 10
19.918532
 20
-9.033809
 30
0.0
  0
LWPOLYLINE
  5
149
100
AcDbEntity
  8
0
 62
7
100
AcDbPolyline
 90
2
 70
0
 10
20.822772
 20
-8.081309
 30
0.0
 10
20.822772
 20
-8.652809
 30
0.0
  0
LWPOLYLINE
  5
14a
100
AcDbEntity
  8
0
 62
7
100
AcDbPolyline
 90
5
 70
0
 10
20.822772
 20
-8.365789
 30
0.0
 10
19.822012
 20
-8.365789
 30
0.0
 10
19.966792
 20
-8.462309
 30
0.0
 10
20.060772
 20
-8.556289
 30
0.0
 10
20.109032
 20
-8.652809
 30
0.0
  0
LWPOLYLINE
  5
14b
100
AcDbEntity
  8
0
 62
7
100
AcDbPolyline
 90
16
 70
0
 10
47.111772
 20
-12.843808
 30
0.0
 10
47.066052
 20
-12.892068
 30
0.0
 10
46.921272
 20
-12.940328
 30
0.0
 10
46.827292
 20
-12.940328
 30
0.0
 10
46.685052
 20
-12.892068
 30
0.0
 10
46.588532
 20
-12.795548
 30
0.0
 10
46.540272
 20
-12.701568
 30
0.0
 10
46.494552
 20
-12.511068
 30
0.0
 10
46.494552
 20
-12.368828
 30
0.0
 10
46.540272
 20
-12.178328
 30
0.0
 10
46.588532
 20
-12.081808
 30
0.0
 10
46.685052
 20
-11.987828
 30
0.0
 10
46.827292
 20
-11.939569
 30
0.0
 10
46.921272
 20
-11.939569
 30
0.0
 10
47.066052
 20
-11.987828
 30
0.0
 10
47.111772
 20
-12.033548
 30
0.0
  0
LWPOLYLINE
  5
14c
100
AcDbEntity
  8
0
 62
7
100
AcDbPolyline
 90
16
 70
1
 10
47.683272
 20
-12.940328
 30
0.0
 10
47.589292
 20
-12.892068
 30
0.0
 10
47.541032
 20
-12.843808
 30
0.0
 10
47.492772
 20
-12.749828
 30
0.0
 10
47.492772
 20
-12.462808
 30
0.0
 10
47.541032
 20
-12.368828
 30
0.0
 10
47.589292
 20
-12.320568
 30
0.0
 10
47.683272
 20
-12.272308
 30
0.0
 10
47.828052
 20
-12.272308
 30
0.0
 10
47.922032
 20
-12.320568
 30
0.0
 10
47.970292
 20
-12.368828
 30
0.0
 10
48.018552
 20
-12.462808
 30
0.0
 10
48.018552
 20
-12.749828
 30
0.0
 10
47.970292
 20
-12.843808
 30
0.0
 10
47.922032
 20
-12.892068
 30
0.0
 10
47.828052
 20
-12.940328
 30
0.0
  0
LWPOLYLINE
  5
14d
100
AcDbEntity
  8
0
 62
7
100
AcDbPolyline
 90
2
 70
0
 10
48.445272
 20
-12.272308
 30
0.0
 10
48.445272
 20
-12.940328
 30
0.0
  0
LWPOLYLINE
  5
14e
100
AcDbEntity
  8
0
 62
7
100
AcDbPolyline
 90
7
 70
0
 10
48.445272
 20
-12.368828
 30
0.0
 10
48.493532
 20
-12.320568
 30
0.0
 10
48.590052
 20
-12.272308
 30
0.0
 10
48.732292
 20
-12.272308
 30
0.0
 10
48.826272
 20
-12.320568
 30
0.0
 10
48.874532
 20
-12.414548
 30
0.0
 10
48.874532
 20
-12.940328
 30
0.0
  0
LWPOLYLINE
  5
14f
100
AcDbEntity
  8
0
 62
7
100
AcDbPolyline
 90
2
 70
0
 10
49.352052
 20
-12.272308
 30
0.0
 10
49.352052
 20
-12.940328
 30
0.0
  0
LWPOLYLINE
  5
150
100
AcDbEntity
  8
0
 62
7
100
AcDbPolyline
 90
7
 70
0
 10
49.352052
 20
-12.368828
 30
0.0
 10
49.397772
 20
-12.320568
 30
0.0
 10
49.494292
 20
-12.272308
 30
0.0
 10
49.636532
 20
-12.272308
 30
0.0
 10
49.730512
 20
-12.320568
 30
0.0
 10
49.778772
 20
-12.414548
 30
0.0
 10
49.778772
 20
-12.940328
 30
0.0
  0
LWPOLYLINE
  5
151
100
AcDbEntity
  8
0
 62
7
100
AcDbPolyline
 90
2
 70
0
 10
50.017532
 20
-13.034308
 30
0.0
 10
50.779532
 20
-13.034308
 30
0.0
  0
LWPOLYLINE
  5
152
100
AcDbEntity
  8
0
 62
7
100
AcDbPolyline
 90
20
 70
1
 10
51.208792
 20
-11.939569
 30
0.0
 10
51.302772
 20
-11.939569
 30
0.0
 10
51.399292
 20
-11.987828
 30
0.0
 10
51.445012
 20
-12.033548
 30
0.0
 10
51.493272
 20
-12.130068
 30
0.0
 10
51.541532
 20
-12.320568
 30
0.0
 10
51.541532
 20
-12.559328
 30
0.0
 10
51.493272
 20
-12.749828
 30
0.0
 10
51.445012
 20
-12.843808
 30
0.0
 10
51.399292
 20
-12.892068
 30
0.0
 10
51.302772
 20
-12.940328
 30
0.0
 10
51.208792
 20
-12.940328
 30
0.0
 10
51.112272
 20
-12.892068
 30
0.0
 10
51.064012
 20
-12.843808
 30
0.0
 10
51.018292
 20
-12.749828
 30
0.0
 10
50.970032
 20
-12.559328
 30
0.0
 10
50.970032
 20
-12.320568
 30
0.0
 10
51.018292
 20
-12.130068
 30
0.0
 10
51.064012
 20
-12.033548
 30
0.0
 10
51.112272
 20
-11.987828
 30
0.0
  0
LWPOLYLINE
  5
153
100
AcDbEntity
  8
0
 62
7
100
AcDbPolyline
 90
2
 70
0
 10
52.494032
 20
-12.940328
 30
0.0
 10
51.922532
 20
-12.940328
 30
0.0
  0
LWPOLYLINE
  5
154
100
AcDbEntity
  8
0
 62
7
100
AcDbPolyline
 90
5
 70
0
 10
52.207012
 20
-12.940328
 30
0.0
 10
52.207012
 20
-11.939569
 30
0.0
 10
52.113032
 20
-12.081808
 30
0.0
 10
52.016512
 20
-12.178328
 30
0.0
 10
51.922532
 20
-12.224048
 30
0.0
  0
LWPOLYLINE
  5
155
100
AcDbEntity
  8
0
 62
7
100
AcDbPolyline
 90
2
 70
0
 10
52.826772
 20
-12.940328
 30
0.0
 10
53.350012
 20
-12.272308
 30
0.0
  0
LWPOLYLINE
  5
156
100
AcDbEntity
  8
0
 62
7
100
AcDbPolyline
 90
2
 70
0
 10
52.826772
 20
-12.272308
 30
0.0
 10
53.350012
 20
-12.940328
 30
0.0
  0
LWPOLYLINE
  5
157
100
AcDbEntity
  8
0
 62
7
100
AcDbPolyline
 90
20
 70
1
 10
53.921512
 20
-11.939569
 30
0.0
 10
54.018032
 20
-11.939569
 30
0.0
 10
54.112012
 20
-11.987828
 30
0.0
 10
54.160272
 20
-12.033548
 30
0.0
 10
54.208532
 20
-12.130068
 30
0.0
 10
54.256792
 20
-12.320568
 30
0.0
 10
54.256792
 20
-12.559328
 30
0.0
 10
54.208532
 20
-12.749828
 30
0.0
 10
54.160272
 20
-12.843808
 30
0.0
 10
54.112012
 20
-12.892068
 30
0.0
 10
54.018032
 20
-12.940328
 30
0.0
 10
53.921512
 20
-12.940328
 30
0.0
 10
53.827532
 20
-12.892068
 30
0.0
 10
53.779272
 20
-12.843808
 30
0.0
 10
53.731012
 20
-12.749828
 30
0.0
 10
53.685292
 20
-12.559328
 30
0.0
 10
53.685292
 20
-12.320568
 30
0.0
 10
53.731012
 20
-12.130068
 30
0.0
 10
53.779272
 20
-12.033548
 30
0.0
 10
53.827532
 20
-11.987828
 30
0.0
  0
LWPOLYLINE
  5
158
100
AcDbEntity
  8
0
 62
7
100
AcDbPolyline
 90
11
 70
0
 10
54.637792
 20
-12.033548
 30
0.0
 10
54.683512
 20
-11.987828
 30
0.0
 10
54.780032
 20
-11.939569
 30
0.0
 10
55.016252
 20
-11.939569
 30
0.0
 10
55.112772
 20
-11.987828
 30
0.0
 10
55.161032
 20
-12.033548
 30
0.0
 10
55.206752
 20
-12.130068
 30
0.0
 10
55.206752
 20
-12.224048
 30
0.0
 10
55.161032
 20
-12.368828
 30
0.0
 10
54.589532
 20
-12.940328
 30
0.0
 10
55.206752
 20
-12.940328
 30
0.0
  0
LWPOLYLINE
  5
159
100
AcDbEntity
  8
0
 62
7
100
AcDbPolyline
 90
11
 70
0
 10
51.302772
 20
-10.697509
 30
0.0
 10
50.302012
 20
-10.697509
 30
0.0
 10
50.302012
 20
-10.316509
 30
0.0
 10
50.350272
 20
-10.219989
 30
0.0
 10
50.398532
 20
-10.171729
 30
0.0
 10
50.492512
 20
-10.126009
 30
0.0
 10
50.637292
 20
-10.126009
 30
0.0
 10
50.731272
 20
-10.171729
 30
0.0
 10
50.779532
 20
-10.219989
 30
0.0
 10
50.827792
 20
-10.316509
 30
0.0
 10
50.827792
 20
-10.697509
 30
0.0
  0
LWPOLYLINE
  5
15a
100
AcDbEntity
  8
0
 62
7
100
AcDbPolyline
 90
5
 70
0
 10
50.302012
 20
-9.790729
 30
0.0
 10
51.302772
 20
-9.554509
 30
0.0
 10
50.589032
 20
-9.364009
 30
0.0
 10
51.302772
 20
-9.173509
 30
0.0
 10
50.302012
 20
-8.934749
 30
0.0
  0
LWPOLYLINE
  5
15b
100
AcDbEntity
  8
0
 62
7
100
AcDbPolyline
 90
2
 70
0
 10
51.302772
 20
-7.982249
 30
0.0
 10
50.827792
 20
-8.314989
 30
0.0
  0
LWPOLYLINE
  5
15c
100
AcDbEntity
  8
0
 62
7
100
AcDbPolyline
 90
11
 70
0
 10
51.302772
 20
-8.553749
 30
0.0
 10
50.302012
 20
-8.553749
 30
0.0
 10
50.302012
 20
-8.172749
 30
0.0
 10
50.350272
 20
-8.076229
 30
0.0
 10
50.398532
 20
-8.030509
 30
0.0
 10
50.492512
 20
-7.982249
 30
0.0
 10
50.637292
 20
-7.982249
 30
0.0
 10
50.731272
 20
-8.030509
 30
0.0
 10
50.779532
 20
-8.076229
 30
0.0
 10
50.827792
 20
-8.172749
 30
0.0
 10
50.827792
 20
-8.553749
 30
0.0
  0
LWPOLYLINE
  5
15d
100
AcDbEntity
  8
0
 62
7
100
AcDbPolyline
 90
2
 70
0
 10
51.302772
 20
-7.029749
 30
0.0
 10
51.302772
 20
-7.601249
 30
0.0
  0
LWPOLYLINE
  5
15e
100
AcDbEntity
  8
0
 62
7
100
AcDbPolyline
 90
5
 70
0
 10
51.302772
 20
-7.316769
 30
0.0
 10
50.302012
 20
-7.316769
 30
0.0
 10
50.446792
 20
-7.410749
 30
0.0
 10
50.540772
 20
-7.507269
 30
0.0
 10
50.589032
 20
-7.601249
 30
0.0
  0
LWPOLYLINE
  5
15f
100
AcDbEntity
  8
0
 62
7
100
AcDbPolyline
 90
11
 70
0
 10
50.462032
 20
-4.809789
 30
0.0
 10
50.462032
 20
-3.809029
 30
0.0
 10
50.843032
 20
-3.809029
 30
0.0
 10
50.939552
 20
-3.857289
 30
0.0
 10
50.985272
 20
-3.905549
 30
0.0
 10
51.033532
 20
-3.999529
 30
0.0
 10
51.033532
 20
-4.141769
 30
0.0
 10
50.985272
 20
-4.238289
 30
0.0
 10
50.939552
 20
-4.286549
 30
0.0
 10
50.843032
 20
-4.332269
 30
0.0
 10
50.462032
 20
-4.332269
 30
0.0
  0
LWPOLYLINE
  5
160
100
AcDbEntity
  8
0
 62
7
100
AcDbPolyline
 90
16
 70
1
 10
51.605032
 20
-4.809789
 30
0.0
 10
51.511052
 20
-4.761529
 30
0.0
 10
51.462792
 20
-4.713269
 30
0.0
 10
51.414532
 20
-4.619289
 30
0.0
 10
51.414532
 20
-4.332269
 30
0.0
 10
51.462792
 20
-4.238289
 30
0.0
 10
51.511052
 20
-4.190029
 30
0.0
 10
51.605032
 20
-4.141769
 30
0.0
 10
51.747272
 20
-4.141769
 30
0.0
 10
51.843792
 20
-4.190029
 30
0.0
 10
51.892052
 20
-4.238289
 30
0.0
 10
51.937772
 20
-4.332269
 30
0.0
 10
51.937772
 20
-4.619289
 30
0.0
 10
51.892052
 20
-4.713269
 30
0.0
 10
51.843792
 20
-4.761529
 30
0.0
 10
51.747272
 20
-4.809789
 30
0.0
  0
LWPOLYLINE
  5
161
100
AcDbEntity
  8
0
 62
7
100
AcDbPolyline
 90
4
 70
0
 10
52.509272
 20
-4.809789
 30
0.0
 10
52.415292
 20
-4.761529
 30
0.0
 10
52.367032
 20
-4.667549
 30
0.0
 10
52.367032
 20
-3.809029
 30
0.0
  0
LWPOLYLINE
  5
162
100
AcDbEntity
  8
0
 62
7
100
AcDbPolyline
 90
2
 70
0
 10
52.796292
 20
-4.141769
 30
0.0
 10
53.032512
 20
-4.809789
 30
0.0
  0
LWPOLYLINE
  5
163
100
AcDbEntity
  8
0
 62
7
100
AcDbPolyline
 90
5
 70
0
 10
53.271272
 20
-4.141769
 30
0.0
 10
53.032512
 20
-4.809789
 30
0.0
 10
52.938532
 20
-5.048549
 30
0.0
 10
52.890272
 20
-5.094269
 30
0.0
 10
52.796292
 20
-5.142529
 30
0.0
  0
LWPOLYLINE
  5
164
100
AcDbEntity
  8
0
 62
7
100
AcDbPolyline
 90
2
 70
0
 10
53.510032
 20
-4.141769
 30
0.0
 10
53.891032
 20
-4.141769
 30
0.0
  0
LWPOLYLINE
  5
165
100
AcDbEntity
  8
0
 62
7
100
AcDbPolyline
 90
5
 70
0
 10
53.652272
 20
-4.809789
 30
0.0
 10
53.652272
 20
-3.951269
 30
0.0
 10
53.700532
 20
-3.857289
 30
0.0
 10
53.794512
 20
-3.809029
 30
0.0
 10
53.891032
 20
-3.809029
 30
0.0
  0
LWPOLYLINE
  5
166
100
AcDbEntity
  8
0
 62
7
100
AcDbPolyline
 90
2
 70
0
 10
54.653032
 20
-4.141769
 30
0.0
 10
54.653032
 20
-4.809789
 30
0.0
  0
LWPOLYLINE
  5
167
100
AcDbEntity
  8
0
 62
7
100
AcDbPolyline
 90
7
 70
0
 10
54.223772
 20
-4.141769
 30
0.0
 10
54.223772
 20
-4.667549
 30
0.0
 10
54.272032
 20
-4.761529
 30
0.0
 10
54.366012
 20
-4.809789
 30
0.0
 10
54.510792
 20
-4.809789
 30
0.0
 10
54.604772
 20
-4.761529
 30
0.0
 10
54.653032
 20
-4.713269
 30
0.0
  0
LWPOLYLINE
  5
168
100
AcDbEntity
  8
0
 62
7
100
AcDbPolyline
 90
16
 70
0
 10
55.082292
 20
-4.761529
 30
0.0
 10
55.176272
 20
-4.809789
 30
0.0
 10
55.366772
 20
-4.809789
 30
0.0
 10
55.463292
 20
-4.761529
 30
0.0
 10
55.509012
 20
-4.667549
 30
0.0
 10
55.509012
 20
-4.619289
 30
0.0
 10
55.463292
 20
-4.522769
 30
0.0
 10
55.366772
 20
-4.477049
 30
0.0
 10
55.224532
 20
-4.477049
 30
0.0
 10
55.128012
 20
-4.428789
 30
0.0
 10
55.082292
 20
-4.332269
 30
0.0
 10
55.082292
 20
-4.286549
 30
0.0
 10
55.128012
 20
-4.190029
 30
0.0
 10
55.224532
 20
-4.141769
 30
0.0
 10
55.366772
 20
-4.141769
 30
0.0
 10
55.463292
 20
-4.190029
 30
0.0
  0
LWPOLYLINE
  5
169
100
AcDbEntity
  8
0
 62
7
100
AcDbPolyline
 90
13
 70
0
 10
56.319272
 20
-4.761529
 30
0.0
 10
56.225292
 20
-4.809789
 30
0.0
 10
56.034792
 20
-4.809789
 30
0.0
 10
55.938272
 20
-4.761529
 30
0.0
 10
55.890012
 20
-4.667549
 30
0.0
 10
55.890012
 20
-4.286549
 30
0.0
 10
55.938272
 20
-4.190029
 30
0.0
 10
56.034792
 20
-4.141769
 30
0.0
 10
56.225292
 20
-4.141769
 30
0.0
 10
56.319272
 20
-4.190029
 30
0.0
 10
56.367532
 20
-4.286549
 30
0.0
 10
56.367532
 20
-4.380529
 30
0.0
 10
55.890012
 20
-4.477049
 30
0.0
  0
LWPOLYLINE
  5
16a
100
AcDbEntity
  8
0
 62
7
100
AcDbPolyline
 90
2
 70
0
 10
53.123952
 20
-2.480609
 30
0.0
 10
52.857252
 20
-2.480609
 30
0.0
  0
LWPOLYLINE
  5
16b
100
AcDbEntity
  8
0
 62
7
100
AcDbPolyline
 90
3
 70
0
 10
52.857252
 20
-2.899709
 30
0.0
 10
52.857252
 20
-2.099609
 30
0.0
 10
53.238252
 20
-2.099609
 30
0.0
  0
LWPOLYLINE
  5
16c
100
AcDbEntity
  8
0
 62
7
100
AcDbPolyline
 90
2
 70
0
 10
53.962152
 20
-2.899709
 30
0.0
 10
53.504952
 20
-2.899709
 30
0.0
  0
LWPOLYLINE
  5
16d
100
AcDbEntity
  8
0
 62
7
100
AcDbPolyline
 90
5
 70
0
 10
53.733552
 20
-2.899709
 30
0.0
 10
53.733552
 20
-2.099609
 30
0.0
 10
53.657352
 20
-2.213909
 30
0.0
 10
53.581152
 20
-2.290109
 30
0.0
 10
53.504952
 20
-2.328209
 30
0.0
  0
LWPOLYLINE
  5
16e
100
AcDbEntity
  8
0
 62
7
100
AcDbPolyline
 90
2
 70
0
 10
23.736152
 20
-15.193308
 30
0.0
 10
24.213672
 20
-15.193308
 30
0.0
  0
LWPOLYLINE
  5
16f
100
AcDbEntity
  8
0
 62
7
100
AcDbPolyline
 90
3
 70
0
 10
23.642172
 20
-15.480328
 30
0.0
 10
23.974912
 20
-14.479568
 30
0.0
 10
24.307652
 20
-15.480328
 30
0.0
  0
LWPOLYLINE
  5
170
100
AcDbEntity
  8
0
 62
7
100
AcDbPolyline
 90
2
 70
0
 10
24.498152
 20
-14.479568
 30
0.0
 10
25.069652
 20
-14.479568
 30
0.0
  0
LWPOLYLINE
  5
171
100
AcDbEntity
  8
0
 62
7
100
AcDbPolyline
 90
2
 70
0
 10
24.785172
 20
-15.480328
 30
0.0
 10
24.785172
 20
-14.479568
 30
0.0
  0
LWPOLYLINE
  5
172
100
AcDbEntity
  8
0
 62
7
100
AcDbPolyline
 90
2
 70
0
 10
25.260152
 20
-14.812308
 30
0.0
 10
25.641152
 20
-14.812308
 30
0.0
  0
LWPOLYLINE
  5
173
100
AcDbEntity
  8
0
 62
7
100
AcDbPolyline
 90
5
 70
0
 10
25.404932
 20
-14.479568
 30
0.0
 10
25.404932
 20
-15.335548
 30
0.0
 10
25.450652
 20
-15.432068
 30
0.0
 10
25.547172
 20
-15.480328
 30
0.0
 10
25.641152
 20
-15.480328
 30
0.0
  0
LWPOLYLINE
  5
174
100
AcDbEntity
  8
0
 62
7
100
AcDbPolyline
 90
2
 70
0
 10
25.973892
 20
-15.480328
 30
0.0
 10
25.973892
 20
-14.812308
 30
0.0
  0
LWPOLYLINE
  5
175
100
AcDbEntity
  8
0
 62
7
100
AcDbPolyline
 90
6
 70
0
 10
25.973892
 20
-14.479568
 30
0.0
 10
25.928172
 20
-14.527828
 30
0.0
 10
25.973892
 20
-14.573548
 30
0.0
 10
26.022152
 20
-14.527828
 30
0.0
 10
25.973892
 20
-14.479568
 30
0.0
 10
25.973892
 20
-14.573548
 30
0.0
  0
LWPOLYLINE
  5
176
100
AcDbEntity
  8
0
 62
7
100
AcDbPolyline
 90
2
 70
0
 10
26.451412
 20
-14.812308
 30
0.0
 10
26.451412
 20
-15.480328
 30
0.0
  0
LWPOLYLINE
  5
177
100
AcDbEntity
  8
0
 62
7
100
AcDbPolyline
 90
7
 70
0
 10
26.451412
 20
-14.908828
 30
0.0
 10
26.499672
 20
-14.860568
 30
0.0
 10
26.593652
 20
-14.812308
 30
0.0
 10
26.735892
 20
-14.812308
 30
0.0
 10
26.832412
 20
-14.860568
 30
0.0
 10
26.880672
 20
-14.954548
 30
0.0
 10
26.880672
 20
-15.480328
 30
0.0
  0
LWPOLYLINE
  5
178
100
AcDbEntity
  8
0
 62
7
100
AcDbPolyline
 90
2
 70
0
 10
27.261672
 20
-14.812308
 30
0.0
 10
27.497892
 20
-15.480328
 30
0.0
  0
LWPOLYLINE
  5
179
100
AcDbEntity
  8
0
 62
7
100
AcDbPolyline
 90
5
 70
0
 10
27.736652
 20
-14.812308
 30
0.0
 10
27.497892
 20
-15.480328
 30
0.0
 10
27.403912
 20
-15.716548
 30
0.0
 10
27.355652
 20
-15.764808
 30
0.0
 10
27.261672
 20
-15.813068
 30
0.0
  0
LWPOLYLINE
  5
17a
100
AcDbEntity
  8
0
 62
7
100
AcDbPolyline
 90
32
 70
0
 10
28.259892
 20
-14.908828
 30
0.0
 10
28.165912
 20
-14.860568
 30
0.0
 10
28.117652
 20
-14.812308
 30
0.0
 10
28.069392
 20
-14.718328
 30
0.0
 10
28.069392
 20
-14.670068
 30
0.0
 10
28.117652
 20
-14.573548
 30
0.0
 10
28.165912
 20
-14.527828
 30
0.0
 10
28.259892
 20
-14.479568
 30
0.0
 10
28.450392
 20
-14.479568
 30
0.0
 10
28.546912
 20
-14.527828
 30
0.0
 10
28.595172
 20
-14.573548
 30
0.0
 10
28.640892
 20
-14.670068
 30
0.0
 10
28.640892
 20
-14.718328
 30
0.0
 10
28.595172
 20
-14.812308
 30
0.0
 10
28.546912
 20
-14.860568
 30
0.0
 10
28.450392
 20
-14.908828
 30
0.0
 10
28.259892
 20
-14.908828
 30
0.0
 10
28.165912
 20
-14.954548
 30
0.0
 10
28.117652
 20
-15.002808
 30
0.0
 10
28.069392
 20
-15.099328
 30
0.0
 10
28.069392
 20
-15.289828
 30
0.0
 10
28.117652
 20
-15.383808
 30
0.0
 10
28.165912
 20
-15.432068
 30
0.0
 10
28.259892
 20
-15.480328
 30
0.0
 10
28.450392
 20
-15.480328
 30
0.0
 10
28.546912
 20
-15.432068
 30
0.0
 10
28.595172
 20
-15.383808
 30
0.0
 10
28.640892
 20
-15.289828
 30
0.0
 10
28.640892
 20
-15.099328
 30
0.0
 10
28.595172
 20
-15.002808
 30
0.0
 10
28.546912
 20
-14.954548
 30
0.0
 10
28.450392
 20
-14.908828
 30
0.0
  0
LWPOLYLINE
  5
17b
100
AcDbEntity
  8
0
 62
7
100
AcDbPolyline
 90
16
 70
0
 10
29.547672
 20
-14.479568
 30
0.0
 10
29.070152
 20
-14.479568
 30
0.0
 10
29.021892
 20
-14.954548
 30
0.0
 10
29.070152
 20
-14.908828
 30
0.0
 10
29.166672
 20
-14.860568
 30
0.0
 10
29.402892
 20
-14.860568
 30
0.0
 10
29.499412
 20
-14.908828
 30
0.0
 10
29.547672
 20
-14.954548
 30
0.0
 10
29.593392
 20
-15.051068
 30
0.0
 10
29.593392
 20
-15.289828
 30
0.0
 10
29.547672
 20
-15.383808
 30
0.0
 10
29.499412
 20
-15.432068
 30
0.0
 10
29.402892
 20
-15.480328
 30
0.0
 10
29.166672
 20
-15.480328
 30
0.0
 10
29.070152
 20
-15.432068
 30
0.0
 10
29.021892
 20
-15.383808
 30
0.0
  0
LWPOLYLINE
  5
17c
100
AcDbEntity
  8
0
 62
7
100
AcDbPolyline
 90
2
 70
0
 10
30.022652
 20
-15.099328
 30
0.0
 10
30.784652
 20
-15.099328
 30
0.0
  0
LWPOLYLINE
  5
17d
100
AcDbEntity
  8
0
 62
7
100
AcDbPolyline
 90
11
 70
0
 10
31.213912
 20
-14.573548
 30
0.0
 10
31.259632
 20
-14.527828
 30
0.0
 10
31.356152
 20
-14.479568
 30
0.0
 10
31.594912
 20
-14.479568
 30
0.0
 10
31.688892
 20
-14.527828
 30
0.0
 10
31.737152
 20
-14.573548
 30
0.0
 10
31.785412
 20
-14.670068
 30
0.0
 10
31.785412
 20
-14.764048
 30
0.0
 10
31.737152
 20
-14.908828
 30
0.0
 10
31.165652
 20
-15.480328
 30
0.0
 10
31.785412
 20
-15.480328
 30
0.0
  0
LWPOLYLINE
  5
17e
100
AcDbEntity
  8
0
 62
7
100
AcDbPolyline
 90
20
 70
1
 10
32.402632
 20
-14.479568
 30
0.0
 10
32.499152
 20
-14.479568
 30
0.0
 10
32.593132
 20
-14.527828
 30
0.0
 10
32.641392
 20
-14.573548
 30
0.0
 10
32.689652
 20
-14.670068
 30
0.0
 10
32.737912
 20
-14.860568
 30
0.0
 10
32.737912
 20
-15.099328
 30
0.0
 10
32.689652
 20
-15.289828
 30
0.0
 10
32.641392
 20
-15.383808
 30
0.0
 10
32.593132
 20
-15.432068
 30
0.0
 10
32.499152
 20
-15.480328
 30
0.0
 10
32.402632
 20
-15.480328
 30
0.0
 10
32.308652
 20
-15.432068
 30
0.0
 10
32.260392
 20
-15.383808
 30
0.0
 10
32.212132
 20
-15.289828
 30
0.0
 10
32.166412
 20
-15.099328
 30
0.0
 10
32.166412
 20
-14.860568
 30
0.0
 10
32.212132
 20
-14.670068
 30
0.0
 10
32.260392
 20
-14.573548
 30
0.0
 10
32.308652
 20
-14.527828
 30
0.0
  0
LWPOLYLINE
  5
17f
100
AcDbEntity
  8
0
 62
7
100
AcDbPolyline
 90
11
 70
0
 10
33.164632
 20
-15.480328
 30
0.0
 10
33.164632
 20
-14.479568
 30
0.0
 10
33.545632
 20
-14.479568
 30
0.0
 10
33.642152
 20
-14.527828
 30
0.0
 10
33.690412
 20
-14.573548
 30
0.0
 10
33.736132
 20
-14.670068
 30
0.0
 10
33.736132
 20
-14.812308
 30
0.0
 10
33.690412
 20
-14.908828
 30
0.0
 10
33.642152
 20
-14.954548
 30
0.0
 10
33.545632
 20
-15.002808
 30
0.0
 10
33.164632
 20
-15.002808
 30
0.0
  0
LWPOLYLINE
  5
180
100
AcDbEntity
  8
0
 62
7
100
AcDbPolyline
 90
10
 70
0
 10
34.165392
 20
-14.479568
 30
0.0
 10
34.165392
 20
-15.289828
 30
0.0
 10
34.213652
 20
-15.383808
 30
0.0
 10
34.261912
 20
-15.432068
 30
0.0
 10
34.355892
 20
-15.480328
 30
0.0
 10
34.546392
 20
-15.480328
 30
0.0
 10
34.642912
 20
-15.432068
 30
0.0
 10
34.688632
 20
-15.383808
 30
0.0
 10
34.736892
 20
-15.289828
 30
0.0
 10
34.736892
 20
-14.479568
 30
0.0
  0
LWPOLYLINE
  5
181
100
AcDbEntity
  8
0
 62
7
100
AcDbPolyline
 90
10
 70
0
 10
28.498652
 20
-8.340389
 30
0.0
 10
28.498652
 20
-9.148109
 30
0.0
 10
28.546912
 20
-9.244629
 30
0.0
 10
28.595172
 20
-9.292889
 30
0.0
 10
28.689152
 20
-9.338609
 30
0.0
 10
28.879652
 20
-9.338609
 30
0.0
 10
28.976172
 20
-9.292889
 30
0.0
 10
29.021892
 20
-9.244629
 30
0.0
 10
29.070152
 20
-9.148109
 30
0.0
 10
29.070152
 20
-8.340389
 30
0.0
  0
LWPOLYLINE
  5
182
100
AcDbEntity
  8
0
 62
7
100
AcDbPolyline
 90
2
 70
0
 10
30.070912
 20
-9.338609
 30
0.0
 10
29.499412
 20
-9.338609
 30
0.0
  0
LWPOLYLINE
  5
183
100
AcDbEntity
  8
0
 62
7
100
AcDbPolyline
 90
5
 70
0
 10
29.783892
 20
-9.338609
 30
0.0
 10
29.783892
 20
-8.340389
 30
0.0
 10
29.689912
 20
-8.482629
 30
0.0
 10
29.593392
 20
-8.576609
 30
0.0
 10
29.499412
 20
-8.624869
 30
0.0
  0
LWPOLYLINE
  5
184
100
AcDbEntity
  8
0
 62
7
100
AcDbPolyline
 90
20
 70
0
 10
48.376692
 20
-11.995448
 30
0.0
 10
48.422412
 20
-11.850669
 30
0.0
 10
48.422412
 20
-11.614449
 30
0.0
 10
48.376692
 20
-11.517929
 30
0.0
 10
48.328432
 20
-11.469669
 30
0.0
 10
48.231912
 20
-11.423949
 30
0.0
 10
48.137932
 20
-11.423949
 30
0.0
 10
48.041412
 20
-11.469669
 30
0.0
 10
47.995692
 20
-11.517929
 30
0.0
 10
47.947432
 20
-11.614449
 30
0.0
 10
47.899172
 20
-11.804949
 30
0.0
 10
47.850912
 20
-11.898929
 30
0.0
 10
47.805192
 20
-11.947189
 30
0.0
 10
47.708672
 20
-11.995448
 30
0.0
 10
47.614692
 20
-11.995448
 30
0.0
 10
47.518172
 20
-11.947189
 30
0.0
 10
47.469912
 20
-11.898929
 30
0.0
 10
47.424192
 20
-11.804949
 30
0.0
 10
47.424192
 20
-11.566189
 30
0.0
 10
47.469912
 20
-11.423949
 30
0.0
  0
LWPOLYLINE
  5
185
100
AcDbEntity
  8
0
 62
7
100
AcDbPolyline
 90
5
 70
0
 10
47.424192
 20
-11.088669
 30
0.0
 10
48.422412
 20
-10.852449
 30
0.0
 10
47.708672
 20
-10.661949
 30
0.0
 10
48.422412
 20
-10.471449
 30
0.0
 10
47.424192
 20
-10.232689
 30
0.0
  0
LWPOLYLINE
  5
186
100
AcDbEntity
  8
0
 62
7
100
AcDbPolyline
 90
2
 70
0
 10
48.518932
 20
-10.090449
 30
0.0
 10
48.518932
 20
-9.328449
 30
0.0
  0
LWPOLYLINE
  5
187
100
AcDbEntity
  8
0
 62
7
100
AcDbPolyline
 90
11
 70
0
 10
48.422412
 20
-9.089689
 30
0.0
 10
47.424192
 20
-9.089689
 30
0.0
 10
47.424192
 20
-8.708689
 30
0.0
 10
47.469912
 20
-8.614709
 30
0.0
 10
47.518172
 20
-8.566449
 30
0.0
 10
47.614692
 20
-8.518189
 30
0.0
 10
47.756932
 20
-8.518189
 30
0.0
 10
47.850912
 20
-8.566449
 30
0.0
 10
47.899172
 20
-8.614709
 30
0.0
 10
47.947432
 20
-8.708689
 30
0.0
 10
47.947432
 20
-9.089689
 30
0.0
  0
LWPOLYLINE
  5
188
100
AcDbEntity
  8
0
 62
7
100
AcDbPolyline
 90
2
 70
0
 10
47.756932
 20
-7.662209
 30
0.0
 10
48.422412
 20
-7.662209
 30
0.0
  0
LWPOLYLINE
  5
189
100
AcDbEntity
  8
0
 62
7
100
AcDbPolyline
 90
7
 70
0
 10
47.756932
 20
-8.088929
 30
0.0
 10
48.280172
 20
-8.088929
 30
0.0
 10
48.376692
 20
-8.043209
 30
0.0
 10
48.422412
 20
-7.946689
 30
0.0
 10
48.422412
 20
-7.804449
 30
0.0
 10
48.376692
 20
-7.707929
 30
0.0
 10
48.328432
 20
-7.662209
 30
0.0
  0
LWPOLYLINE
  5
18a
100
AcDbEntity
  8
0
 62
7
100
AcDbPolyline
 90
16
 70
0
 10
48.376692
 20
-7.232949
 30
0.0
 10
48.422412
 20
-7.136429
 30
0.0
 10
48.422412
 20
-6.945929
 30
0.0
 10
48.376692
 20
-6.851949
 30
0.0
 10
48.280172
 20
-6.803689
 30
0.0
 10
48.231912
 20
-6.803689
 30
0.0
 10
48.137932
 20
-6.851949
 30
0.0
 10
48.089672
 20
-6.945929
 30
0.0
 10
48.089672
 20
-7.090709
 30
0.0
 10
48.041412
 20
-7.184689
 30
0.0
 10
47.947432
 20
-7.232949
 30
0.0
 10
47.899172
 20
-7.232949
 30
0.0
 10
47.805192
 20
-7.184689
 30
0.0
 10
47.756932
 20
-7.090709
 30
0.0
 10
47.756932
 20
-6.945929
 30
0.0
 10
47.805192
 20
-6.851949
 30
0.0
  0
LWPOLYLINE
  5
18b
100
AcDbEntity
  8
0
 62
7
100
AcDbPolyline
 90
2
 70
0
 10
48.422412
 20
-6.374429
 30
0.0
 10
47.424192
 20
-6.374429
 30
0.0
  0
LWPOLYLINE
  5
18c
100
AcDbEntity
  8
0
 62
7
100
AcDbPolyline
 90
7
 70
0
 10
48.422412
 20
-5.947709
 30
0.0
 10
47.899172
 20
-5.947709
 30
0.0
 10
47.805192
 20
-5.993429
 30
0.0
 10
47.756932
 20
-6.089949
 30
0.0
 10
47.756932
 20
-6.232189
 30
0.0
 10
47.805192
 20
-6.328709
 30
0.0
 10
47.850912
 20
-6.374429
 30
0.0
  0
LWPOLYLINE
  5
18d
100
AcDbEntity
  8
0
 62
7
100
AcDbPolyline
 90
20
 70
0
 10
43.926612
 20
-10.781329
 30
0.0
 10
43.972332
 20
-10.636549
 30
0.0
 10
43.972332
 20
-10.400329
 30
0.0
 10
43.926612
 20
-10.303809
 30
0.0
 10
43.878352
 20
-10.255549
 30
0.0
 10
43.781832
 20
-10.209829
 30
0.0
 10
43.687852
 20
-10.209829
 30
0.0
 10
43.591332
 20
-10.255549
 30
0.0
 10
43.545612
 20
-10.303809
 30
0.0
 10
43.497352
 20
-10.400329
 30
0.0
 10
43.449092
 20
-10.590829
 30
0.0
 10
43.400832
 20
-10.684809
 30
0.0
 10
43.355112
 20
-10.733069
 30
0.0
 10
43.258592
 20
-10.781329
 30
0.0
 10
43.164612
 20
-10.781329
 30
0.0
 10
43.068092
 20
-10.733069
 30
0.0
 10
43.019832
 20
-10.684809
 30
0.0
 10
42.974112
 20
-10.590829
 30
0.0
 10
42.974112
 20
-10.352069
 30
0.0
 10
43.019832
 20
-10.209829
 30
0.0
  0
LWPOLYLINE
  5
18e
100
AcDbEntity
  8
0
 62
7
100
AcDbPolyline
 90
5
 70
0
 10
42.974112
 20
-9.874549
 30
0.0
 10
43.972332
 20
-9.638329
 30
0.0
 10
43.258592
 20
-9.447829
 30
0.0
 10
43.972332
 20
-9.257329
 30
0.0
 10
42.974112
 20
-9.018569
 30
0.0
  0
LWPOLYLINE
  5
18f
100
AcDbEntity
  8
0
 62
7
100
AcDbPolyline
 90
2
 70
0
 10
43.972332
 20
-8.114329
 30
0.0
 10
43.972332
 20
-8.685829
 30
0.0
  0
LWPOLYLINE
  5
190
100
AcDbEntity
  8
0
 62
7
100
AcDbPolyline
 90
5
 70
0
 10
43.972332
 20
-8.398809
 30
0.0
 10
42.974112
 20
-8.398809
 30
0.0
 10
43.116352
 20
-8.495329
 30
0.0
 10
43.210332
 20
-8.589309
 30
0.0
 10
43.258592
 20
-8.685829
 30
0.0
  0
LWPOLYLINE
  5
191
100
AcDbEntity
  8
0
 62
7
100
AcDbPolyline
 90
14
 70
0
 10
34.325412
 20
-11.040409
 30
0.0
 10
34.945172
 20
-11.040409
 30
0.0
 10
34.609892
 20
-11.421409
 30
0.0
 10
34.754672
 20
-11.421409
 30
0.0
 10
34.848652
 20
-11.467129
 30
0.0
 10
34.896912
 20
-11.515389
 30
0.0
 10
34.945172
 20
-11.611909
 30
0.0
 10
34.945172
 20
-11.848129
 30
0.0
 10
34.896912
 20
-11.944649
 30
0.0
 10
34.848652
 20
-11.992908
 30
0.0
 10
34.754672
 20
-12.038628
 30
0.0
 10
34.467652
 20
-12.038628
 30
0.0
 10
34.373672
 20
-11.992908
 30
0.0
 10
34.325412
 20
-11.944649
 30
0.0
  0
LWPOLYLINE
  5
192
100
AcDbEntity
  8
0
 62
7
100
AcDbPolyline
 90
20
 70
1
 10
35.562392
 20
-11.040409
 30
0.0
 10
35.658912
 20
-11.040409
 30
0.0
 10
35.752892
 20
-11.086129
 30
0.0
 10
35.801152
 20
-11.134389
 30
0.0
 10
35.849412
 20
-11.230909
 30
0.0
 10
35.897672
 20
-11.421409
 30
0.0
 10
35.897672
 20
-11.657629
 30
0.0
 10
35.849412
 20
-11.848129
 30
0.0
 10
35.801152
 20
-11.944649
 30
0.0
 10
35.752892
 20
-11.992908
 30
0.0
 10
35.658912
 20
-12.038628
 30
0.0
 10
35.562392
 20
-12.038628
 30
0.0
 10
35.468412
 20
-11.992908
 30
0.0
 10
35.420152
 20
-11.944649
 30
0.0
 10
35.371892
 20
-11.848129
 30
0.0
 10
35.326172
 20
-11.657629
 30
0.0
 10
35.326172
 20
-11.421409
 30
0.0
 10
35.371892
 20
-11.230909
 30
0.0
 10
35.420152
 20
-11.134389
 30
0.0
 10
35.468412
 20
-11.086129
 30
0.0
  0
LWPOLYLINE
  5
193
100
AcDbEntity
  8
0
 62
7
100
AcDbPolyline
 90
20
 70
1
 10
36.514892
 20
-11.040409
 30
0.0
 10
36.611412
 20
-11.040409
 30
0.0
 10
36.705392
 20
-11.086129
 30
0.0
 10
36.753652
 20
-11.134389
 30
0.0
 10
36.801912
 20
-11.230909
 30
0.0
 10
36.850172
 20
-11.421409
 30
0.0
 10
36.850172
 20
-11.657629
 30
0.0
 10
36.801912
 20
-11.848129
 30
0.0
 10
36.753652
 20
-11.944649
 30
0.0
 10
36.705392
 20
-11.992908
 30
0.0
 10
36.611412
 20
-12.038628
 30
0.0
 10
36.514892
 20
-12.038628
 30
0.0
 10
36.420912
 20
-11.992908
 30
0.0
 10
36.372652
 20
-11.944649
 30
0.0
 10
36.324392
 20
-11.848129
 30
0.0
 10
36.278672
 20
-11.657629
 30
0.0
 10
36.278672
 20
-11.421409
 30
0.0
 10
36.324392
 20
-11.230909
 30
0.0
 10
36.372652
 20
-11.134389
 30
0.0
 10
36.420912
 20
-11.086129
 30
0.0
  0
LWPOLYLINE
  5
194
100
AcDbEntity
  8
0
 62
7
100
AcDbPolyline
 90
2
 70
0
 10
35.544612
 20
-10.336829
 30
0.0
 10
35.409992
 20
-10.146329
 30
0.0
  0
LWPOLYLINE
  5
195
100
AcDbEntity
  8
0
 62
7
100
AcDbPolyline
 90
11
 70
0
 10
35.316012
 20
-10.336829
 30
0.0
 10
35.316012
 20
-9.938049
 30
0.0
 10
35.468412
 20
-9.938049
 30
0.0
 10
35.506512
 20
-9.955829
 30
0.0
 10
35.524292
 20
-9.976149
 30
0.0
 10
35.544612
 20
-10.014249
 30
0.0
 10
35.544612
 20
-10.070129
 30
0.0
 10
35.524292
 20
-10.108229
 30
0.0
 10
35.506512
 20
-10.128549
 30
0.0
 10
35.468412
 20
-10.146329
 30
0.0
 10
35.316012
 20
-10.146329
 30
0.0
  0
LWPOLYLINE
  5
196
100
AcDbEntity
  8
0
 62
7
100
AcDbPolyline
 90
2
 70
0
 10
35.925612
 20
-10.336829
 30
0.0
 10
35.697012
 20
-10.336829
 30
0.0
  0
LWPOLYLINE
  5
197
100
AcDbEntity
  8
0
 62
7
100
AcDbPolyline
 90
5
 70
0
 10
35.811312
 20
-10.336829
 30
0.0
 10
35.811312
 20
-9.938049
 30
0.0
 10
35.773212
 20
-9.993929
 30
0.0
 10
35.735112
 20
-10.032029
 30
0.0
 10
35.697012
 20
-10.052349
 30
0.0
  0
LWPOLYLINE
  5
198
100
AcDbEntity
  8
0
 62
7
100
AcDbPolyline
 90
2
 70
0
 10
0.050653
 20
0.003511
 30
0.0
 10
58.470652
 20
0.003511
 30
0.0
  0
LWPOLYLINE
  5
199
100
AcDbEntity
  8
0
 62
7
100
AcDbPolyline
 90
2
 70
0
 10
0.050653
 20
-17.776488
 30
0.0
 10
0.050653
 20
0.003511
 30
0.0
  0
LWPOLYLINE
  5
19a
100
AcDbEntity
  8
0
 62
7
100
AcDbPolyline
 90
2
 70
0
 10
58.470652
 20
-17.776488
 30
0.0
 10
0.050653
 20
-17.776488
 30
0.0
  0
LWPOLYLINE
  5
19b
100
AcDbEntity
  8
0
 62
7
100
AcDbPolyline
 90
2
 70
0
 10
58.470652
 20
0.003511
 30
0.0
 10
58.470652
 20
-17.776488
 30
0.0
  0
ENDSEC
  0
SECTION
  2
OBJECTS
  0
DICTIONARY
  5
C
330
0
100
AcDbDictionary
  3
ACAD_GROUP
350
D
  3
ACAD_MLINESTYLE
350
17
  0
DICTIONARY
  5
D
330
C
100
AcDbDictionary
  0
DICTIONARY
  5
1A
330
C
100
AcDbDictionary
  0
DICTIONARY
  5
17
330
C
100
AcDbDictionary
  3
STANDARD
350
18
  0
DICTIONARY
  5
19
330
C
100
AcDbDictionary
  0
ENDSEC
  0
EOF
