G04 #@! TF.GenerationSoftware,KiCad,Pcbnew,(5.1.0)-1*
G04 #@! TF.CreationDate,2019-04-02T22:03:43+02:00*
G04 #@! TF.ProjectId,UV_Meter,55565f4d-6574-4657-922e-6b696361645f,rev?*
G04 #@! TF.SameCoordinates,Original*
G04 #@! TF.FileFunction,Soldermask,Bot*
G04 #@! TF.FilePolarity,Negative*
%FSLAX46Y46*%
G04 Gerber Fmt 4.6, Leading zero omitted, Abs format (unit mm)*
G04 Created by KiCad (PCBNEW (5.1.0)-1) date 2019-04-02 22:03:43*
%MOMM*%
%LPD*%
G04 APERTURE LIST*
%ADD10C,0.100000*%
G04 APERTURE END LIST*
D10*
G36*
X65766564Y-32009389D02*
G01*
X65957833Y-32088615D01*
X65957835Y-32088616D01*
X66022819Y-32132037D01*
X66129973Y-32203635D01*
X66276365Y-32350027D01*
X66391385Y-32522167D01*
X66470611Y-32713436D01*
X66511000Y-32916484D01*
X66511000Y-33123516D01*
X66470611Y-33326564D01*
X66454083Y-33366466D01*
X66391384Y-33517835D01*
X66276365Y-33689973D01*
X66129973Y-33836365D01*
X65957835Y-33951384D01*
X65957834Y-33951385D01*
X65957833Y-33951385D01*
X65766564Y-34030611D01*
X65563516Y-34071000D01*
X65356484Y-34071000D01*
X65153436Y-34030611D01*
X64962167Y-33951385D01*
X64962166Y-33951385D01*
X64962165Y-33951384D01*
X64790027Y-33836365D01*
X64643635Y-33689973D01*
X64528616Y-33517835D01*
X64465917Y-33366466D01*
X64449389Y-33326564D01*
X64409000Y-33123516D01*
X64409000Y-32916484D01*
X64449389Y-32713436D01*
X64528615Y-32522167D01*
X64643635Y-32350027D01*
X64790027Y-32203635D01*
X64897181Y-32132037D01*
X64962165Y-32088616D01*
X64962167Y-32088615D01*
X65153436Y-32009389D01*
X65356484Y-31969000D01*
X65563516Y-31969000D01*
X65766564Y-32009389D01*
X65766564Y-32009389D01*
G37*
G36*
X61266564Y-32009389D02*
G01*
X61457833Y-32088615D01*
X61457835Y-32088616D01*
X61522819Y-32132037D01*
X61629973Y-32203635D01*
X61776365Y-32350027D01*
X61891385Y-32522167D01*
X61970611Y-32713436D01*
X62011000Y-32916484D01*
X62011000Y-33123516D01*
X61970611Y-33326564D01*
X61954083Y-33366466D01*
X61891384Y-33517835D01*
X61776365Y-33689973D01*
X61629973Y-33836365D01*
X61457835Y-33951384D01*
X61457834Y-33951385D01*
X61457833Y-33951385D01*
X61266564Y-34030611D01*
X61063516Y-34071000D01*
X60856484Y-34071000D01*
X60653436Y-34030611D01*
X60462167Y-33951385D01*
X60462166Y-33951385D01*
X60462165Y-33951384D01*
X60290027Y-33836365D01*
X60143635Y-33689973D01*
X60028616Y-33517835D01*
X59965917Y-33366466D01*
X59949389Y-33326564D01*
X59909000Y-33123516D01*
X59909000Y-32916484D01*
X59949389Y-32713436D01*
X60028615Y-32522167D01*
X60143635Y-32350027D01*
X60290027Y-32203635D01*
X60397181Y-32132037D01*
X60462165Y-32088616D01*
X60462167Y-32088615D01*
X60653436Y-32009389D01*
X60856484Y-31969000D01*
X61063516Y-31969000D01*
X61266564Y-32009389D01*
X61266564Y-32009389D01*
G37*
G36*
X26301000Y-33921000D02*
G01*
X24499000Y-33921000D01*
X24499000Y-32119000D01*
X26301000Y-32119000D01*
X26301000Y-33921000D01*
X26301000Y-33921000D01*
G37*
G36*
X78850443Y-32125519D02*
G01*
X78916627Y-32132037D01*
X79086466Y-32183557D01*
X79242991Y-32267222D01*
X79278729Y-32296552D01*
X79380186Y-32379814D01*
X79463448Y-32481271D01*
X79492778Y-32517009D01*
X79576443Y-32673534D01*
X79627963Y-32843373D01*
X79645359Y-33020000D01*
X79627963Y-33196627D01*
X79576443Y-33366466D01*
X79492778Y-33522991D01*
X79463448Y-33558729D01*
X79380186Y-33660186D01*
X79278729Y-33743448D01*
X79242991Y-33772778D01*
X79086466Y-33856443D01*
X78916627Y-33907963D01*
X78850443Y-33914481D01*
X78784260Y-33921000D01*
X78695740Y-33921000D01*
X78629557Y-33914481D01*
X78563373Y-33907963D01*
X78393534Y-33856443D01*
X78237009Y-33772778D01*
X78201271Y-33743448D01*
X78099814Y-33660186D01*
X78016552Y-33558729D01*
X77987222Y-33522991D01*
X77903557Y-33366466D01*
X77852037Y-33196627D01*
X77834641Y-33020000D01*
X77852037Y-32843373D01*
X77903557Y-32673534D01*
X77987222Y-32517009D01*
X78016552Y-32481271D01*
X78099814Y-32379814D01*
X78201271Y-32296552D01*
X78237009Y-32267222D01*
X78393534Y-32183557D01*
X78563373Y-32132037D01*
X78629557Y-32125519D01*
X78695740Y-32119000D01*
X78784260Y-32119000D01*
X78850443Y-32125519D01*
X78850443Y-32125519D01*
G37*
G36*
X56046823Y-32181313D02*
G01*
X56207242Y-32229976D01*
X56276922Y-32267221D01*
X56355078Y-32308996D01*
X56484659Y-32415341D01*
X56591004Y-32544922D01*
X56591005Y-32544924D01*
X56670024Y-32692758D01*
X56718687Y-32853177D01*
X56735117Y-33020000D01*
X56718687Y-33186823D01*
X56670024Y-33347242D01*
X56659747Y-33366468D01*
X56591004Y-33495078D01*
X56484659Y-33624659D01*
X56355078Y-33731004D01*
X56355076Y-33731005D01*
X56207242Y-33810024D01*
X56046823Y-33858687D01*
X55921804Y-33871000D01*
X55838196Y-33871000D01*
X55713177Y-33858687D01*
X55552758Y-33810024D01*
X55404924Y-33731005D01*
X55404922Y-33731004D01*
X55275341Y-33624659D01*
X55168996Y-33495078D01*
X55100253Y-33366468D01*
X55089976Y-33347242D01*
X55041313Y-33186823D01*
X55024883Y-33020000D01*
X55041313Y-32853177D01*
X55089976Y-32692758D01*
X55168995Y-32544924D01*
X55168996Y-32544922D01*
X55275341Y-32415341D01*
X55404922Y-32308996D01*
X55483078Y-32267221D01*
X55552758Y-32229976D01*
X55713177Y-32181313D01*
X55838196Y-32169000D01*
X55921804Y-32169000D01*
X56046823Y-32181313D01*
X56046823Y-32181313D01*
G37*
G36*
X48426823Y-32181313D02*
G01*
X48587242Y-32229976D01*
X48656922Y-32267221D01*
X48735078Y-32308996D01*
X48864659Y-32415341D01*
X48971004Y-32544922D01*
X48971005Y-32544924D01*
X49050024Y-32692758D01*
X49098687Y-32853177D01*
X49115117Y-33020000D01*
X49098687Y-33186823D01*
X49050024Y-33347242D01*
X49039747Y-33366468D01*
X48971004Y-33495078D01*
X48864659Y-33624659D01*
X48735078Y-33731004D01*
X48735076Y-33731005D01*
X48587242Y-33810024D01*
X48426823Y-33858687D01*
X48301804Y-33871000D01*
X48218196Y-33871000D01*
X48093177Y-33858687D01*
X47932758Y-33810024D01*
X47784924Y-33731005D01*
X47784922Y-33731004D01*
X47655341Y-33624659D01*
X47548996Y-33495078D01*
X47480253Y-33366468D01*
X47469976Y-33347242D01*
X47421313Y-33186823D01*
X47404883Y-33020000D01*
X47421313Y-32853177D01*
X47469976Y-32692758D01*
X47548995Y-32544924D01*
X47548996Y-32544922D01*
X47655341Y-32415341D01*
X47784922Y-32308996D01*
X47863078Y-32267221D01*
X47932758Y-32229976D01*
X48093177Y-32181313D01*
X48218196Y-32169000D01*
X48301804Y-32169000D01*
X48426823Y-32181313D01*
X48426823Y-32181313D01*
G37*
G36*
X78850443Y-29585519D02*
G01*
X78916627Y-29592037D01*
X79086466Y-29643557D01*
X79242991Y-29727222D01*
X79278729Y-29756552D01*
X79380186Y-29839814D01*
X79427543Y-29897520D01*
X79492778Y-29977009D01*
X79576443Y-30133534D01*
X79627963Y-30303373D01*
X79645359Y-30480000D01*
X79627963Y-30656627D01*
X79576443Y-30826466D01*
X79576442Y-30826468D01*
X79567552Y-30843100D01*
X79492778Y-30982991D01*
X79463448Y-31018729D01*
X79380186Y-31120186D01*
X79278729Y-31203448D01*
X79242991Y-31232778D01*
X79086466Y-31316443D01*
X78916627Y-31367963D01*
X78850443Y-31374481D01*
X78784260Y-31381000D01*
X78695740Y-31381000D01*
X78629557Y-31374481D01*
X78563373Y-31367963D01*
X78393534Y-31316443D01*
X78237009Y-31232778D01*
X78201271Y-31203448D01*
X78099814Y-31120186D01*
X78016552Y-31018729D01*
X77987222Y-30982991D01*
X77912448Y-30843100D01*
X77903558Y-30826468D01*
X77903557Y-30826466D01*
X77852037Y-30656627D01*
X77834641Y-30480000D01*
X77852037Y-30303373D01*
X77903557Y-30133534D01*
X77987222Y-29977009D01*
X78052457Y-29897520D01*
X78099814Y-29839814D01*
X78201271Y-29756552D01*
X78237009Y-29727222D01*
X78393534Y-29643557D01*
X78563373Y-29592037D01*
X78629557Y-29585519D01*
X78695740Y-29579000D01*
X78784260Y-29579000D01*
X78850443Y-29585519D01*
X78850443Y-29585519D01*
G37*
G36*
X73770443Y-29585519D02*
G01*
X73836627Y-29592037D01*
X74006466Y-29643557D01*
X74162991Y-29727222D01*
X74198729Y-29756552D01*
X74300186Y-29839814D01*
X74347543Y-29897520D01*
X74412778Y-29977009D01*
X74496443Y-30133534D01*
X74547963Y-30303373D01*
X74565359Y-30480000D01*
X74547963Y-30656627D01*
X74496443Y-30826466D01*
X74496442Y-30826468D01*
X74487552Y-30843100D01*
X74412778Y-30982991D01*
X74383448Y-31018729D01*
X74300186Y-31120186D01*
X74198729Y-31203448D01*
X74162991Y-31232778D01*
X74006466Y-31316443D01*
X73836627Y-31367963D01*
X73770443Y-31374481D01*
X73704260Y-31381000D01*
X73615740Y-31381000D01*
X73549557Y-31374481D01*
X73483373Y-31367963D01*
X73313534Y-31316443D01*
X73157009Y-31232778D01*
X73121271Y-31203448D01*
X73019814Y-31120186D01*
X72936552Y-31018729D01*
X72907222Y-30982991D01*
X72832448Y-30843100D01*
X72823558Y-30826468D01*
X72823557Y-30826466D01*
X72772037Y-30656627D01*
X72754641Y-30480000D01*
X72772037Y-30303373D01*
X72823557Y-30133534D01*
X72907222Y-29977009D01*
X72972457Y-29897520D01*
X73019814Y-29839814D01*
X73121271Y-29756552D01*
X73157009Y-29727222D01*
X73313534Y-29643557D01*
X73483373Y-29592037D01*
X73549557Y-29585519D01*
X73615740Y-29579000D01*
X73704260Y-29579000D01*
X73770443Y-29585519D01*
X73770443Y-29585519D01*
G37*
G36*
X25510443Y-29585519D02*
G01*
X25576627Y-29592037D01*
X25746466Y-29643557D01*
X25902991Y-29727222D01*
X25938729Y-29756552D01*
X26040186Y-29839814D01*
X26087543Y-29897520D01*
X26152778Y-29977009D01*
X26236443Y-30133534D01*
X26287963Y-30303373D01*
X26305359Y-30480000D01*
X26287963Y-30656627D01*
X26236443Y-30826466D01*
X26236442Y-30826468D01*
X26227552Y-30843100D01*
X26152778Y-30982991D01*
X26123448Y-31018729D01*
X26040186Y-31120186D01*
X25938729Y-31203448D01*
X25902991Y-31232778D01*
X25746466Y-31316443D01*
X25576627Y-31367963D01*
X25510443Y-31374481D01*
X25444260Y-31381000D01*
X25355740Y-31381000D01*
X25289557Y-31374481D01*
X25223373Y-31367963D01*
X25053534Y-31316443D01*
X24897009Y-31232778D01*
X24861271Y-31203448D01*
X24759814Y-31120186D01*
X24676552Y-31018729D01*
X24647222Y-30982991D01*
X24572448Y-30843100D01*
X24563558Y-30826468D01*
X24563557Y-30826466D01*
X24512037Y-30656627D01*
X24494641Y-30480000D01*
X24512037Y-30303373D01*
X24563557Y-30133534D01*
X24647222Y-29977009D01*
X24712457Y-29897520D01*
X24759814Y-29839814D01*
X24861271Y-29756552D01*
X24897009Y-29727222D01*
X25053534Y-29643557D01*
X25223373Y-29592037D01*
X25289557Y-29585519D01*
X25355740Y-29579000D01*
X25444260Y-29579000D01*
X25510443Y-29585519D01*
X25510443Y-29585519D01*
G37*
G36*
X56046823Y-29641313D02*
G01*
X56177380Y-29680917D01*
X56193651Y-29685853D01*
X56207242Y-29689976D01*
X56276922Y-29727221D01*
X56355078Y-29768996D01*
X56484659Y-29875341D01*
X56591004Y-30004922D01*
X56591005Y-30004924D01*
X56670024Y-30152758D01*
X56718687Y-30313177D01*
X56735117Y-30480000D01*
X56718687Y-30646823D01*
X56670024Y-30807242D01*
X56599114Y-30939906D01*
X56591004Y-30955078D01*
X56484659Y-31084659D01*
X56355078Y-31191004D01*
X56355076Y-31191005D01*
X56207242Y-31270024D01*
X56046823Y-31318687D01*
X55921804Y-31331000D01*
X55838196Y-31331000D01*
X55713177Y-31318687D01*
X55552758Y-31270024D01*
X55404924Y-31191005D01*
X55404922Y-31191004D01*
X55275341Y-31084659D01*
X55168996Y-30955078D01*
X55160886Y-30939906D01*
X55089976Y-30807242D01*
X55041313Y-30646823D01*
X55024883Y-30480000D01*
X55041313Y-30313177D01*
X55089976Y-30152758D01*
X55168995Y-30004924D01*
X55168996Y-30004922D01*
X55275341Y-29875341D01*
X55404922Y-29768996D01*
X55483078Y-29727221D01*
X55552758Y-29689976D01*
X55566350Y-29685853D01*
X55582620Y-29680917D01*
X55713177Y-29641313D01*
X55838196Y-29629000D01*
X55921804Y-29629000D01*
X56046823Y-29641313D01*
X56046823Y-29641313D01*
G37*
G36*
X48426823Y-29641313D02*
G01*
X48557380Y-29680917D01*
X48573651Y-29685853D01*
X48587242Y-29689976D01*
X48656922Y-29727221D01*
X48735078Y-29768996D01*
X48864659Y-29875341D01*
X48971004Y-30004922D01*
X48971005Y-30004924D01*
X49050024Y-30152758D01*
X49098687Y-30313177D01*
X49115117Y-30480000D01*
X49098687Y-30646823D01*
X49050024Y-30807242D01*
X48979114Y-30939906D01*
X48971004Y-30955078D01*
X48864659Y-31084659D01*
X48735078Y-31191004D01*
X48735076Y-31191005D01*
X48587242Y-31270024D01*
X48426823Y-31318687D01*
X48301804Y-31331000D01*
X48218196Y-31331000D01*
X48093177Y-31318687D01*
X47932758Y-31270024D01*
X47784924Y-31191005D01*
X47784922Y-31191004D01*
X47655341Y-31084659D01*
X47548996Y-30955078D01*
X47540886Y-30939906D01*
X47469976Y-30807242D01*
X47421313Y-30646823D01*
X47404883Y-30480000D01*
X47421313Y-30313177D01*
X47469976Y-30152758D01*
X47548995Y-30004924D01*
X47548996Y-30004922D01*
X47655341Y-29875341D01*
X47784922Y-29768996D01*
X47863078Y-29727221D01*
X47932758Y-29689976D01*
X47946350Y-29685853D01*
X47962620Y-29680917D01*
X48093177Y-29641313D01*
X48218196Y-29629000D01*
X48301804Y-29629000D01*
X48426823Y-29641313D01*
X48426823Y-29641313D01*
G37*
G36*
X43428228Y-29621703D02*
G01*
X43583100Y-29685853D01*
X43722481Y-29778985D01*
X43841015Y-29897519D01*
X43934147Y-30036900D01*
X43998297Y-30191772D01*
X44031000Y-30356184D01*
X44031000Y-30523816D01*
X43998297Y-30688228D01*
X43934147Y-30843100D01*
X43841015Y-30982481D01*
X43722481Y-31101015D01*
X43583100Y-31194147D01*
X43428228Y-31258297D01*
X43263816Y-31291000D01*
X43096184Y-31291000D01*
X42931772Y-31258297D01*
X42776900Y-31194147D01*
X42637519Y-31101015D01*
X42518985Y-30982481D01*
X42425853Y-30843100D01*
X42361703Y-30688228D01*
X42329000Y-30523816D01*
X42329000Y-30356184D01*
X42361703Y-30191772D01*
X42425853Y-30036900D01*
X42518985Y-29897519D01*
X42637519Y-29778985D01*
X42776900Y-29685853D01*
X42931772Y-29621703D01*
X43096184Y-29589000D01*
X43263816Y-29589000D01*
X43428228Y-29621703D01*
X43428228Y-29621703D01*
G37*
G36*
X35935256Y-27601298D02*
G01*
X36041579Y-27622447D01*
X36342042Y-27746903D01*
X36612451Y-27927585D01*
X36842415Y-28157549D01*
X37023097Y-28427958D01*
X37147553Y-28728421D01*
X37211000Y-29047391D01*
X37211000Y-29372609D01*
X37147553Y-29691579D01*
X37023097Y-29992042D01*
X36842415Y-30262451D01*
X36612451Y-30492415D01*
X36342042Y-30673097D01*
X36041579Y-30797553D01*
X35992884Y-30807239D01*
X35722611Y-30861000D01*
X35397389Y-30861000D01*
X35127116Y-30807239D01*
X35078421Y-30797553D01*
X34777958Y-30673097D01*
X34507549Y-30492415D01*
X34277585Y-30262451D01*
X34096903Y-29992042D01*
X33972447Y-29691579D01*
X33909000Y-29372609D01*
X33909000Y-29047391D01*
X33972447Y-28728421D01*
X34096903Y-28427958D01*
X34277585Y-28157549D01*
X34507549Y-27927585D01*
X34777958Y-27746903D01*
X35078421Y-27622447D01*
X35184744Y-27601298D01*
X35397389Y-27559000D01*
X35722611Y-27559000D01*
X35935256Y-27601298D01*
X35935256Y-27601298D01*
G37*
G36*
X79641000Y-28841000D02*
G01*
X77839000Y-28841000D01*
X77839000Y-27039000D01*
X79641000Y-27039000D01*
X79641000Y-28841000D01*
X79641000Y-28841000D01*
G37*
G36*
X25510443Y-27045519D02*
G01*
X25576627Y-27052037D01*
X25746466Y-27103557D01*
X25902991Y-27187222D01*
X25938729Y-27216552D01*
X26040186Y-27299814D01*
X26123448Y-27401271D01*
X26152778Y-27437009D01*
X26236443Y-27593534D01*
X26287963Y-27763373D01*
X26305359Y-27940000D01*
X26287963Y-28116627D01*
X26236443Y-28286466D01*
X26152778Y-28442991D01*
X26123448Y-28478729D01*
X26040186Y-28580186D01*
X25938729Y-28663448D01*
X25902991Y-28692778D01*
X25746466Y-28776443D01*
X25576627Y-28827963D01*
X25510442Y-28834482D01*
X25444260Y-28841000D01*
X25355740Y-28841000D01*
X25289558Y-28834482D01*
X25223373Y-28827963D01*
X25053534Y-28776443D01*
X24897009Y-28692778D01*
X24861271Y-28663448D01*
X24759814Y-28580186D01*
X24676552Y-28478729D01*
X24647222Y-28442991D01*
X24563557Y-28286466D01*
X24512037Y-28116627D01*
X24494641Y-27940000D01*
X24512037Y-27763373D01*
X24563557Y-27593534D01*
X24647222Y-27437009D01*
X24676552Y-27401271D01*
X24759814Y-27299814D01*
X24861271Y-27216552D01*
X24897009Y-27187222D01*
X25053534Y-27103557D01*
X25223373Y-27052037D01*
X25289557Y-27045519D01*
X25355740Y-27039000D01*
X25444260Y-27039000D01*
X25510443Y-27045519D01*
X25510443Y-27045519D01*
G37*
G36*
X74561000Y-28841000D02*
G01*
X72759000Y-28841000D01*
X72759000Y-27039000D01*
X74561000Y-27039000D01*
X74561000Y-28841000D01*
X74561000Y-28841000D01*
G37*
G36*
X44031000Y-28791000D02*
G01*
X42329000Y-28791000D01*
X42329000Y-27089000D01*
X44031000Y-27089000D01*
X44031000Y-28791000D01*
X44031000Y-28791000D01*
G37*
G36*
X56046823Y-27101313D02*
G01*
X56207242Y-27149976D01*
X56276922Y-27187221D01*
X56355078Y-27228996D01*
X56484659Y-27335341D01*
X56591004Y-27464922D01*
X56591005Y-27464924D01*
X56670024Y-27612758D01*
X56718687Y-27773177D01*
X56735117Y-27940000D01*
X56718687Y-28106823D01*
X56670024Y-28267242D01*
X56659747Y-28286468D01*
X56591004Y-28415078D01*
X56484659Y-28544659D01*
X56355078Y-28651004D01*
X56355076Y-28651005D01*
X56207242Y-28730024D01*
X56046823Y-28778687D01*
X55921804Y-28791000D01*
X55838196Y-28791000D01*
X55713177Y-28778687D01*
X55552758Y-28730024D01*
X55404924Y-28651005D01*
X55404922Y-28651004D01*
X55275341Y-28544659D01*
X55168996Y-28415078D01*
X55100253Y-28286468D01*
X55089976Y-28267242D01*
X55041313Y-28106823D01*
X55024883Y-27940000D01*
X55041313Y-27773177D01*
X55089976Y-27612758D01*
X55168995Y-27464924D01*
X55168996Y-27464922D01*
X55275341Y-27335341D01*
X55404922Y-27228996D01*
X55483078Y-27187221D01*
X55552758Y-27149976D01*
X55713177Y-27101313D01*
X55838196Y-27089000D01*
X55921804Y-27089000D01*
X56046823Y-27101313D01*
X56046823Y-27101313D01*
G37*
G36*
X48426823Y-27101313D02*
G01*
X48587242Y-27149976D01*
X48656922Y-27187221D01*
X48735078Y-27228996D01*
X48864659Y-27335341D01*
X48971004Y-27464922D01*
X48971005Y-27464924D01*
X49050024Y-27612758D01*
X49098687Y-27773177D01*
X49115117Y-27940000D01*
X49098687Y-28106823D01*
X49050024Y-28267242D01*
X49039747Y-28286468D01*
X48971004Y-28415078D01*
X48864659Y-28544659D01*
X48735078Y-28651004D01*
X48735076Y-28651005D01*
X48587242Y-28730024D01*
X48426823Y-28778687D01*
X48301804Y-28791000D01*
X48218196Y-28791000D01*
X48093177Y-28778687D01*
X47932758Y-28730024D01*
X47784924Y-28651005D01*
X47784922Y-28651004D01*
X47655341Y-28544659D01*
X47548996Y-28415078D01*
X47480253Y-28286468D01*
X47469976Y-28267242D01*
X47421313Y-28106823D01*
X47404883Y-27940000D01*
X47421313Y-27773177D01*
X47469976Y-27612758D01*
X47548995Y-27464924D01*
X47548996Y-27464922D01*
X47655341Y-27335341D01*
X47784922Y-27228996D01*
X47863078Y-27187221D01*
X47932758Y-27149976D01*
X48093177Y-27101313D01*
X48218196Y-27089000D01*
X48301804Y-27089000D01*
X48426823Y-27101313D01*
X48426823Y-27101313D01*
G37*
G36*
X65766564Y-25509389D02*
G01*
X65957833Y-25588615D01*
X65957835Y-25588616D01*
X66129973Y-25703635D01*
X66276365Y-25850027D01*
X66391385Y-26022167D01*
X66470611Y-26213436D01*
X66511000Y-26416484D01*
X66511000Y-26623516D01*
X66470611Y-26826564D01*
X66391385Y-27017833D01*
X66391384Y-27017835D01*
X66276365Y-27189973D01*
X66129973Y-27336365D01*
X65957835Y-27451384D01*
X65957834Y-27451385D01*
X65957833Y-27451385D01*
X65766564Y-27530611D01*
X65563516Y-27571000D01*
X65356484Y-27571000D01*
X65153436Y-27530611D01*
X64962167Y-27451385D01*
X64962166Y-27451385D01*
X64962165Y-27451384D01*
X64790027Y-27336365D01*
X64643635Y-27189973D01*
X64528616Y-27017835D01*
X64528615Y-27017833D01*
X64449389Y-26826564D01*
X64409000Y-26623516D01*
X64409000Y-26416484D01*
X64449389Y-26213436D01*
X64528615Y-26022167D01*
X64643635Y-25850027D01*
X64790027Y-25703635D01*
X64962165Y-25588616D01*
X64962167Y-25588615D01*
X65153436Y-25509389D01*
X65356484Y-25469000D01*
X65563516Y-25469000D01*
X65766564Y-25509389D01*
X65766564Y-25509389D01*
G37*
G36*
X61266564Y-25509389D02*
G01*
X61457833Y-25588615D01*
X61457835Y-25588616D01*
X61629973Y-25703635D01*
X61776365Y-25850027D01*
X61891385Y-26022167D01*
X61970611Y-26213436D01*
X62011000Y-26416484D01*
X62011000Y-26623516D01*
X61970611Y-26826564D01*
X61891385Y-27017833D01*
X61891384Y-27017835D01*
X61776365Y-27189973D01*
X61629973Y-27336365D01*
X61457835Y-27451384D01*
X61457834Y-27451385D01*
X61457833Y-27451385D01*
X61266564Y-27530611D01*
X61063516Y-27571000D01*
X60856484Y-27571000D01*
X60653436Y-27530611D01*
X60462167Y-27451385D01*
X60462166Y-27451385D01*
X60462165Y-27451384D01*
X60290027Y-27336365D01*
X60143635Y-27189973D01*
X60028616Y-27017835D01*
X60028615Y-27017833D01*
X59949389Y-26826564D01*
X59909000Y-26623516D01*
X59909000Y-26416484D01*
X59949389Y-26213436D01*
X60028615Y-26022167D01*
X60143635Y-25850027D01*
X60290027Y-25703635D01*
X60462165Y-25588616D01*
X60462167Y-25588615D01*
X60653436Y-25509389D01*
X60856484Y-25469000D01*
X61063516Y-25469000D01*
X61266564Y-25509389D01*
X61266564Y-25509389D01*
G37*
G36*
X56046823Y-24561313D02*
G01*
X56207242Y-24609976D01*
X56339906Y-24680886D01*
X56355078Y-24688996D01*
X56484659Y-24795341D01*
X56591004Y-24924922D01*
X56591005Y-24924924D01*
X56670024Y-25072758D01*
X56718687Y-25233177D01*
X56735117Y-25400000D01*
X56718687Y-25566823D01*
X56670024Y-25727242D01*
X56604394Y-25850027D01*
X56591004Y-25875078D01*
X56484659Y-26004659D01*
X56355078Y-26111004D01*
X56355076Y-26111005D01*
X56207242Y-26190024D01*
X56046823Y-26238687D01*
X55921804Y-26251000D01*
X55838196Y-26251000D01*
X55713177Y-26238687D01*
X55552758Y-26190024D01*
X55404924Y-26111005D01*
X55404922Y-26111004D01*
X55275341Y-26004659D01*
X55168996Y-25875078D01*
X55155606Y-25850027D01*
X55089976Y-25727242D01*
X55041313Y-25566823D01*
X55024883Y-25400000D01*
X55041313Y-25233177D01*
X55089976Y-25072758D01*
X55168995Y-24924924D01*
X55168996Y-24924922D01*
X55275341Y-24795341D01*
X55404922Y-24688996D01*
X55420094Y-24680886D01*
X55552758Y-24609976D01*
X55713177Y-24561313D01*
X55838196Y-24549000D01*
X55921804Y-24549000D01*
X56046823Y-24561313D01*
X56046823Y-24561313D01*
G37*
G36*
X49111000Y-26251000D02*
G01*
X47409000Y-26251000D01*
X47409000Y-24549000D01*
X49111000Y-24549000D01*
X49111000Y-26251000D01*
X49111000Y-26251000D01*
G37*
M02*
