G04 #@! TF.GenerationSoftware,KiCad,Pcbnew,(5.1.0)-1*
G04 #@! TF.CreationDate,2019-04-02T22:03:43+02:00*
G04 #@! TF.ProjectId,UV_Meter,55565f4d-6574-4657-922e-6b696361645f,rev?*
G04 #@! TF.SameCoordinates,Original*
G04 #@! TF.FileFunction,Legend,Top*
G04 #@! TF.FilePolarity,Positive*
%FSLAX46Y46*%
G04 Gerber Fmt 4.6, Leading zero omitted, Abs format (unit mm)*
G04 Created by KiCad (PCBNEW (5.1.0)-1) date 2019-04-02 22:03:43*
%MOMM*%
%LPD*%
G04 APERTURE LIST*
%ADD10C,0.120000*%
%ADD11C,0.150000*%
G04 APERTURE END LIST*
D10*
X45210000Y-23967221D02*
X45210000Y-24292779D01*
X46230000Y-23967221D02*
X46230000Y-24292779D01*
X25400000Y-34350000D02*
X24070000Y-34350000D01*
X24070000Y-34350000D02*
X24070000Y-33020000D01*
X24070000Y-31750000D02*
X24070000Y-26610000D01*
X26730000Y-26610000D02*
X24070000Y-26610000D01*
X26730000Y-31750000D02*
X26730000Y-26610000D01*
X26730000Y-31750000D02*
X24070000Y-31750000D01*
X45730000Y-25422789D02*
X44980000Y-25422789D01*
X45355000Y-25047789D02*
X45355000Y-25797789D01*
X43621000Y-33031000D02*
X42739000Y-33031000D01*
X43873000Y-32991000D02*
X42487000Y-32991000D01*
X44057000Y-32951000D02*
X42303000Y-32951000D01*
X44208000Y-32911000D02*
X42152000Y-32911000D01*
X44338000Y-32871000D02*
X42022000Y-32871000D01*
X44455000Y-32831000D02*
X41905000Y-32831000D01*
X44561000Y-32791000D02*
X41799000Y-32791000D01*
X44658000Y-32751000D02*
X41702000Y-32751000D01*
X44749000Y-32711000D02*
X41611000Y-32711000D01*
X44834000Y-32671000D02*
X41526000Y-32671000D01*
X44913000Y-32631000D02*
X41447000Y-32631000D01*
X44989000Y-32591000D02*
X41371000Y-32591000D01*
X45061000Y-32551000D02*
X41299000Y-32551000D01*
X45129000Y-32511000D02*
X41231000Y-32511000D01*
X45194000Y-32471000D02*
X41166000Y-32471000D01*
X45257000Y-32431000D02*
X41103000Y-32431000D01*
X45317000Y-32391000D02*
X41043000Y-32391000D01*
X45375000Y-32351000D02*
X40985000Y-32351000D01*
X45430000Y-32311000D02*
X40930000Y-32311000D01*
X45484000Y-32271000D02*
X40876000Y-32271000D01*
X45535000Y-32231000D02*
X40825000Y-32231000D01*
X45585000Y-32191000D02*
X40775000Y-32191000D01*
X45634000Y-32151000D02*
X40726000Y-32151000D01*
X45680000Y-32111000D02*
X40680000Y-32111000D01*
X45726000Y-32071000D02*
X40634000Y-32071000D01*
X45769000Y-32031000D02*
X40591000Y-32031000D01*
X45812000Y-31991000D02*
X40548000Y-31991000D01*
X45853000Y-31951000D02*
X40507000Y-31951000D01*
X45893000Y-31911000D02*
X40467000Y-31911000D01*
X45932000Y-31871000D02*
X40428000Y-31871000D01*
X45970000Y-31831000D02*
X40390000Y-31831000D01*
X46007000Y-31791000D02*
X40353000Y-31791000D01*
X46043000Y-31751000D02*
X40317000Y-31751000D01*
X46078000Y-31711000D02*
X40282000Y-31711000D01*
X46111000Y-31671000D02*
X40249000Y-31671000D01*
X46144000Y-31631000D02*
X40216000Y-31631000D01*
X46176000Y-31591000D02*
X40184000Y-31591000D01*
X46208000Y-31551000D02*
X40152000Y-31551000D01*
X46238000Y-31511000D02*
X40122000Y-31511000D01*
X42140000Y-31471000D02*
X40092000Y-31471000D01*
X46268000Y-31471000D02*
X44220000Y-31471000D01*
X42140000Y-31431000D02*
X40064000Y-31431000D01*
X46296000Y-31431000D02*
X44220000Y-31431000D01*
X42140000Y-31391000D02*
X40036000Y-31391000D01*
X46324000Y-31391000D02*
X44220000Y-31391000D01*
X42140000Y-31351000D02*
X40008000Y-31351000D01*
X46352000Y-31351000D02*
X44220000Y-31351000D01*
X42140000Y-31311000D02*
X39982000Y-31311000D01*
X46378000Y-31311000D02*
X44220000Y-31311000D01*
X42140000Y-31271000D02*
X39956000Y-31271000D01*
X46404000Y-31271000D02*
X44220000Y-31271000D01*
X42140000Y-31231000D02*
X39931000Y-31231000D01*
X46429000Y-31231000D02*
X44220000Y-31231000D01*
X42140000Y-31191000D02*
X39906000Y-31191000D01*
X46454000Y-31191000D02*
X44220000Y-31191000D01*
X42140000Y-31151000D02*
X39883000Y-31151000D01*
X46477000Y-31151000D02*
X44220000Y-31151000D01*
X42140000Y-31111000D02*
X39859000Y-31111000D01*
X46501000Y-31111000D02*
X44220000Y-31111000D01*
X42140000Y-31071000D02*
X39837000Y-31071000D01*
X46523000Y-31071000D02*
X44220000Y-31071000D01*
X42140000Y-31031000D02*
X39815000Y-31031000D01*
X46545000Y-31031000D02*
X44220000Y-31031000D01*
X42140000Y-30991000D02*
X39794000Y-30991000D01*
X46566000Y-30991000D02*
X44220000Y-30991000D01*
X42140000Y-30951000D02*
X39773000Y-30951000D01*
X46587000Y-30951000D02*
X44220000Y-30951000D01*
X42140000Y-30911000D02*
X39753000Y-30911000D01*
X46607000Y-30911000D02*
X44220000Y-30911000D01*
X42140000Y-30871000D02*
X39733000Y-30871000D01*
X46627000Y-30871000D02*
X44220000Y-30871000D01*
X42140000Y-30831000D02*
X39714000Y-30831000D01*
X46646000Y-30831000D02*
X44220000Y-30831000D01*
X42140000Y-30791000D02*
X39696000Y-30791000D01*
X46664000Y-30791000D02*
X44220000Y-30791000D01*
X42140000Y-30751000D02*
X39678000Y-30751000D01*
X46682000Y-30751000D02*
X44220000Y-30751000D01*
X42140000Y-30711000D02*
X39660000Y-30711000D01*
X46700000Y-30711000D02*
X44220000Y-30711000D01*
X42140000Y-30671000D02*
X39644000Y-30671000D01*
X46716000Y-30671000D02*
X44220000Y-30671000D01*
X42140000Y-30631000D02*
X39627000Y-30631000D01*
X46733000Y-30631000D02*
X44220000Y-30631000D01*
X42140000Y-30591000D02*
X39612000Y-30591000D01*
X46748000Y-30591000D02*
X44220000Y-30591000D01*
X42140000Y-30551000D02*
X39596000Y-30551000D01*
X46764000Y-30551000D02*
X44220000Y-30551000D01*
X42140000Y-30511000D02*
X39582000Y-30511000D01*
X46778000Y-30511000D02*
X44220000Y-30511000D01*
X42140000Y-30471000D02*
X39567000Y-30471000D01*
X46793000Y-30471000D02*
X44220000Y-30471000D01*
X42140000Y-30431000D02*
X39554000Y-30431000D01*
X46806000Y-30431000D02*
X44220000Y-30431000D01*
X42140000Y-30391000D02*
X39540000Y-30391000D01*
X46820000Y-30391000D02*
X44220000Y-30391000D01*
X42140000Y-30351000D02*
X39527000Y-30351000D01*
X46833000Y-30351000D02*
X44220000Y-30351000D01*
X42140000Y-30311000D02*
X39515000Y-30311000D01*
X46845000Y-30311000D02*
X44220000Y-30311000D01*
X42140000Y-30271000D02*
X39503000Y-30271000D01*
X46857000Y-30271000D02*
X44220000Y-30271000D01*
X42140000Y-30231000D02*
X39492000Y-30231000D01*
X46868000Y-30231000D02*
X44220000Y-30231000D01*
X42140000Y-30191000D02*
X39481000Y-30191000D01*
X46879000Y-30191000D02*
X44220000Y-30191000D01*
X42140000Y-30151000D02*
X39470000Y-30151000D01*
X46890000Y-30151000D02*
X44220000Y-30151000D01*
X42140000Y-30111000D02*
X39460000Y-30111000D01*
X46900000Y-30111000D02*
X44220000Y-30111000D01*
X42140000Y-30071000D02*
X39451000Y-30071000D01*
X46909000Y-30071000D02*
X44220000Y-30071000D01*
X42140000Y-30031000D02*
X39442000Y-30031000D01*
X46918000Y-30031000D02*
X44220000Y-30031000D01*
X42140000Y-29991000D02*
X39433000Y-29991000D01*
X46927000Y-29991000D02*
X44220000Y-29991000D01*
X42140000Y-29951000D02*
X39425000Y-29951000D01*
X46935000Y-29951000D02*
X44220000Y-29951000D01*
X42140000Y-29911000D02*
X39417000Y-29911000D01*
X46943000Y-29911000D02*
X44220000Y-29911000D01*
X42140000Y-29870000D02*
X39410000Y-29870000D01*
X46950000Y-29870000D02*
X44220000Y-29870000D01*
X42140000Y-29830000D02*
X39403000Y-29830000D01*
X46957000Y-29830000D02*
X44220000Y-29830000D01*
X42140000Y-29790000D02*
X39396000Y-29790000D01*
X46964000Y-29790000D02*
X44220000Y-29790000D01*
X42140000Y-29750000D02*
X39390000Y-29750000D01*
X46970000Y-29750000D02*
X44220000Y-29750000D01*
X42140000Y-29710000D02*
X39385000Y-29710000D01*
X46975000Y-29710000D02*
X44220000Y-29710000D01*
X42140000Y-29670000D02*
X39379000Y-29670000D01*
X46981000Y-29670000D02*
X44220000Y-29670000D01*
X42140000Y-29630000D02*
X39375000Y-29630000D01*
X46985000Y-29630000D02*
X44220000Y-29630000D01*
X42140000Y-29590000D02*
X39370000Y-29590000D01*
X46990000Y-29590000D02*
X44220000Y-29590000D01*
X42140000Y-29550000D02*
X39366000Y-29550000D01*
X46994000Y-29550000D02*
X44220000Y-29550000D01*
X42140000Y-29510000D02*
X39363000Y-29510000D01*
X46997000Y-29510000D02*
X44220000Y-29510000D01*
X42140000Y-29470000D02*
X39360000Y-29470000D01*
X47000000Y-29470000D02*
X44220000Y-29470000D01*
X42140000Y-29430000D02*
X39357000Y-29430000D01*
X47003000Y-29430000D02*
X44220000Y-29430000D01*
X47005000Y-29390000D02*
X39355000Y-29390000D01*
X47007000Y-29350000D02*
X39353000Y-29350000D01*
X47009000Y-29310000D02*
X39351000Y-29310000D01*
X47010000Y-29270000D02*
X39350000Y-29270000D01*
X47010000Y-29230000D02*
X39350000Y-29230000D01*
X47010000Y-29190000D02*
X39350000Y-29190000D01*
X47050000Y-29190000D02*
G75*
G03X47050000Y-29190000I-3870000J0D01*
G01*
X72330000Y-26610000D02*
X73660000Y-26610000D01*
X72330000Y-27940000D02*
X72330000Y-26610000D01*
X72330000Y-29210000D02*
X74990000Y-29210000D01*
X74990000Y-29210000D02*
X74990000Y-31810000D01*
X72330000Y-29210000D02*
X72330000Y-31810000D01*
X72330000Y-31810000D02*
X74990000Y-31810000D01*
X75597936Y-23770000D02*
X76802064Y-23770000D01*
X75597936Y-21950000D02*
X76802064Y-21950000D01*
X54720000Y-24070000D02*
X53070000Y-24070000D01*
X54720000Y-34350000D02*
X54720000Y-24070000D01*
X49420000Y-34350000D02*
X54720000Y-34350000D01*
X49420000Y-24070000D02*
X49420000Y-34350000D01*
X51070000Y-24070000D02*
X49420000Y-24070000D01*
X53070000Y-24070000D02*
G75*
G02X51070000Y-24070000I-1000000J0D01*
G01*
X63960000Y-26270000D02*
X62460000Y-26270000D01*
X59960000Y-27520000D02*
X59960000Y-32020000D01*
X62460000Y-33270000D02*
X63960000Y-33270000D01*
X66460000Y-32020000D02*
X66460000Y-27520000D01*
X68417221Y-30990000D02*
X68742779Y-30990000D01*
X68417221Y-29970000D02*
X68742779Y-29970000D01*
D11*
X34798095Y-25912380D02*
X34798095Y-24912380D01*
X34798095Y-25388571D02*
X35369523Y-25388571D01*
X35369523Y-25912380D02*
X35369523Y-24912380D01*
X36369523Y-25912380D02*
X35798095Y-25912380D01*
X36083809Y-25912380D02*
X36083809Y-24912380D01*
X35988571Y-25055238D01*
X35893333Y-25150476D01*
X35798095Y-25198095D01*
X47602380Y-26534761D02*
X47126190Y-26868095D01*
X47602380Y-27106190D02*
X46602380Y-27106190D01*
X46602380Y-26725238D01*
X46650000Y-26630000D01*
X46697619Y-26582380D01*
X46792857Y-26534761D01*
X46935714Y-26534761D01*
X47030952Y-26582380D01*
X47078571Y-26630000D01*
X47126190Y-26725238D01*
X47126190Y-27106190D01*
X47697619Y-26344285D02*
X47697619Y-25582380D01*
X47602380Y-25344285D02*
X46935714Y-25344285D01*
X47126190Y-25344285D02*
X47030952Y-25296666D01*
X46983333Y-25249047D01*
X46935714Y-25153809D01*
X46935714Y-25058571D01*
X47554761Y-24344285D02*
X47602380Y-24439523D01*
X47602380Y-24630000D01*
X47554761Y-24725238D01*
X47459523Y-24772857D01*
X47078571Y-24772857D01*
X46983333Y-24725238D01*
X46935714Y-24630000D01*
X46935714Y-24439523D01*
X46983333Y-24344285D01*
X47078571Y-24296666D01*
X47173809Y-24296666D01*
X47269047Y-24772857D01*
X47554761Y-23915714D02*
X47602380Y-23820476D01*
X47602380Y-23630000D01*
X47554761Y-23534761D01*
X47459523Y-23487142D01*
X47411904Y-23487142D01*
X47316666Y-23534761D01*
X47269047Y-23630000D01*
X47269047Y-23772857D01*
X47221428Y-23868095D01*
X47126190Y-23915714D01*
X47078571Y-23915714D01*
X46983333Y-23868095D01*
X46935714Y-23772857D01*
X46935714Y-23630000D01*
X46983333Y-23534761D01*
X47554761Y-22677619D02*
X47602380Y-22772857D01*
X47602380Y-22963333D01*
X47554761Y-23058571D01*
X47459523Y-23106190D01*
X47078571Y-23106190D01*
X46983333Y-23058571D01*
X46935714Y-22963333D01*
X46935714Y-22772857D01*
X46983333Y-22677619D01*
X47078571Y-22630000D01*
X47173809Y-22630000D01*
X47269047Y-23106190D01*
X46935714Y-22344285D02*
X46935714Y-21963333D01*
X46602380Y-22201428D02*
X47459523Y-22201428D01*
X47554761Y-22153809D01*
X47602380Y-22058571D01*
X47602380Y-21963333D01*
X47602380Y-21106190D02*
X47602380Y-21677619D01*
X47602380Y-21391904D02*
X46602380Y-21391904D01*
X46745238Y-21487142D01*
X46840476Y-21582380D01*
X46888095Y-21677619D01*
X23090476Y-35956666D02*
X23566666Y-35956666D01*
X22995238Y-36242380D02*
X23328571Y-35242380D01*
X23661904Y-36242380D01*
X24423809Y-35575714D02*
X24423809Y-36242380D01*
X23995238Y-35575714D02*
X23995238Y-36099523D01*
X24042857Y-36194761D01*
X24138095Y-36242380D01*
X24280952Y-36242380D01*
X24376190Y-36194761D01*
X24423809Y-36147142D01*
X25328571Y-36242380D02*
X25328571Y-35242380D01*
X25328571Y-36194761D02*
X25233333Y-36242380D01*
X25042857Y-36242380D01*
X24947619Y-36194761D01*
X24900000Y-36147142D01*
X24852380Y-36051904D01*
X24852380Y-35766190D01*
X24900000Y-35670952D01*
X24947619Y-35623333D01*
X25042857Y-35575714D01*
X25233333Y-35575714D01*
X25328571Y-35623333D01*
X25804761Y-36242380D02*
X25804761Y-35575714D01*
X25804761Y-35242380D02*
X25757142Y-35290000D01*
X25804761Y-35337619D01*
X25852380Y-35290000D01*
X25804761Y-35242380D01*
X25804761Y-35337619D01*
X26423809Y-36242380D02*
X26328571Y-36194761D01*
X26280952Y-36147142D01*
X26233333Y-36051904D01*
X26233333Y-35766190D01*
X26280952Y-35670952D01*
X26328571Y-35623333D01*
X26423809Y-35575714D01*
X26566666Y-35575714D01*
X26661904Y-35623333D01*
X26709523Y-35670952D01*
X26757142Y-35766190D01*
X26757142Y-36051904D01*
X26709523Y-36147142D01*
X26661904Y-36194761D01*
X26566666Y-36242380D01*
X26423809Y-36242380D01*
X27709523Y-36242380D02*
X27138095Y-36242380D01*
X27423809Y-36242380D02*
X27423809Y-35242380D01*
X27328571Y-35385238D01*
X27233333Y-35480476D01*
X27138095Y-35528095D01*
X48537142Y-29356666D02*
X48584761Y-29404285D01*
X48632380Y-29547142D01*
X48632380Y-29642380D01*
X48584761Y-29785238D01*
X48489523Y-29880476D01*
X48394285Y-29928095D01*
X48203809Y-29975714D01*
X48060952Y-29975714D01*
X47870476Y-29928095D01*
X47775238Y-29880476D01*
X47680000Y-29785238D01*
X47632380Y-29642380D01*
X47632380Y-29547142D01*
X47680000Y-29404285D01*
X47727619Y-29356666D01*
X48632380Y-28404285D02*
X48632380Y-28975714D01*
X48632380Y-28690000D02*
X47632380Y-28690000D01*
X47775238Y-28785238D01*
X47870476Y-28880476D01*
X47918095Y-28975714D01*
X71850476Y-26062380D02*
X71850476Y-25062380D01*
X72231428Y-25062380D01*
X72326666Y-25110000D01*
X72374285Y-25157619D01*
X72421904Y-25252857D01*
X72421904Y-25395714D01*
X72374285Y-25490952D01*
X72326666Y-25538571D01*
X72231428Y-25586190D01*
X71850476Y-25586190D01*
X72755238Y-25062380D02*
X72993333Y-26062380D01*
X73183809Y-25348095D01*
X73374285Y-26062380D01*
X73612380Y-25062380D01*
X74564761Y-26062380D02*
X74231428Y-25586190D01*
X73993333Y-26062380D02*
X73993333Y-25062380D01*
X74374285Y-25062380D01*
X74469523Y-25110000D01*
X74517142Y-25157619D01*
X74564761Y-25252857D01*
X74564761Y-25395714D01*
X74517142Y-25490952D01*
X74469523Y-25538571D01*
X74374285Y-25586190D01*
X73993333Y-25586190D01*
X75517142Y-26062380D02*
X74945714Y-26062380D01*
X75231428Y-26062380D02*
X75231428Y-25062380D01*
X75136190Y-25205238D01*
X75040952Y-25300476D01*
X74945714Y-25348095D01*
X74128571Y-20968571D02*
X73795238Y-20968571D01*
X73795238Y-21492380D02*
X73795238Y-20492380D01*
X74271428Y-20492380D01*
X74414285Y-21587619D02*
X75176190Y-21587619D01*
X75890476Y-21492380D02*
X75414285Y-21492380D01*
X75414285Y-20492380D01*
X76223809Y-20968571D02*
X76557142Y-20968571D01*
X76700000Y-21492380D02*
X76223809Y-21492380D01*
X76223809Y-20492380D01*
X76700000Y-20492380D01*
X77128571Y-21492380D02*
X77128571Y-20492380D01*
X77366666Y-20492380D01*
X77509523Y-20540000D01*
X77604761Y-20635238D01*
X77652380Y-20730476D01*
X77700000Y-20920952D01*
X77700000Y-21063809D01*
X77652380Y-21254285D01*
X77604761Y-21349523D01*
X77509523Y-21444761D01*
X77366666Y-21492380D01*
X77128571Y-21492380D01*
X78652380Y-21492380D02*
X78080952Y-21492380D01*
X78366666Y-21492380D02*
X78366666Y-20492380D01*
X78271428Y-20635238D01*
X78176190Y-20730476D01*
X78080952Y-20778095D01*
X51308095Y-22522380D02*
X51308095Y-23331904D01*
X51355714Y-23427142D01*
X51403333Y-23474761D01*
X51498571Y-23522380D01*
X51689047Y-23522380D01*
X51784285Y-23474761D01*
X51831904Y-23427142D01*
X51879523Y-23331904D01*
X51879523Y-22522380D01*
X52879523Y-23522380D02*
X52308095Y-23522380D01*
X52593809Y-23522380D02*
X52593809Y-22522380D01*
X52498571Y-22665238D01*
X52403333Y-22760476D01*
X52308095Y-22808095D01*
X59364761Y-31103333D02*
X59412380Y-30960476D01*
X59412380Y-30722380D01*
X59364761Y-30627142D01*
X59317142Y-30579523D01*
X59221904Y-30531904D01*
X59126666Y-30531904D01*
X59031428Y-30579523D01*
X58983809Y-30627142D01*
X58936190Y-30722380D01*
X58888571Y-30912857D01*
X58840952Y-31008095D01*
X58793333Y-31055714D01*
X58698095Y-31103333D01*
X58602857Y-31103333D01*
X58507619Y-31055714D01*
X58460000Y-31008095D01*
X58412380Y-30912857D01*
X58412380Y-30674761D01*
X58460000Y-30531904D01*
X58412380Y-30198571D02*
X59412380Y-29960476D01*
X58698095Y-29770000D01*
X59412380Y-29579523D01*
X58412380Y-29341428D01*
X59412380Y-28436666D02*
X59412380Y-29008095D01*
X59412380Y-28722380D02*
X58412380Y-28722380D01*
X58555238Y-28817619D01*
X58650476Y-28912857D01*
X58698095Y-29008095D01*
X66389523Y-29502380D02*
X66056190Y-29026190D01*
X65818095Y-29502380D02*
X65818095Y-28502380D01*
X66199047Y-28502380D01*
X66294285Y-28550000D01*
X66341904Y-28597619D01*
X66389523Y-28692857D01*
X66389523Y-28835714D01*
X66341904Y-28930952D01*
X66294285Y-28978571D01*
X66199047Y-29026190D01*
X65818095Y-29026190D01*
X66580000Y-29597619D02*
X67341904Y-29597619D01*
X68008571Y-29502380D02*
X68008571Y-28502380D01*
X68008571Y-29454761D02*
X67913333Y-29502380D01*
X67722857Y-29502380D01*
X67627619Y-29454761D01*
X67580000Y-29407142D01*
X67532380Y-29311904D01*
X67532380Y-29026190D01*
X67580000Y-28930952D01*
X67627619Y-28883333D01*
X67722857Y-28835714D01*
X67913333Y-28835714D01*
X68008571Y-28883333D01*
X68913333Y-29502380D02*
X68913333Y-28978571D01*
X68865714Y-28883333D01*
X68770476Y-28835714D01*
X68580000Y-28835714D01*
X68484761Y-28883333D01*
X68913333Y-29454761D02*
X68818095Y-29502380D01*
X68580000Y-29502380D01*
X68484761Y-29454761D01*
X68437142Y-29359523D01*
X68437142Y-29264285D01*
X68484761Y-29169047D01*
X68580000Y-29121428D01*
X68818095Y-29121428D01*
X68913333Y-29073809D01*
X69246666Y-28835714D02*
X69627619Y-28835714D01*
X69389523Y-28502380D02*
X69389523Y-29359523D01*
X69437142Y-29454761D01*
X69532380Y-29502380D01*
X69627619Y-29502380D01*
X70389523Y-29502380D02*
X70389523Y-28978571D01*
X70341904Y-28883333D01*
X70246666Y-28835714D01*
X70056190Y-28835714D01*
X69960952Y-28883333D01*
X70389523Y-29454761D02*
X70294285Y-29502380D01*
X70056190Y-29502380D01*
X69960952Y-29454761D01*
X69913333Y-29359523D01*
X69913333Y-29264285D01*
X69960952Y-29169047D01*
X70056190Y-29121428D01*
X70294285Y-29121428D01*
X70389523Y-29073809D01*
X71389523Y-29502380D02*
X70818095Y-29502380D01*
X71103809Y-29502380D02*
X71103809Y-28502380D01*
X71008571Y-28645238D01*
X70913333Y-28740476D01*
X70818095Y-28788095D01*
M02*
