G04 #@! TF.GenerationSoftware,KiCad,Pcbnew,(5.1.0)-1*
G04 #@! TF.CreationDate,2019-04-02T22:03:43+02:00*
G04 #@! TF.ProjectId,UV_Meter,55565f4d-6574-4657-922e-6b696361645f,rev?*
G04 #@! TF.SameCoordinates,Original*
G04 #@! TF.FileFunction,Copper,L1,Top*
G04 #@! TF.FilePolarity,Positive*
%FSLAX46Y46*%
G04 Gerber Fmt 4.6, Leading zero omitted, Abs format (unit mm)*
G04 Created by KiCad (PCBNEW (5.1.0)-1) date 2019-04-02 22:03:43*
%MOMM*%
%LPD*%
G04 APERTURE LIST*
%ADD10C,0.100000*%
%ADD11C,0.875000*%
%ADD12O,1.700000X1.700000*%
%ADD13R,1.700000X1.700000*%
%ADD14C,1.600000*%
%ADD15R,1.600000X1.600000*%
%ADD16C,1.250000*%
%ADD17O,1.600000X1.600000*%
%ADD18C,2.000000*%
%ADD19C,0.800000*%
%ADD20C,1.000000*%
%ADD21C,0.500000*%
G04 APERTURE END LIST*
D10*
G36*
X45997691Y-24481053D02*
G01*
X46018926Y-24484203D01*
X46039750Y-24489419D01*
X46059962Y-24496651D01*
X46079368Y-24505830D01*
X46097781Y-24516866D01*
X46115024Y-24529654D01*
X46130930Y-24544070D01*
X46145346Y-24559976D01*
X46158134Y-24577219D01*
X46169170Y-24595632D01*
X46178349Y-24615038D01*
X46185581Y-24635250D01*
X46190797Y-24656074D01*
X46193947Y-24677309D01*
X46195000Y-24698750D01*
X46195000Y-25136250D01*
X46193947Y-25157691D01*
X46190797Y-25178926D01*
X46185581Y-25199750D01*
X46178349Y-25219962D01*
X46169170Y-25239368D01*
X46158134Y-25257781D01*
X46145346Y-25275024D01*
X46130930Y-25290930D01*
X46115024Y-25305346D01*
X46097781Y-25318134D01*
X46079368Y-25329170D01*
X46059962Y-25338349D01*
X46039750Y-25345581D01*
X46018926Y-25350797D01*
X45997691Y-25353947D01*
X45976250Y-25355000D01*
X45463750Y-25355000D01*
X45442309Y-25353947D01*
X45421074Y-25350797D01*
X45400250Y-25345581D01*
X45380038Y-25338349D01*
X45360632Y-25329170D01*
X45342219Y-25318134D01*
X45324976Y-25305346D01*
X45309070Y-25290930D01*
X45294654Y-25275024D01*
X45281866Y-25257781D01*
X45270830Y-25239368D01*
X45261651Y-25219962D01*
X45254419Y-25199750D01*
X45249203Y-25178926D01*
X45246053Y-25157691D01*
X45245000Y-25136250D01*
X45245000Y-24698750D01*
X45246053Y-24677309D01*
X45249203Y-24656074D01*
X45254419Y-24635250D01*
X45261651Y-24615038D01*
X45270830Y-24595632D01*
X45281866Y-24577219D01*
X45294654Y-24559976D01*
X45309070Y-24544070D01*
X45324976Y-24529654D01*
X45342219Y-24516866D01*
X45360632Y-24505830D01*
X45380038Y-24496651D01*
X45400250Y-24489419D01*
X45421074Y-24484203D01*
X45442309Y-24481053D01*
X45463750Y-24480000D01*
X45976250Y-24480000D01*
X45997691Y-24481053D01*
X45997691Y-24481053D01*
G37*
D11*
X45720000Y-24917500D03*
D10*
G36*
X45997691Y-22906053D02*
G01*
X46018926Y-22909203D01*
X46039750Y-22914419D01*
X46059962Y-22921651D01*
X46079368Y-22930830D01*
X46097781Y-22941866D01*
X46115024Y-22954654D01*
X46130930Y-22969070D01*
X46145346Y-22984976D01*
X46158134Y-23002219D01*
X46169170Y-23020632D01*
X46178349Y-23040038D01*
X46185581Y-23060250D01*
X46190797Y-23081074D01*
X46193947Y-23102309D01*
X46195000Y-23123750D01*
X46195000Y-23561250D01*
X46193947Y-23582691D01*
X46190797Y-23603926D01*
X46185581Y-23624750D01*
X46178349Y-23644962D01*
X46169170Y-23664368D01*
X46158134Y-23682781D01*
X46145346Y-23700024D01*
X46130930Y-23715930D01*
X46115024Y-23730346D01*
X46097781Y-23743134D01*
X46079368Y-23754170D01*
X46059962Y-23763349D01*
X46039750Y-23770581D01*
X46018926Y-23775797D01*
X45997691Y-23778947D01*
X45976250Y-23780000D01*
X45463750Y-23780000D01*
X45442309Y-23778947D01*
X45421074Y-23775797D01*
X45400250Y-23770581D01*
X45380038Y-23763349D01*
X45360632Y-23754170D01*
X45342219Y-23743134D01*
X45324976Y-23730346D01*
X45309070Y-23715930D01*
X45294654Y-23700024D01*
X45281866Y-23682781D01*
X45270830Y-23664368D01*
X45261651Y-23644962D01*
X45254419Y-23624750D01*
X45249203Y-23603926D01*
X45246053Y-23582691D01*
X45245000Y-23561250D01*
X45245000Y-23123750D01*
X45246053Y-23102309D01*
X45249203Y-23081074D01*
X45254419Y-23060250D01*
X45261651Y-23040038D01*
X45270830Y-23020632D01*
X45281866Y-23002219D01*
X45294654Y-22984976D01*
X45309070Y-22969070D01*
X45324976Y-22954654D01*
X45342219Y-22941866D01*
X45360632Y-22930830D01*
X45380038Y-22921651D01*
X45400250Y-22914419D01*
X45421074Y-22909203D01*
X45442309Y-22906053D01*
X45463750Y-22905000D01*
X45976250Y-22905000D01*
X45997691Y-22906053D01*
X45997691Y-22906053D01*
G37*
D11*
X45720000Y-23342500D03*
D12*
X25400000Y-27940000D03*
X25400000Y-30480000D03*
D13*
X25400000Y-33020000D03*
D14*
X43180000Y-30440000D03*
D15*
X43180000Y-27940000D03*
D12*
X78740000Y-33020000D03*
X78740000Y-30480000D03*
D13*
X78740000Y-27940000D03*
D12*
X73660000Y-30480000D03*
D13*
X73660000Y-27940000D03*
D10*
G36*
X77999504Y-21986204D02*
G01*
X78023773Y-21989804D01*
X78047571Y-21995765D01*
X78070671Y-22004030D01*
X78092849Y-22014520D01*
X78113893Y-22027133D01*
X78133598Y-22041747D01*
X78151777Y-22058223D01*
X78168253Y-22076402D01*
X78182867Y-22096107D01*
X78195480Y-22117151D01*
X78205970Y-22139329D01*
X78214235Y-22162429D01*
X78220196Y-22186227D01*
X78223796Y-22210496D01*
X78225000Y-22235000D01*
X78225000Y-23485000D01*
X78223796Y-23509504D01*
X78220196Y-23533773D01*
X78214235Y-23557571D01*
X78205970Y-23580671D01*
X78195480Y-23602849D01*
X78182867Y-23623893D01*
X78168253Y-23643598D01*
X78151777Y-23661777D01*
X78133598Y-23678253D01*
X78113893Y-23692867D01*
X78092849Y-23705480D01*
X78070671Y-23715970D01*
X78047571Y-23724235D01*
X78023773Y-23730196D01*
X77999504Y-23733796D01*
X77975000Y-23735000D01*
X77225000Y-23735000D01*
X77200496Y-23733796D01*
X77176227Y-23730196D01*
X77152429Y-23724235D01*
X77129329Y-23715970D01*
X77107151Y-23705480D01*
X77086107Y-23692867D01*
X77066402Y-23678253D01*
X77048223Y-23661777D01*
X77031747Y-23643598D01*
X77017133Y-23623893D01*
X77004520Y-23602849D01*
X76994030Y-23580671D01*
X76985765Y-23557571D01*
X76979804Y-23533773D01*
X76976204Y-23509504D01*
X76975000Y-23485000D01*
X76975000Y-22235000D01*
X76976204Y-22210496D01*
X76979804Y-22186227D01*
X76985765Y-22162429D01*
X76994030Y-22139329D01*
X77004520Y-22117151D01*
X77017133Y-22096107D01*
X77031747Y-22076402D01*
X77048223Y-22058223D01*
X77066402Y-22041747D01*
X77086107Y-22027133D01*
X77107151Y-22014520D01*
X77129329Y-22004030D01*
X77152429Y-21995765D01*
X77176227Y-21989804D01*
X77200496Y-21986204D01*
X77225000Y-21985000D01*
X77975000Y-21985000D01*
X77999504Y-21986204D01*
X77999504Y-21986204D01*
G37*
D16*
X77600000Y-22860000D03*
D10*
G36*
X75199504Y-21986204D02*
G01*
X75223773Y-21989804D01*
X75247571Y-21995765D01*
X75270671Y-22004030D01*
X75292849Y-22014520D01*
X75313893Y-22027133D01*
X75333598Y-22041747D01*
X75351777Y-22058223D01*
X75368253Y-22076402D01*
X75382867Y-22096107D01*
X75395480Y-22117151D01*
X75405970Y-22139329D01*
X75414235Y-22162429D01*
X75420196Y-22186227D01*
X75423796Y-22210496D01*
X75425000Y-22235000D01*
X75425000Y-23485000D01*
X75423796Y-23509504D01*
X75420196Y-23533773D01*
X75414235Y-23557571D01*
X75405970Y-23580671D01*
X75395480Y-23602849D01*
X75382867Y-23623893D01*
X75368253Y-23643598D01*
X75351777Y-23661777D01*
X75333598Y-23678253D01*
X75313893Y-23692867D01*
X75292849Y-23705480D01*
X75270671Y-23715970D01*
X75247571Y-23724235D01*
X75223773Y-23730196D01*
X75199504Y-23733796D01*
X75175000Y-23735000D01*
X74425000Y-23735000D01*
X74400496Y-23733796D01*
X74376227Y-23730196D01*
X74352429Y-23724235D01*
X74329329Y-23715970D01*
X74307151Y-23705480D01*
X74286107Y-23692867D01*
X74266402Y-23678253D01*
X74248223Y-23661777D01*
X74231747Y-23643598D01*
X74217133Y-23623893D01*
X74204520Y-23602849D01*
X74194030Y-23580671D01*
X74185765Y-23557571D01*
X74179804Y-23533773D01*
X74176204Y-23509504D01*
X74175000Y-23485000D01*
X74175000Y-22235000D01*
X74176204Y-22210496D01*
X74179804Y-22186227D01*
X74185765Y-22162429D01*
X74194030Y-22139329D01*
X74204520Y-22117151D01*
X74217133Y-22096107D01*
X74231747Y-22076402D01*
X74248223Y-22058223D01*
X74266402Y-22041747D01*
X74286107Y-22027133D01*
X74307151Y-22014520D01*
X74329329Y-22004030D01*
X74352429Y-21995765D01*
X74376227Y-21989804D01*
X74400496Y-21986204D01*
X74425000Y-21985000D01*
X75175000Y-21985000D01*
X75199504Y-21986204D01*
X75199504Y-21986204D01*
G37*
D16*
X74800000Y-22860000D03*
D17*
X55880000Y-25400000D03*
X48260000Y-33020000D03*
X55880000Y-27940000D03*
X48260000Y-30480000D03*
X55880000Y-30480000D03*
X48260000Y-27940000D03*
X55880000Y-33020000D03*
D15*
X48260000Y-25400000D03*
D18*
X60960000Y-26520000D03*
X65460000Y-26520000D03*
X60960000Y-33020000D03*
X65460000Y-33020000D03*
D10*
G36*
X69607691Y-30006053D02*
G01*
X69628926Y-30009203D01*
X69649750Y-30014419D01*
X69669962Y-30021651D01*
X69689368Y-30030830D01*
X69707781Y-30041866D01*
X69725024Y-30054654D01*
X69740930Y-30069070D01*
X69755346Y-30084976D01*
X69768134Y-30102219D01*
X69779170Y-30120632D01*
X69788349Y-30140038D01*
X69795581Y-30160250D01*
X69800797Y-30181074D01*
X69803947Y-30202309D01*
X69805000Y-30223750D01*
X69805000Y-30736250D01*
X69803947Y-30757691D01*
X69800797Y-30778926D01*
X69795581Y-30799750D01*
X69788349Y-30819962D01*
X69779170Y-30839368D01*
X69768134Y-30857781D01*
X69755346Y-30875024D01*
X69740930Y-30890930D01*
X69725024Y-30905346D01*
X69707781Y-30918134D01*
X69689368Y-30929170D01*
X69669962Y-30938349D01*
X69649750Y-30945581D01*
X69628926Y-30950797D01*
X69607691Y-30953947D01*
X69586250Y-30955000D01*
X69148750Y-30955000D01*
X69127309Y-30953947D01*
X69106074Y-30950797D01*
X69085250Y-30945581D01*
X69065038Y-30938349D01*
X69045632Y-30929170D01*
X69027219Y-30918134D01*
X69009976Y-30905346D01*
X68994070Y-30890930D01*
X68979654Y-30875024D01*
X68966866Y-30857781D01*
X68955830Y-30839368D01*
X68946651Y-30819962D01*
X68939419Y-30799750D01*
X68934203Y-30778926D01*
X68931053Y-30757691D01*
X68930000Y-30736250D01*
X68930000Y-30223750D01*
X68931053Y-30202309D01*
X68934203Y-30181074D01*
X68939419Y-30160250D01*
X68946651Y-30140038D01*
X68955830Y-30120632D01*
X68966866Y-30102219D01*
X68979654Y-30084976D01*
X68994070Y-30069070D01*
X69009976Y-30054654D01*
X69027219Y-30041866D01*
X69045632Y-30030830D01*
X69065038Y-30021651D01*
X69085250Y-30014419D01*
X69106074Y-30009203D01*
X69127309Y-30006053D01*
X69148750Y-30005000D01*
X69586250Y-30005000D01*
X69607691Y-30006053D01*
X69607691Y-30006053D01*
G37*
D11*
X69367500Y-30480000D03*
D10*
G36*
X68032691Y-30006053D02*
G01*
X68053926Y-30009203D01*
X68074750Y-30014419D01*
X68094962Y-30021651D01*
X68114368Y-30030830D01*
X68132781Y-30041866D01*
X68150024Y-30054654D01*
X68165930Y-30069070D01*
X68180346Y-30084976D01*
X68193134Y-30102219D01*
X68204170Y-30120632D01*
X68213349Y-30140038D01*
X68220581Y-30160250D01*
X68225797Y-30181074D01*
X68228947Y-30202309D01*
X68230000Y-30223750D01*
X68230000Y-30736250D01*
X68228947Y-30757691D01*
X68225797Y-30778926D01*
X68220581Y-30799750D01*
X68213349Y-30819962D01*
X68204170Y-30839368D01*
X68193134Y-30857781D01*
X68180346Y-30875024D01*
X68165930Y-30890930D01*
X68150024Y-30905346D01*
X68132781Y-30918134D01*
X68114368Y-30929170D01*
X68094962Y-30938349D01*
X68074750Y-30945581D01*
X68053926Y-30950797D01*
X68032691Y-30953947D01*
X68011250Y-30955000D01*
X67573750Y-30955000D01*
X67552309Y-30953947D01*
X67531074Y-30950797D01*
X67510250Y-30945581D01*
X67490038Y-30938349D01*
X67470632Y-30929170D01*
X67452219Y-30918134D01*
X67434976Y-30905346D01*
X67419070Y-30890930D01*
X67404654Y-30875024D01*
X67391866Y-30857781D01*
X67380830Y-30839368D01*
X67371651Y-30819962D01*
X67364419Y-30799750D01*
X67359203Y-30778926D01*
X67356053Y-30757691D01*
X67355000Y-30736250D01*
X67355000Y-30223750D01*
X67356053Y-30202309D01*
X67359203Y-30181074D01*
X67364419Y-30160250D01*
X67371651Y-30140038D01*
X67380830Y-30120632D01*
X67391866Y-30102219D01*
X67404654Y-30084976D01*
X67419070Y-30069070D01*
X67434976Y-30054654D01*
X67452219Y-30041866D01*
X67470632Y-30030830D01*
X67490038Y-30021651D01*
X67510250Y-30014419D01*
X67531074Y-30009203D01*
X67552309Y-30006053D01*
X67573750Y-30005000D01*
X68011250Y-30005000D01*
X68032691Y-30006053D01*
X68032691Y-30006053D01*
G37*
D11*
X67792500Y-30480000D03*
D19*
X71120000Y-30480000D03*
D20*
X60960000Y-35560000D02*
X48260000Y-35560000D01*
X78740000Y-33020000D02*
X78740000Y-35560000D01*
X48260000Y-35560000D02*
X43180000Y-35560000D01*
X34222081Y-35560000D02*
X43180000Y-35560000D01*
X25400000Y-30480000D02*
X27940000Y-30480000D01*
X27940000Y-35560000D02*
X34222081Y-35560000D01*
X66040000Y-35560000D02*
X58420000Y-35560000D01*
X27940000Y-30480000D02*
X27940000Y-35560000D01*
X43180000Y-35560000D02*
X43180000Y-30440000D01*
X48260000Y-35560000D02*
X48260000Y-33020000D01*
X73660000Y-30480000D02*
X73660000Y-35560000D01*
X73660000Y-35560000D02*
X78740000Y-35560000D01*
X66040000Y-35560000D02*
X68580000Y-35560000D01*
X68580000Y-35560000D02*
X73660000Y-35560000D01*
D21*
X65460000Y-33020000D02*
X65460000Y-34980000D01*
X65460000Y-34980000D02*
X66040000Y-35560000D01*
D20*
X55880000Y-25400000D02*
X55880000Y-22860000D01*
X71120000Y-22860000D02*
X53340000Y-22860000D01*
X43180000Y-22860000D02*
X30480000Y-22860000D01*
X25400000Y-27940000D02*
X27940000Y-27940000D01*
X27940000Y-27940000D02*
X27940000Y-22860000D01*
X27940000Y-22860000D02*
X30480000Y-22860000D01*
X73660000Y-27940000D02*
X73660000Y-22860000D01*
X71120000Y-22860000D02*
X73660000Y-22860000D01*
X73660000Y-22860000D02*
X74800000Y-22860000D01*
X43180000Y-27940000D02*
X43180000Y-25400000D01*
X43180000Y-25400000D02*
X43180000Y-22860000D01*
D21*
X45720000Y-23342500D02*
X45720000Y-22860000D01*
D20*
X55880000Y-22860000D02*
X45720000Y-22860000D01*
X45720000Y-22860000D02*
X43180000Y-22860000D01*
D21*
X55880000Y-30480000D02*
X67792500Y-30480000D01*
X59540000Y-27940000D02*
X60960000Y-26520000D01*
X55880000Y-27940000D02*
X59540000Y-27940000D01*
D20*
X77600000Y-22860000D02*
X78740000Y-22860000D01*
X78740000Y-22860000D02*
X78740000Y-27940000D01*
D21*
X69367500Y-30480000D02*
X71120000Y-30480000D01*
X46202500Y-25400000D02*
X45720000Y-24917500D01*
X48260000Y-25400000D02*
X46202500Y-25400000D01*
M02*
