G04 #@! TF.GenerationSoftware,KiCad,Pcbnew,(5.1.0)-1*
G04 #@! TF.CreationDate,2019-04-02T22:03:43+02:00*
G04 #@! TF.ProjectId,UV_Meter,55565f4d-6574-4657-922e-6b696361645f,rev?*
G04 #@! TF.SameCoordinates,Original*
G04 #@! TF.FileFunction,Legend,Bot*
G04 #@! TF.FilePolarity,Positive*
%FSLAX46Y46*%
G04 Gerber Fmt 4.6, Leading zero omitted, Abs format (unit mm)*
G04 Created by KiCad (PCBNEW (5.1.0)-1) date 2019-04-02 22:03:43*
%MOMM*%
%LPD*%
G04 APERTURE LIST*
%ADD10C,0.120000*%
%ADD11C,0.150000*%
G04 APERTURE END LIST*
D10*
X80070000Y-26610000D02*
X78740000Y-26610000D01*
X80070000Y-27940000D02*
X80070000Y-26610000D01*
X80070000Y-29210000D02*
X77410000Y-29210000D01*
X77410000Y-29210000D02*
X77410000Y-34350000D01*
X80070000Y-29210000D02*
X80070000Y-34350000D01*
X80070000Y-34350000D02*
X77410000Y-34350000D01*
D11*
X79906666Y-26062380D02*
X80240000Y-25586190D01*
X80478095Y-26062380D02*
X80478095Y-25062380D01*
X80097142Y-25062380D01*
X80001904Y-25110000D01*
X79954285Y-25157619D01*
X79906666Y-25252857D01*
X79906666Y-25395714D01*
X79954285Y-25490952D01*
X80001904Y-25538571D01*
X80097142Y-25586190D01*
X80478095Y-25586190D01*
X78954285Y-25110000D02*
X79049523Y-25062380D01*
X79192380Y-25062380D01*
X79335238Y-25110000D01*
X79430476Y-25205238D01*
X79478095Y-25300476D01*
X79525714Y-25490952D01*
X79525714Y-25633809D01*
X79478095Y-25824285D01*
X79430476Y-25919523D01*
X79335238Y-26014761D01*
X79192380Y-26062380D01*
X79097142Y-26062380D01*
X78954285Y-26014761D01*
X78906666Y-25967142D01*
X78906666Y-25633809D01*
X79097142Y-25633809D01*
X78144761Y-25538571D02*
X78001904Y-25586190D01*
X77954285Y-25633809D01*
X77906666Y-25729047D01*
X77906666Y-25871904D01*
X77954285Y-25967142D01*
X78001904Y-26014761D01*
X78097142Y-26062380D01*
X78478095Y-26062380D01*
X78478095Y-25062380D01*
X78144761Y-25062380D01*
X78049523Y-25110000D01*
X78001904Y-25157619D01*
X77954285Y-25252857D01*
X77954285Y-25348095D01*
X78001904Y-25443333D01*
X78049523Y-25490952D01*
X78144761Y-25538571D01*
X78478095Y-25538571D01*
X76954285Y-26062380D02*
X77525714Y-26062380D01*
X77240000Y-26062380D02*
X77240000Y-25062380D01*
X77335238Y-25205238D01*
X77430476Y-25300476D01*
X77525714Y-25348095D01*
M02*
